<svg xmlns="http://www.w3.org/2000/svg" width="20" height="20.002" viewBox="0 0 20 20.002">
    <path data-name="패스 89" d="M10.644 1.8c2.67 0 2.986.01 4.041.058a5.535 5.535 0 0 1 1.857.344 3.1 3.1 0 0 1 1.151.748 3.1 3.1 0 0 1 .749 1.15 5.535 5.535 0 0 1 .344 1.857c.048 1.055.058 1.371.058 4.041s-.01 2.986-.058 4.041a5.534 5.534 0 0 1-.344 1.857 3.315 3.315 0 0 1-1.9 1.9 5.535 5.535 0 0 1-1.857.344c-1.054.048-1.371.058-4.041.058s-2.987-.01-4.041-.058a5.535 5.535 0 0 1-1.855-.34 3.1 3.1 0 0 1-1.148-.751 3.1 3.1 0 0 1-.751-1.149 5.535 5.535 0 0 1-.349-1.859c-.043-1.055-.054-1.371-.054-4.041s.01-2.986.058-4.041A5.535 5.535 0 0 1 2.849 4.1 3.1 3.1 0 0 1 3.6 2.951 3.1 3.1 0 0 1 4.748 2.2a5.535 5.535 0 0 1 1.857-.344C7.66 1.81 7.976 1.8 10.646 1.8zm0-1.8C7.93 0 7.59.01 6.523.058a7.338 7.338 0 0 0-2.428.466 4.909 4.909 0 0 0-1.772 1.154A4.909 4.909 0 0 0 1.169 3.45 7.34 7.34 0 0 0 .7 5.877C.656 6.942.645 7.284.645 10s.012 3.057.06 4.123a7.332 7.332 0 0 0 .464 2.426 4.909 4.909 0 0 0 1.154 1.771 4.9 4.9 0 0 0 1.772 1.154 7.329 7.329 0 0 0 2.427.465c1.064.048 1.407.06 4.123.06s3.057-.011 4.123-.06a7.315 7.315 0 0 0 2.426-.465 5.11 5.11 0 0 0 2.925-2.925 7.331 7.331 0 0 0 .465-2.427c.048-1.064.06-1.407.06-4.123s-.012-3.057-.06-4.123a7.318 7.318 0 0 0-.465-2.426 4.9 4.9 0 0 0-1.153-1.771A4.91 4.91 0 0 0 17.194.524 7.34 7.34 0 0 0 14.767.06C13.7.012 13.361 0 10.644 0zm0 4.867a5.134 5.134 0 1 0 1.965.391 5.135 5.135 0 0 0-1.965-.393zm0 8.469A3.334 3.334 0 1 1 13 12.357a3.334 3.334 0 0 1-2.356.977zm6.539-8.672a1.2 1.2 0 1 1-1.2-1.2 1.2 1.2 0 0 1 1.2 1.198z" transform="translate(-.645 .002)" style="fill-rule:evenodd;fill:#fff"/>
</svg>
