<svg xmlns="http://www.w3.org/2000/svg" width="26.189" height="18.342" viewBox="0 0 26.189 18.342">
    <path data-name="패스 90" d="M26.288 3.694a3.283 3.283 0 0 0-2.315-2.315C21.929.823 13.739.823 13.739.823s-8.192 0-10.232.548a3.279 3.279 0 0 0-2.315 2.323A34.057 34.057 0 0 0 .645 10a34.057 34.057 0 0 0 .548 6.3 3.279 3.279 0 0 0 2.315 2.315c2.042.548 10.232.548 10.232.548s8.192 0 10.234-.548a3.283 3.283 0 0 0 2.314-2.315 34.185 34.185 0 0 0 .545-6.3 34.8 34.8 0 0 0-.545-6.306zM11.12 13.926V6.07L17.924 10z" transform="translate(-.645 -.822)" style="fill:#fff"/>
</svg>
