<svg xmlns="http://www.w3.org/2000/svg" width="48" height="48" viewBox="0 0 48 48">
    <g data-name="그룹 911">
        <path data-name="패스 2257" d="M820.25 714.25v-17h2v17a2 2 0 0 1-2 2h-32.5a2 2 0 0 1-2-2V698h2v16.25z" style="fill:#697278;fill-rule:evenodd" transform="translate(-780 -674)"/>
        <path data-name="패스 2258" d="M782.75 689.25a2 2 0 0 1 2-2h38.5a2 2 0 0 1 2 2V697a2 2 0 0 1-2 2h-38.5a2 2 0 0 1-2-2zm40.5 0h-38.5V697h38.5z" style="fill:#697278;fill-rule:evenodd" transform="translate(-780 -674)"/>
        <path data-name="패스 2259" d="M805 698v17.25h-2V698z" style="fill:#697278;fill-rule:evenodd" transform="translate(-780 -674)"/>
        <path data-name="패스 2260" d="M805 689.25h-8.125a5.125 5.125 0 0 1 0-10.25h.375a7.75 7.75 0 0 1 7.75 7.75zm-2-2v-.5a5.75 5.75 0 0 0-5.75-5.75h-.375a3.125 3.125 0 0 0 0 6.25z" style="fill:#697278;fill-rule:evenodd" transform="translate(-780 -674)"/>
        <path data-name="패스 2261" d="M805 687.25v-1.625a4.625 4.625 0 0 1 4.625-4.625h1.5a3.125 3.125 0 0 1 0 6.25zm6.125 2a5.125 5.125 0 0 0 0-10.25h-1.5a6.625 6.625 0 0 0-6.625 6.625v3.625z" style="fill:#697278;fill-rule:evenodd" transform="translate(-780 -674)"/>
    </g>
</svg>
