<svg data-name="Build &amp; Order_48" xmlns="http://www.w3.org/2000/svg" width="48" height="48" viewBox="0 0 48 48">
    <g data-name="그룹 936">
        <path data-name="패스 2288" d="M144.867 1169.75h-25.234a1.107 1.107 0 0 0-1.073.83l-1.525 5.91-1.631 6.64a5.282 5.282 0 0 0-.154 1.27v12.1h-2v-12.1a7.3 7.3 0 0 1 .212-1.75l1.638-6.65 1.527-5.92a3.109 3.109 0 0 1 3.009-2.33h25.234a3.109 3.109 0 0 1 3.009 2.33l1.5 5.84 2.726 6.07a7.286 7.286 0 0 1 .643 3v11.51h-2v-11.51a5.3 5.3 0 0 0-.467-2.18l-2.8-6.23-1.548-6a1.105 1.105 0 0 0-1.066-.83zm-24.117 21.2h23v5.55h-2v-3.55h-19v3.55h-2z" style="fill:#697278;fill-rule:evenodd" transform="translate(-109 -1158)"/>
        <path data-name="패스 2289" d="M140.5 1187h-15v-2h15z" style="fill:#697278;fill-rule:evenodd" transform="translate(-109 -1158)"/>
        <path data-name="패스 2290" d="M122.5 1187H118v-2h4.5z" style="fill:#697278;fill-rule:evenodd" transform="translate(-109 -1158)"/>
        <path data-name="패스 2291" d="M147.928 1187H143.5v-2h4.428z" style="fill:#697278;fill-rule:evenodd" transform="translate(-109 -1158)"/>
        <path data-name="패스 2292" d="M131.785 1177.5a79.017 79.017 0 0 0 18.948-2.21 1 1 0 1 1 .533 1.92 80.488 80.488 0 0 1-19.481 2.29 71.8 71.8 0 0 1-18.552-2.29 1 1 0 1 1 .533-1.92 70.517 70.517 0 0 0 18.019 2.21z" style="fill:#697278;fill-rule:evenodd" transform="translate(-109 -1158)"/>
    </g>
</svg>
