<svg xmlns="http://www.w3.org/2000/svg" width="92" height="92" viewBox="0 0 92 92">
    <defs>
        <filter id="0hs819l77a" x="0" y="0" width="92" height="92" filterUnits="userSpaceOnUse">
            <feOffset dy="8"/>
            <feGaussianBlur stdDeviation="6" result="blur"/>
            <feFlood flood-color="#05141f" flood-opacity=".161"/>
            <feComposite operator="in" in2="blur"/>
            <feComposite in="SourceGraphic"/>
        </filter>
    </defs>
    <g data-name="@@@Floating">
        <g style="filter:url(#0hs819l77a)">
            <circle data-name="타원 4" cx="28" cy="28" r="28" transform="translate(18 10)" style="fill:#f8f8f8"/>
        </g>
        <path data-name="패스 37" d="M9.5 12A1.5 1.5 0 1 0 8 10.5 1.5 1.5 0 0 0 9.5 12z" style="fill:#05141f" transform="translate(34 26)"/>
        <path data-name="패스 38" d="M15.5 12a1.5 1.5 0 1 0-1.5-1.5 1.5 1.5 0 0 0 1.5 1.5z" style="fill:#05141f" transform="translate(34 26)"/>
        <path data-name="패스 39" d="M6 22.445a.5.5 0 0 0 .817.387L11.5 19H21a2 2 0 0 0 2-2V4a2 2 0 0 0-2-2H4a2 2 0 0 0-2 2v13a2 2 0 0 0 2 2h2zm2-3.165V17H4V4h17v13H10.786z" style="fill-rule:evenodd;fill:#05141f" transform="translate(34 26)"/>
    </g>
</svg>
