<svg xmlns="http://www.w3.org/2000/svg" width="16" height="16" viewBox="0 0 16 16">
    <g data-name="그룹 105">
        <path data-name="패스 70" d="M8 15.431a6.469 6.469 0 1 0-6.5-6.469A6.485 6.485 0 0 0 8 15.431zm0 1.493a7.962 7.962 0 1 0-8-7.962 7.981 7.981 0 0 0 8 7.962z" style="fill:#fff;fill-rule:evenodd" transform="translate(0 -.963)"/>
        <path data-name="패스 71" d="M15 9.5H1V8h14z" transform="translate(0 -1)" style="fill:#fff;fill-rule:evenodd"/>
        <path data-name="패스 72" d="M4.25 8.962a10.6 10.6 0 0 1 3.227-8l1.046 1.07a9.116 9.116 0 0 0-2.773 6.93 9.116 9.116 0 0 0 2.773 6.93l-1.046 1.07a10.6 10.6 0 0 1-3.227-8z" transform="translate(0 -.963)" style="fill:#fff;fill-rule:evenodd"/>
        <path data-name="패스 73" d="M11.75 8.962a10.6 10.6 0 0 1-3.227 8l-1.046-1.07a9.116 9.116 0 0 0 2.773-6.93 9.116 9.116 0 0 0-2.773-6.93L8.523.962a10.6 10.6 0 0 1 3.227 8z" transform="translate(0 -.963)" style="fill:#fff;fill-rule:evenodd"/>
    </g>
</svg>
