<svg data-name="Find a dealer_32" xmlns="http://www.w3.org/2000/svg" width="32" height="32" viewBox="0 0 32 32">
    <defs>
        <clipPath id="9nbt2k17ta">
            <path data-name="사각형 2858" style="fill:none" d="M0 0h21.403v25.657H0z"/>
        </clipPath>
    </defs>
    <g data-name="그룹 3644">
        <g data-name="그룹 3643" transform="translate(5.001 3)" style="clip-path:url(#9nbt2k17ta)">
            <path data-name="패스 6312" d="M3.98 3.689A9.181 9.181 0 0 0 1.229 10.6c0 2.684 1.644 5.6 3.677 8.148a41.3 41.3 0 0 0 5.463 5.557.517.517 0 0 0 .673 0 41.431 41.431 0 0 0 5.458-5.553c2.033-2.549 3.676-5.464 3.676-8.148 0-5.717-4.18-9.379-9.476-9.379a9.686 9.686 0 0 0-6.72 2.464M3.143 2.8A10.916 10.916 0 0 1 10.7 0c5.92 0 10.7 4.16 10.7 10.6 0 3.125-1.877 6.322-3.943 8.914a42.751 42.751 0 0 1-5.631 5.727 1.736 1.736 0 0 1-2.247 0 42.751 42.751 0 0 1-5.629-5.725C1.883 16.924.006 13.727.006 10.6a10.388 10.388 0 0 1 3.135-7.8z" style="fill:#565f65;fill-rule:evenodd"/>
            <path data-name="패스 6313" d="M10.236 7.176a3.057 3.057 0 1 0 3.057 3.057 3.056 3.056 0 0 0-3.057-3.057m-4.279 3.057a4.279 4.279 0 1 1 4.279 4.279 4.279 4.279 0 0 1-4.279-4.279" transform="translate(.468 .468)" style="fill:#565f65;fill-rule:evenodd"/>
        </g>
    </g>
</svg>
