<svg id="Build_Order_48" data-name="Build &amp; Order_48" xmlns="http://www.w3.org/2000/svg" width="48" height="48" viewBox="0 0 48 48">
  <defs>
    <style>
      .cls-1 {
        fill: red;
        opacity: 0;
      }

      .cls-2 {
        fill: #ffffff;
        fill-rule: evenodd;
      }
    </style>
  </defs>
  <rect id="Area" class="cls-1" width="48" height="48"/>
  <g id="그룹_936" data-name="그룹 936" transform="translate(-109 -1158)">
    <path id="패스_2288" data-name="패스 2288" class="cls-2" d="M144.867,1169.75H119.633a1.107,1.107,0,0,0-1.073.83l-1.525,5.91-1.631,6.64a5.282,5.282,0,0,0-.154,1.27v12.1h-2v-12.1a7.3,7.3,0,0,1,.212-1.75L115.1,1176l1.527-5.92a3.109,3.109,0,0,1,3.009-2.33h25.234a3.109,3.109,0,0,1,3.009,2.33l1.5,5.84,2.726,6.07a7.286,7.286,0,0,1,.643,3v11.51h-2v-11.51a5.3,5.3,0,0,0-.467-2.18l-2.8-6.23-1.548-6A1.105,1.105,0,0,0,144.867,1169.75Zm-24.117,21.2h23v5.55h-2v-3.55h-19v3.55h-2Z"/>
    <path id="패스_2289" data-name="패스 2289" class="cls-2" d="M140.5,1187h-15v-2h15Z"/>
    <path id="패스_2290" data-name="패스 2290" class="cls-2" d="M122.5,1187H118v-2h4.5Z"/>
    <path id="패스_2291" data-name="패스 2291" class="cls-2" d="M147.928,1187H143.5v-2h4.428Z"/>
    <path id="패스_2292" data-name="패스 2292" class="cls-2" d="M131.785,1177.5a79.017,79.017,0,0,0,18.948-2.21,1,1,0,1,1,.533,1.92,80.488,80.488,0,0,1-19.481,2.29,71.8,71.8,0,0,1-18.552-2.29,1,1,0,1,1,.533-1.92A70.517,70.517,0,0,0,131.785,1177.5Z"/>
  </g>
</svg>
