<svg xmlns="http://www.w3.org/2000/svg" viewBox="0 0 204.42 187.35"><defs><style>.cls-1{fill:#eb7f80;}.cls-2{fill:#e44b44;}.cls-3{fill:#ea7775;}.cls-4{fill:#e24039;}.cls-5{fill:#db2d28;}.cls-6{fill:#ee807e;}.cls-7{fill:#be2126;}.cls-8{fill:#ec8987;}.cls-9{fill:#ee8381;}.cls-10{fill:#f5a09f;}.cls-11{fill:#f6b9ba;}.cls-12{fill:#f6a6a4;}.cls-13{fill:#f5b0b3;}.cls-14{fill:#f6adaf;}.cls-15{fill:#f5a8a9;}.cls-16{fill:#dd4c49;}.cls-17{fill:#f5b2b3;}.cls-18{fill:#f6a4a3;}.cls-19{fill:#f6abaa;}.cls-20{fill:#f6a9a8;}.cls-21{fill:#f7b9b7;}.cls-22{fill:#f59d9a;}.cls-23{fill:#f5928f;}.cls-24{fill:#e33a2f;}.cls-25{fill:#f7c0be;}.cls-26{fill:#f6b1b0;}.cls-27{fill:#d82f28;}.cls-28{fill:#ea5a52;}.cls-29{fill:#d62227;}.cls-30{fill:#e44036;}.cls-31{fill:#e45857;}.cls-32{fill:#f59290;}.cls-33{fill:#f8bfbd;}.cls-34{fill:#f6adac;}.cls-35{fill:#f7b4b2;}.cls-36{fill:#f7b8b7;}.cls-37{fill:#ea7574;}.cls-38{fill:#d02427;}.cls-39{fill:#f5b2b1;}.cls-40{fill:#f5a4a4;}.cls-41{fill:#f8bfbf;}.cls-42{fill:#f58e8a;}.cls-43{fill:#f48583;}.cls-44{fill:#f59c9b;}.cls-45{fill:#f6a9a9;}.cls-46{fill:#f6a9ac;}.cls-47{fill:#f26f6a;}.cls-48{fill:#f4a6a4;}.cls-49{fill:#722919;}.cls-50{fill:#f5b2b0;}.cls-51{fill:#9a1e1f;}.cls-52{fill:#a55943;}.cls-53{fill:#8f211c;}.cls-54{fill:#e8c3bd;}.cls-55{fill:#f6aaad;}.cls-56{fill:#f37d7a;}.cls-57{fill:#f48280;}.cls-58{fill:#f59595;}.cls-59{fill:#f5adaa;}.cls-60{fill:#f6acad;}.cls-61{fill:#f6b7ba;}.cls-62{fill:#f4807c;}.cls-63{fill:#f37471;}.cls-64{fill:#f48581;}.cls-65{fill:#f37975;}.cls-66{fill:#f58d8b;}.cls-67{fill:#f69c9b;}.cls-68{fill:#f58984;}.cls-69{fill:#f2918f;}.cls-70{fill:#f69a9a;}.cls-71{fill:#e23b2f;}.cls-72{fill:#f9c6c4;}.cls-73{fill:#f5b0ac;}.cls-74{fill:#f6a7a4;}.cls-75{fill:#f6b1af;}.cls-76{fill:#f69a98;}.cls-77{fill:#da2827;}.cls-78{fill:#f6b0af;}.cls-79{fill:#f5908b;}.cls-80{fill:#f5918d;}.cls-81{fill:#f58985;}.cls-82{fill:#f6b4b1;}.cls-83{fill:#f6948f;}.cls-84{fill:#e89189;}.cls-85{fill:#e87574;}.cls-86{fill:#f7b9b8;}.cls-87{fill:#f8c1c3;}.cls-88{fill:#f8bcbd;}.cls-89{fill:#f8c5c6;}.cls-90{fill:#f7b6b4;}.cls-91{fill:#f5b0af;}.cls-92{fill:#f69998;}.cls-93{fill:#f38581;}.cls-94{fill:#e8453d;}.cls-95{fill:#ce2227;}.cls-96{fill:#f58a87;}.cls-97{fill:#f7b4b3;}.cls-98{fill:#f5a7a3;}.cls-99{fill:#f37772;}.cls-100{fill:#f48080;}.cls-101{fill:#f26f6c;}.cls-102{fill:#f69e9d;}.cls-103{fill:#d42729;}.cls-104{fill:#f1716d;}.cls-105{fill:#f7a19f;}.cls-106{fill:#f37271;}.cls-107{fill:#f5a3a2;}.cls-108{fill:#f5a0a2;}.cls-109{fill:#f6a1a3;}.cls-110{fill:#ed6561;}.cls-111{fill:#f5a3a4;}.cls-112{fill:#f59192;}.cls-113{fill:#f6a0a1;}.cls-114{fill:#f6a7a7;}.cls-115{fill:#ef6b67;}.cls-116{fill:#c14a29;}.cls-117{fill:#d25c2e;}.cls-118{fill:#f58d8d;}.cls-119{fill:#c56e5b;}.cls-120{fill:#932e1d;}.cls-121{fill:#786b35;}.cls-122{fill:#f48683;}.cls-123{fill:#908346;}.cls-124{fill:#e1d1c9;}.cls-125{fill:#e2c3ba;}.cls-126{fill:#673013;}.cls-127{fill:#8c7c3a;}.cls-128{fill:#7c451d;}.cls-129{fill:#dfcec0;}.cls-130{fill:#d72427;}.cls-131{fill:#f6a6a6;}.cls-132{fill:#e23f38;}.cls-133{fill:#e74940;}.cls-134{fill:#6b1917;}.cls-135{fill:#731c15;}.cls-136{fill:#b74326;}.cls-137{fill:#ef746d;}.cls-138{fill:#f6b5b5;}.cls-139{fill:#f59391;}.cls-140{fill:#f4837f;}.cls-141{fill:#f6abab;}.cls-142{fill:#f69b9a;}.cls-143{fill:#f58c86;}.cls-144{fill:#e95551;}.cls-145{fill:#f69e9c;}.cls-146{fill:#f37e7b;}.cls-147{fill:#f5b2af;}.cls-148{fill:#f7b4b5;}.cls-149{fill:#dc2e2b;}.cls-150{fill:#f6b4b3;}.cls-151{fill:#f59b9a;}.cls-152{fill:#f58b89;}.cls-153{fill:#f58a88;}.cls-154{fill:#f5918f;}.cls-155{fill:#f59291;}.cls-156{fill:#f6a8a8;}.cls-157{fill:#ed514a;}.cls-158{fill:#f69593;}.cls-159{fill:#f3726b;}.cls-160{fill:#f5908d;}.cls-161{fill:#f26d67;}.cls-162{fill:#f6a4a2;}.cls-163{fill:#f69896;}.cls-164{fill:#e23d34;}.cls-165{fill:#ed615a;}.cls-166{fill:#f5a2a1;}.cls-167{fill:#f07573;}.cls-168{fill:#e22e28;}.cls-169{fill:#db2127;}.cls-170{fill:#912b1e;}.cls-171{fill:#f37e7e;}.cls-172{fill:#c45628;}.cls-173{fill:#f5a4a6;}.cls-174{fill:#f6acac;}.cls-175{fill:#e9514a;}.cls-176{fill:#c12226;}.cls-177{fill:#f69b99;}.cls-178{fill:#ec5d57;}.cls-179{fill:#a89958;}.cls-180{fill:#847b3e;}.cls-181{fill:#403518;}.cls-182{fill:#958c54;}.cls-183{fill:#8e5d25;}.cls-184{fill:#cfbeaa;}.cls-185{fill:#a45025;}.cls-186{fill:#5e512a;}.cls-187{fill:#cfb19e;}.cls-188{fill:#ccb395;}.cls-189{fill:#a94a25;}.cls-190{fill:#7b1817;}.cls-191{fill:#5c3113;}.cls-192{fill:#3e2813;}.cls-193{fill:#8d3328;}.cls-194{fill:#f5bab6;}.cls-195{fill:#d8532a;}.cls-196{fill:#a44324;}.cls-197{fill:#d6bba5;}.cls-198{fill:#f5a3a1;}.cls-199{fill:#881d1b;}.cls-200{fill:#cd5a41;}.cls-201{fill:#e6bab3;}.cls-202{fill:#ed7270;}.cls-203{fill:#32100c;}.cls-204{fill:#581512;}.cls-205{fill:#d06962;}.cls-206{fill:#721912;}.cls-207{fill:#dbc9bf;}.cls-208{fill:#f0908e;}.cls-209{fill:#f2706c;}.cls-210{fill:#f69591;}.cls-211{fill:#c84528;}.cls-212{fill:#f6a7a6;}.cls-213{fill:#f37d76;}.cls-214{fill:#f48986;}.cls-215{fill:#f7b6b5;}.cls-216{fill:#f5928e;}.cls-217{fill:#f8bbb8;}.cls-218{fill:#f48680;}.cls-219{fill:#881c1b;}.cls-220{fill:#f5938f;}.cls-221{fill:#f8bcbb;}.cls-222{fill:#6b1310;}.cls-223{fill:#f26b67;}.cls-224{fill:#bd682b;}.cls-225{fill:#f6b0b1;}.cls-226{fill:#f18584;}.cls-227{fill:#f69b9b;}.cls-228{fill:#f26863;}.cls-229{fill:#f37d78;}.cls-230{fill:#f37b75;}.cls-231{fill:#b62825;}.cls-232{fill:#77321c;}.cls-233{fill:#89432e;}.cls-234{fill:#d27a62;}.cls-235{fill:#943620;}.cls-236{fill:#b24026;}.cls-237{fill:#dbc1b6;}.cls-238{fill:#ded5ca;}.cls-239{fill:#e2d4c4;}.cls-240{fill:#957938;}.cls-241{fill:#cfac9c;}.cls-242{fill:#7a6f38;}.cls-243{fill:#d1b3a3;}.cls-244{fill:#512711;}.cls-245{fill:#ca967f;}.cls-246{fill:#942b1f;}.cls-247{fill:#bb997e;}.cls-248{fill:#b57c61;}.cls-249{fill:#973620;}.cls-250{fill:#d1bfb3;}.cls-251{fill:#ddc1bc;}.cls-252{fill:#e57e78;}.cls-253{fill:#681713;}.cls-254{fill:#7b211c;}.cls-255{fill:#c94c2e;}.cls-256{fill:#841919;}.cls-257{fill:#912a1e;}.cls-258{fill:#bd6128;}.cls-259{fill:#792420;}.cls-260{fill:#361212;}.cls-261{fill:#9d5a4a;}.cls-262{fill:#ceb7ab;}.cls-263{fill:#9f4a24;}.cls-264{fill:#caa187;}.cls-265{fill:#d5a185;}</style></defs><g id="Layer_2" data-name="Layer 2"><g id="Layer_1-2" data-name="Layer 1"><path class="cls-1" d="M149.51,1h1.89a5.22,5.22,0,0,1,2.06-.94,8.89,8.89,0,0,1,3,.11c5.95,3.33,12.3,6.11,16.52,11.86a2.9,2.9,0,0,1-.16,2.2,3.39,3.39,0,0,1-2.59,1.27C165.4,11.45,161.12,6.91,154.55,5a26.62,26.62,0,0,0-12.39-.85,64.1,64.1,0,0,0-7.78,1.42c-12.79,3.22-21.59,11.4-28,22.54a12.58,12.58,0,0,1-1.26,1.76c-1.75,2-3.2,2.3-4-.77,5.32-12.48,14.62-20.8,27-25.89,1.39-.43,2.75-.92,4.13-1.39,2.62-.58,5.19-1.76,8-.76h4.25A4,4,0,0,1,149.51,1Z"/><path class="cls-2" d="M95.41,184.27c-6.33-1.88-11.48-6-16.41-9.94a18.13,18.13,0,0,1-6.55-13.22c.9-1.72,3.43-1.3,4.19-3.2a1.76,1.76,0,0,1,1.61,1.1c1.26,6.5,3.71,12.21,10.09,15.33a8.13,8.13,0,0,1,1.7,1.22c1.87,2.7,5.07,3.94,7.09,6.48C98,183.94,97.92,185,95.41,184.27Z"/><path class="cls-3" d="M146.65,145.1c-.08,4.61,2,8.89,1,13.8-2,10-7.63,17-16.17,22.07-.94-.41-1.58-1-1.16-2.14,1.17-1.83,3.39-2.3,4.86-3.74a30.06,30.06,0,0,0,8.75-13.5,11.77,11.77,0,0,0,.28-7.7c-1-5.86-1.72-11.8-4.56-17.18-.58-1.44-1.47-2.93.58-4,3.51.35,4.19,3.37,5.52,5.8C146.31,140.68,147.39,142.77,146.65,145.1Z"/><path class="cls-4" d="M55.59,132.2c-.38.93-1.27.93-2.06,1.12-2.14,2.42-5.25,2.26-8,3.05a22.18,22.18,0,0,1-2.44.14c-2.22.06-4.44,0-6.66-.1-2.61-.89-5.69-.26-7.91-2.43l-6.11-2.74a1.18,1.18,0,0,1,.3-1.52c1.79-1.16,3.8-.86,5.77-.87,3.67,1,7.73-1.36,11.21,1.28-.74,3.22-4,.2-5,1.76,4.37.21,8.6-2.23,13.29-1.74,2.28.84,4.86.29,7.09,1.45Z"/><path class="cls-5" d="M68.35,148.11v-9a1.91,1.91,0,0,1,1.35-2.25c1.34,0,1.89.92,2.3,2.13.07.54.84-.62.34-.18q-.37.33-.39-.3c0-2.51,0-2.51,2.14-2.91,1.86,3.77-.4,7-1.28,10.45-.43,1.81.44,3.17,1.5,4.5a8.43,8.43,0,0,1,1.88,4c.31,2.11-.09,4.25-2.29,4.89s-2.34-1.8-3.22-3.06c-1.09-1.55-.05-3.61-1.24-5.14C67.89,150.6,68.84,149.1,68.35,148.11Z"/><path class="cls-6" d="M22.61,130.25l-.21,1c-4,.29-5.89-3.37-8.89-5-1.12.32-1.69-.22-1.93-1.26l-2.1-2c-.87-.56-2.11-.35-2.78-1.33-1.14-1.55-2.62-2.81-3.79-4.35a10.5,10.5,0,0,1-.7-1.16C1.46,113.82-1,111.89.42,109a3.37,3.37,0,0,1,3.37.78c4.22,7.66,10.5,13.38,17.4,18.53A3.19,3.19,0,0,1,22.61,130.25Z"/><path class="cls-7" d="M69.44,151.21c1.68,1.38.88,3.8,2.24,5.32.68.76.68,2.62,2.27,1.92a2.75,2.75,0,0,0,1.37-3c-.41-1.92-1-4.19-2.8-5-2.66-1.18-1.83-2.62-1-4.32,3.26-3.24,4.26-.69,5.21,2-.1,3.27,2.16,6.57-.09,9.82.28,3.29-1.29,4.1-4.19,3.11C69.71,158.34,69.28,154.86,69.44,151.21Z"/><path class="cls-8" d="M95.41,184.27c1.66-.05,1.94-.76,1-2.07.51-.46,1.28-.9,1.76-.49,4.27,3.69,9.4,1.67,14.14,2.22a4.41,4.41,0,0,1,2.19.87,1.08,1.08,0,0,1,.08,1.45C108,187.79,101.46,188.18,95.41,184.27Z"/><path class="cls-9" d="M130.5,179c.33.65.66,1.3,1,1.95a49,49,0,0,0-13.89,4.26c-1.41-2.06-1.36-2.77.73-3.85,1.56-.81,3.29-1.29,4.91-2C125.66,179.52,127.91,175.84,130.5,179Z"/><path class="cls-10" d="M123.54,180.17a7,7,0,0,1-4.31,2c-1.61.3-2.72,1.14-1.64,3-.73,1.17-2,.79-3,1,0-.37,0-.74-.07-1.11-1.46-2.95.55-4.21,2.62-5.45C119.3,179.31,121.53,178.35,123.54,180.17Z"/><path class="cls-11" d="M133.51,4.24l8.94-1.1a1.62,1.62,0,0,1,2.5.51C146,8,141.7,6.6,140.12,7.55c-2.57,1.57-2.63,3.1-1.83,5.2.74,1.94,2.07,3.13,4.06,1.19,1.27-1.24,2.56-2.1,4.32-.93.25,4.49-3.38,6.61-5.78,9.48-3,.82-5.6,1.9-7.72,4.69-2.49,3.29-4.71,1.06-6.26-1.66-.15-2.88,1.93-4.62,3.41-6.61a1.91,1.91,0,0,0,.32-.71,3.16,3.16,0,0,0-.67.63,22.42,22.42,0,0,1-3.41,3c-3.43.53-4.52,3.57-6.3,5.87-1.34.6-2.92.25-4.19,1.34s-3.36,2.4-4.84.68a5.92,5.92,0,0,1-.8-6.95,28.08,28.08,0,0,1,13.7-12.25C127.6,8.93,131.05,7.33,133.51,4.24Z"/><path class="cls-12" d="M76.56,1.14,78.5,1A2.94,2.94,0,0,1,81,1.26a39.86,39.86,0,0,1,5.58,3.26,38.29,38.29,0,0,1,4.15,3.9,9,9,0,0,1,1.17,1.44,21.68,21.68,0,0,0,1.33,2,22.87,22.87,0,0,1,1.92,2.35c.83,1.47,1.53,3,2.31,4.49L98.72,21c1.27,2.66,3,5.16,2.84,8.32,1.2,2.54,2,.36,2.88-.26,1.5,1.37,1.12,3,.56,4.58a47.35,47.35,0,0,0-1.74,26.09,11.3,11.3,0,0,0,5.49,8.06,1.9,1.9,0,0,1-.51,2.53c-1.61.59-3.66-1.83-5,.75-.33.54-.68,1.06-1,1.59a11.3,11.3,0,0,1-1.69,2.76,2.44,2.44,0,0,1-1.28.23c-2.77-1.45-.82-5-3.05-6.74,2-1.71,3.66-3.4,1.85-6.34-.8-1.3-.37-2.87.37-4.22.58-1.06.62-1.84-.9-1.92-1.57-.88-3.32-.47-5-.72C88.8,53,88.76,52,92.15,47.13c1.21-.62,1.71.61,3,1.2C95.05,42.84,93.46,37.93,92,33c-.54-1.87-1.67-3.63-.93-5.71,3.34-2.28,3.57-5.08,1.83-8.58C90.28,13.37,86.8,9,81.49,6,79.57,5,77.06,4.32,76.63,1.55Z"/><path class="cls-13" d="M108.51,68.15c-4.09-.84-6.54-2.5-6.27-7.53.22-3.95-2.15-8.1-1.71-12,.51-4.46.42-9.21,2.46-13.42,1-2,1.79-3.91,1.45-6.16l1-1c4.17-1.08,4,2.12,4.31,4.56.24,1.74-.41,3.55,2.73,3,3-.53,3.18,2,3.26,4.26a15.32,15.32,0,0,1-3.56,8.3c-3.41,1.94-1.94,6.6-5.12,8.26,2.07,3,9.67-3.86,7.61,5a14.25,14.25,0,0,1-.39,1.46C113.15,65.63,113.78,70.18,108.51,68.15Z"/><path class="cls-14" d="M114.56,40.28c-.26-2.38.48-6-3.87-2.55-1.49,1.16-2.4.35-2.38-1.95,0-2.74,2-6.66-2.91-7.66C111,15.75,120.91,8.4,133.51,4.24c-.2,4.74-4.8,6-7.56,7-2.94,1-4.8,3.48-7.85,4.2s-7.19,9.1-6.84,11.76c.4,3.09,2.52,2.89,3.52,1.45,1.73-2.5,3.75-1.35,5.72-1.44,1.36-.14,1.4,1,.78,1.37-2.81,1.71-2.5,4.51-2.8,7.12C117.41,37.4,117.32,40,114.56,40.28Z"/><path class="cls-15" d="M144.5,4.16a2.21,2.21,0,0,0-2.05-1c8.18-2.8,15,.71,21.37,5.09,2.55,1.75,5.6,3.52,6.5,7a1.4,1.4,0,0,1,.42,1.31,2.69,2.69,0,0,1-2.62,2.15c-3.61-1.57-7.69-2.59-8.53-7.36A8.42,8.42,0,0,0,154.4,8c-1.85-.27-3.24,2.39-5.29.84.79-2.34.75-4.07-2.53-3.67A2.66,2.66,0,0,1,144.5,4.16Z"/><path class="cls-16" d="M170.34,16.18a1.44,1.44,0,0,0,0-.94c.46-1,1.36-1.08,2.27-1.19.68,1,1.37,2.05,2.06,3.08,1.35,1.07,2.14,2.29,1.17,4a2.18,2.18,0,0,1-2.14.46C171.9,20.22,170.28,18.72,170.34,16.18Z"/><path class="cls-17" d="M117.5,180.16c-1.42,1.41-3,2.73-3,5l-2-.1a3.3,3.3,0,0,1-1-2.73c-1.77-4.76-3.31-9.59-4.76-14.47a87.7,87.7,0,0,0-5-14.13c1.3,9.84,5.32,18.55,9.53,27.2-1.19,3.94-6.77,5.58-9.4,2.62-3.38-3.8-8.44-4.63-12.4-7.36l-1-1c-4.67-3.55-3.17-10.12-6.91-14.19-.68-.73.25-1.86,1.06-2.51a2.23,2.23,0,0,1,2.76-.14,14.52,14.52,0,0,1,3.15,3.16c1,1.17,1.41,2.61,2.6,4.69-.45-4.62-2.38-8.25-1.56-12.15a42.22,42.22,0,0,0,.35-11.17c-.32-2.59.38-4.5,3.21-5.08a13,13,0,0,1,6,7.67c.57,2.16,1.41,2.93,3.64,3.08,2.82.19,2.78-1.76,3.26-3.45a25.58,25.58,0,0,1,.85-2.87c1.14-4.32-2.31-7.68-2.49-11.72a7.49,7.49,0,0,1-.16-3.55,6.58,6.58,0,0,1,3.39-2.62c2.75-1.09,4.77-.67,5.21,2.67.23,1.71,1.65,1.73,2.81,2.16a5.14,5.14,0,0,1,2.33,1.62c.84,1.95,2.71,3.32,3.13,5.52-.69,2.54-1.72,4.79-5,4.31-2.46-.37-2.06,1.68-2.51,2.86-1.46,3.82-1.06,8.19-4,12.56,2.53-2.59,4.82-3.92,6-6.45a2.45,2.45,0,0,1,3.5-.84,3.87,3.87,0,0,1,1.9,5c-2.26,2,.66,2.91,1,4.37.47,2.24,2.85,4.43-.28,6.49-2.62.06-3.91-1.44-4.67-4.67-.9,4.26.58,8.57-3.86,11,2.52,2,5.77,3,6.08,6.42A2.56,2.56,0,0,1,117.5,180.16Z"/><path class="cls-18" d="M76.64,158c.38-3.32-1.68-6.38-1.06-9.73-1-5.76.24-11.31,1.62-16.84A4.36,4.36,0,0,1,78.61,128c1.57.14,2.33-1.43,3.69-1.8,1.71-.36,3.35-.36,4.69,1,2.1,4-.14,8,0,12-.12,3.94.46,7.91-.46,11.81A2.68,2.68,0,0,1,84.42,153c-2.5.45-4.32,1.16-3.87,4.42.21,1.53-1.34,2.05-2.86,1.7Z"/><path class="cls-19" d="M77.69,159.11c.72-.59,2.16-1.5,2.06-1.72-3.39-7.53,2.91-4.46,5.65-5.24,2.88,2.86,4,6.08,2.17,10-.63-.75-1.24-1.51-1.89-2.24-.79-.9-1.56-1.78-2.84-.55-1.52,1.47.24,1.76.78,2.6,1.39,2.21,4.25,4.16,1.66,7.3,2,1.49,3.55,3.22,3.19,6C82.52,173.88,77.78,166.8,77.69,159.11Z"/><path class="cls-20" d="M89.43,176.17c2-.17,5.1-3.47,5.28,1.81,0,.38.72,1.1.87,1,4.87-1.82,5.83,2.68,8.51,4.72,1.58,1.21,5.68,1.68,6.42-2.64,1.1-.59,1.41.42,1.95,1,0,1,.05,2,.07,3-5.59.24-11.3,1.24-16.13-2.84C93.74,180.58,91.12,178.91,89.43,176.17Z"/><path class="cls-21" d="M117.5,180.16c2.14-4.4-.6-6.21-4.14-6.91-2.82-.56-3.48-1.6-1.12-3.13,3-2,3.94-4.05,2.68-7.43-.59-1.59,1.12-2.56,2.08-3.95,1.59,1.86,1.6,5,4.56,5.41,3,1.73,3.5,5.22,5.4,7.73,3.31,2.1,3.19-1.57,4.18-2.77s-.42-1.88-1.63-2a7.77,7.77,0,0,1-3.3-.6,37.08,37.08,0,0,1-5.7-12.47c-.16-2-.12-4.43-2.66-4.64-2.15-.17-2.31,1.93-2.38,3.66,0,.86-.33,2-1.32,1.65-3.29-1.06-3,2.22-4.94,4.61.88-8.22,2.84-14.89,4.81-22.07,3.5,5.08,4.87,1.51,6.48-1.1a30.7,30.7,0,0,0,14.37,1c4.32,1.51,2.87,5.43,2.1,7.64-1.81,5.12,1.74,7.2,4.51,9.44,4.38,3.55,4.6,3.35.87,7.4-.8.86-2,1.72-2,2.8.37,4.8-3.4,7.74-4.93,11.66-1.3,1.56-3.27,2-5,2.89-2.63-1.49-4.37,2.39-7,1.15C121.53,179.64,119.51,181.17,117.5,180.16Z"/><path class="cls-22" d="M135.46,176.13c-.21-.25-.63-.66-.59-.71,3.71-4.71,2.51-11.82,7.71-15.77.89-.68,2.52-1.81,1-2.53-3.11-1.45-5.19-4.07-7.89-5.79-1.91-1.22-2.63-1.68-1.22-3.5,2.36-3,2.06-6.32,1.05-9.7-1.73-3.24-3.87-6.26-5.28-9.68-.27-1.65.17-3,1.9-3.47a2.75,2.75,0,0,1,3.37,1.44c.74,2.06,2.68,2.29,4.1,3.31a3.1,3.1,0,0,1,1,3.27c-1.84,1-.51,2.07-.13,3.12a43.63,43.63,0,0,0,4.93,18C147,163.67,142.12,170.31,135.46,176.13Z"/><path class="cls-23" d="M145.44,154.14c-4.36-5.26-6.94-11-4.93-18C144.16,141.58,144.49,148,145.44,154.14Z"/><path class="cls-24" d="M61.55,131.14c-2,.12-3.84,1.48-6,1.06l-.09-.09c.56-2.05,1.2-4.1-.36-6a2.83,2.83,0,0,1,1.34-2.46,5.59,5.59,0,0,1,2.16-.61c6,.79,6.92,2.13,4.77,7a3.69,3.69,0,0,1-1.13,1Z"/><path class="cls-25" d="M39.47,130c-3.66-.42-7.32,1.61-11,0-3.58-.53-7.12-1.39-10-3.59-1.69-1.29-4.72-2.39-2.69-5.64,4.5.75,9-.27,13.4,0-4.4-.44-9.08,1.21-13.57-.41-5.71,0-9.51-3.74-9.77-9.57a1.77,1.77,0,0,1,1-.89c2.07,1.4,4.11,2.24,6-.33a7,7,0,0,1,2.77-.58,29.62,29.62,0,0,0,8,0,6.61,6.61,0,0,1,3.58.7c1.23.74.32,2.21,1.37,3.55,3.91-4.41,8.14-2.92,11.95,0,1.84,1.42,1.05,3.63-.36,5.35a4,4,0,0,1-2.67,1c-.58.08-.21.71,0,.35.36-.53,1.34-.42,2-.62,4.87-1.73,9,2.53,13.89,1.57,1.23-.25,1.42,1.11,1.17,2.17a6,6,0,0,1-2.24,3.75C48.07,127.89,44.27,130.93,39.47,130Z"/><path class="cls-26" d="M6.53,110.1c.51,5.29,4.14,8.94,9,9.09a1.31,1.31,0,0,1,0,1.91c.63,4.39,4.81,4.57,7.63,6.31A53.28,53.28,0,0,0,28.49,130l-5.88.28C14.52,125.19,7,119.63,3.53,110.15a1.85,1.85,0,0,1,2.7-1.25A1.06,1.06,0,0,1,6.53,110.1Z"/><path class="cls-27" d="M39.47,130c4.36-1.29,8.44-3.47,13-4a1,1,0,0,1,1.32.31c.35,4-2.54,4.39-5.38,4.82-4.56.42-9.06,1.75-14,.75C35.92,130.32,38.5,132.1,39.47,130Z"/><path class="cls-28" d="M48.44,131.11c1.34-2,5-1.49,5-4.85a1.24,1.24,0,0,1,1.86-.15c3.32,1.9,4.68,3.86.18,6C53.16,131.71,50.55,133.15,48.44,131.11Z"/><path class="cls-29" d="M78.36,131.14Q77,139.7,75.58,148.27c-.33-2.68-1.58-3.58-4.06-2.12.78-3.65,2.78-7.08,2-11-1.76-1.58-1.88-3.84-2.47-5.91a2.85,2.85,0,0,1,1.39-2.47C76,126.06,77.07,128.75,78.36,131.14Z"/><path class="cls-30" d="M71.41,129.12a8.51,8.51,0,0,1,2.09,6c-1.72,1.35-.56,3.37-1.21,5.08-1.28-.69-1.07-2.66-2.62-3-.83-2.11.79-3.95.67-6C69.86,130.07,69.87,129.2,71.41,129.12Z"/><path class="cls-31" d="M.67,109.12v-2.93a2.3,2.3,0,0,1,2.46-.71,6.17,6.17,0,0,1,3.52,2.94l-.18.65c-1.24-.35-2.07.43-2.94,1.08Z"/><path class="cls-32" d="M202.56,110q-1.06,5.13-2.12,10.24c-.76,1.22-.81,2.81-2,3.77l0,.17a14.74,14.74,0,0,1-4.72,7,37.12,37.12,0,0,1-12.47,5.34c-4,1-8,1.07-11.64-1.23l-1.08,0A89.73,89.73,0,0,1,147,133.19c-1.53-.33-2.89-.47-3.6-2a4.34,4.34,0,0,1,2.78-1.46c3.88-.91,7.27,1.36,11,1.69,8,2.45,16.09,1.1,24.14,1,6.18-1.43,11.64-3.85,14.22-10.26a9,9,0,0,1,1-1.86c1.32-3.42,4.42-6.91-.73-10-.94-.55,0-1.45.7-1.82,1.41-.74,3.15-1.05,3.53-3,.23-1.48.17-3,1.2-4.29a1.61,1.61,0,0,1,1.52-.17C205.93,104.06,203.79,107,202.56,110Z"/><path class="cls-33" d="M43.51,9.23c2.9-1.85,4.84-5.4,9-5.07A46.86,46.86,0,0,1,64,3.09c4.07,0,4.67,1.08,3.67,5.64-1.48,1.49-1.8,2.85.49,3.91a2.06,2.06,0,0,1,.57,2.48A6.37,6.37,0,0,1,67,16.85c-3.57,2.73-7.1,3.82-10.55-.19A3.33,3.33,0,0,1,55,15.21a6.58,6.58,0,0,1-.31-1.45c-.14-1-.18-2.08-1.54-2.15a1.28,1.28,0,0,0-1.15.81c-.46,1,.19,1.54.88,2a3.71,3.71,0,0,1,1.45,2,5.8,5.8,0,0,1,0,2.31,10.24,10.24,0,0,1-.4,1.44c-.76,2.16-1.9,4-4.41,4.24-1.76.19-2.73-1-3.41-2.43-1.06-2.19-.86-4.19.59-5.27a4.74,4.74,0,0,1-2,.59c-2.23.18-4.62.15-5.53-2.3s.93-4,3-5C42.65,9.73,43.08,9.49,43.51,9.23Z"/><path class="cls-34" d="M76.63,1.55C84.21,6,91.5,10.63,94.7,19.53c1.68,4.69,1.11,6.56-3.08,7.62a2.68,2.68,0,0,1-1.88-.87C86.16,19.54,83.31,12.36,78.29,7c1.76,2.89,5.18,5.34,5.17,9.67C82,20,78.89,22,76.51,24.61c-2.17-.41-2.62-2.11-3-3.91a9.36,9.36,0,0,0-1.69-5.57c-1.4-2.4-2-5-1.09-7.59,1.15-3.11-.66-3.49-3-4.18C66,2.82,63.27,4.49,62.53,1.29,67.23,1.27,71.94.84,76.63,1.55Z"/><path class="cls-35" d="M43.51,9.23c-.67,2.18-4.55,3-3.34,5.56,1.28,2.73,4.61.7,7.39,1.85.5.49-.77.92-.87,1.57-.33,2.15.17,4.49,2.08,5.12,2.22.73,3.49-1.2,4-3.4a8.94,8.94,0,0,1,.82-1.82c2.84.46,2.89,2.48,2.64,4.68-2.28,2.87-5.7,4.37-8.29,6.88A4.42,4.42,0,0,1,45,29.11a5,5,0,0,1-2.12-2,12.63,12.63,0,0,1-.81-3.42c.17-3.61-3.33-3.24-5.14-4.72a6.63,6.63,0,0,1-.5-4.36C37.31,12,38.72,10,41.55,9.23Z"/><path class="cls-36" d="M62.53,1.29c2.36,1.51,5.06.81,7.59,1.18,1.57.23,3.95.53,2.68,2.83-2.51,4.55-.94,8.25,1.74,11.8,1,1.27.31,2.11-.05,3.15-3.26.24-3.82-3-5.74-4.47-.1-.21-.19-.43-.28-.64a2,2,0,0,0-1-2c-1-1.16-1.79-2.37-1-4C68.4,5.36,67.64,3.8,63,4.34c-3.46.41-7-.09-10.53-.18C55.53,2.17,59,1.67,62.53,1.29Z"/><path class="cls-37" d="M41.55,9.23l-4.1,4.91c-1.72,2.43.13,5.71-1.92,8.06-1.34.31-2.67.61-3.89-.37a2.11,2.11,0,0,1-.51-1.24c1.18-2.9,2.43-5.78,3.79-8.62a13.32,13.32,0,0,1,5.4-4.1,1.33,1.33,0,0,1,1.21.46A5.41,5.41,0,0,0,41.55,9.23Z"/><path class="cls-38" d="M177.64,24.17c-.82,5.35,1.47,10.7,0,16l-.29-.1a9.42,9.42,0,0,0-4.63,4.64c-.49,1.15-1.7,2.94-3,.31,1.34-7.05,2.82-14.07,2.57-21.31a2.91,2.91,0,0,1,1.34-2.51l2-.15c1.54-.15,2.25.52,2,2.08Z"/><path class="cls-39" d="M160.49,10.17c.67,4.67,5.08,5.6,8,8,1.2,1.51.28,2.82-.39,4.16a6,6,0,0,1-1.55,1.56c-3.61,1-5.42,4.42-8.38,6.3-1.46.92-2.87,2-3.58-.66.64.21-.57-.06-.08-.47.34-.29-.1-.66-.23-.34-.7,1.8-1.43,3.51-3.62,3.92-3,.09-5.93-2.43-9.14-.09-1,.72-2.31-.71-3.32-1.5-1.23-1-2-.16-2.76.71s-1.66,2-3.18,1.65c-2.35-2.74-6.87-3.76-6.75-8.47a1.51,1.51,0,0,1,2,.26c1.86,1.91,3.33,5.07,5.53-.15a5.89,5.89,0,0,1,7.51-2.89,1.69,1.69,0,0,1,1.32-.32c1.73.94,3.23,2.72,5.21,0s4.75.17,7,.06a1.87,1.87,0,0,0-.35-2.44c-2.46-3.09-1.38-5,2.15-5.31C158.6,13.85,159.16,11.71,160.49,10.17Z"/><path class="cls-40" d="M125.48,25.23c1.65,3.27,5.72,4.39,7,8,1.16.87,2.24,1.8,2.29,3.42-1.22,2.43-4.31,1.45-5.88,3.25-3.19,3.2-6.8,1-10.26.78-2.06-1.46,0-3.79-1.14-5.44-1.4-3.57.38-5.95,3-8-.18-4.14,2.08-5.87,5.94-6C128,22.94,126.94,24.13,125.48,25.23Z"/><path class="cls-41" d="M144.5,4.16c2.38.33,4.95-.75,7.26.93-.3,1.67-2.68,2.18-2.21,4.13.35,2.34-.23,4-3,4-1.39-.06-2.62.07-3.34,1.55s-1.55,3.15-3.73,1.79c-3-1.86-3.23-4.73-3-7.85.14-2,.91-2.21,2.86-2.23C141.08,6.42,142.78,5,144.5,4.16Z"/><path class="cls-42" d="M146.56,13.19c1.76-.74,2.05-2.6,3-4l4.85-3.05c1.1,1.06.63,2.17-.1,3.07a157.59,157.59,0,0,1-10.93,12.6,1.83,1.83,0,0,1-1.83.4c-.33,0-.66-.06-1-.08Z"/><path class="cls-43" d="M125.48,25.23c.59-1.3,1.28-2.58,1-4.09a7.78,7.78,0,0,1,3-3c1.13-.49,1.56.26,1.95,1.09-1.18,2.08-3.23,3.59-3.9,6Z"/><path class="cls-44" d="M131.41,19.2l-1.95-1.09a5.15,5.15,0,0,1,3.22-2.74C133.91,17.34,131.66,17.92,131.41,19.2Z"/><path class="cls-45" d="M47.53,29.16c2-2.89,4.48-5.13,8-6,4.21,1.38,4.62,6,7.33,8.49-1-1.69-2.33-3.47-1.43-5.83,2.43-2.83,6.47-2.13,9.25-4.19,2.4-1.55,2.79.55,3.41,2a33.74,33.74,0,0,0,4.4,7.59c-.49-2.68-2.94-4.38-2-7,0-4.27,5.5-4.33,6.11-8.11,4.18.74,4.25,4.51,5.22,7.45.34,1,.18,2.21,1.16,3a2.87,2.87,0,0,1-1.1,3c-1.76,2.49-.13,8.72,2.81,10.61a11.58,11.58,0,0,1,1.68,1c1.4,1.9,1.91,3.83.24,5.84.2,2.72-4.86,6.05,1,8.11-.2,2.92-3.18,3.74-4.4,5.88a1.88,1.88,0,0,1-1.29.42c-4.4-3-4.95-8.72-8.82-12.06-.62-1.39-.94-2.94-2.18-4-2.09-3.54-4.29-7-6.12-10.7,1.41,2.56,2.14,5.51,4.2,7.69a2.67,2.67,0,0,1,.47,3.17c-.57,1.18-.63,2.73-1.78,3.5-3.41,2.27-2,3.39,1,3.61,2.37.18,3.8.57,3.58,3.38S79.76,58.39,81.5,58c3.2-.34,3.07,1.78,2.92,3.93-3.14,5.84-3.4,6-7.82,1.77-1.82-1.75-4-1.33-6-1.89-2.8-1.39-4.33-4-6.22-6.34-4.74-5.77-9.15-11.8-13.58-17.82C49,35.21,46.81,32.68,47.53,29.16Z"/><path class="cls-46" d="M128.48,39.16c1-3.06,4.54-1,6-3.06-.31-1.71.83-2.33,2.12-2.84a5,5,0,0,1,5,1.27c.26,3.25.28,6.55,1.52,9.66-1.07,3.3-5.75,3.9-5.88,7.89,1.33,3.25.21,5.24-3,6.62-3,1.29-6.24,2.07-8.77,4.2-1.14,1-3.51,1.58-1.87,3.91a3,3,0,0,0,1.94-1.44,11.49,11.49,0,0,1,.8-1c1.3-1.22,2-3,3.64-3.88,2.45-.32,4.87-.81,7.29-1.22a2.88,2.88,0,0,1,3.12,1c.72,1.19-.21,2.22-.95,3.07A68.88,68.88,0,0,1,127,74.43c-4.21.64-6.82,3.65-9.55,6.47a4.55,4.55,0,0,1-1.13.87,4.06,4.06,0,0,1-3.44-.09c-1-.78-.51-1.69-.21-2.57.59-1.69-.77-1.28-1.57-1.48a2,2,0,0,1-1.1-.73c-.34-.54-.56-1.42-1.15-1.5-5.25-.76-3.29-3-1.1-5.23l.81-2c5,.71,3.21-4.06,4.91-6,2.9.46,3.73-2.14,5.29-3.63,2.62-5,6.14-9.5,9-14.37.75-1.38,2.1-2.63,1-4.43C128.62,39.53,128.55,39.34,128.48,39.16Z"/><path class="cls-47" d="M92.56,47.05c-.14-2,.23-4.12-1.18-5.87-2-3.78-4.4-7.44-4-12,.5-.93,1.28-1.76,1-2.95a1.55,1.55,0,0,1,2.18-.08l1,1q2.19,8,4.35,16a7.06,7.06,0,0,1,.48,2.38c-.21,2,1.17,5.16-1.16,5.79C92.52,52,94.43,48,92.56,47.05Z"/><path class="cls-48" d="M97.5,56.16c.85-.16,1.12-2,2.31-.95a2.33,2.33,0,0,1,.27,3.18c-1.19,1.4-1.85,2.6-.79,4.36,2,3.38,1.8,5.86-2.8,6.37.42.87-.13,1.22-.81,1.48a2.48,2.48,0,0,1-1.28-.29c-1.1-.92-1.79-2.4-3.45-2.61A2.89,2.89,0,0,1,89.84,67c-1-1.77-2.66-3.37-1.44-5.7l.16-.17C92.39,61,95.48,59.56,97.5,56.16Z"/><path class="cls-49" d="M112.65,81l3.72-.07c1-.2,1.45.35,1.77,1.15A3.34,3.34,0,0,1,116,85.89c-2.7.22-4.89,1.76-7.26,2.84a2.6,2.6,0,0,1-1.38-.37,2.68,2.68,0,0,1-.61-2c.72-2.11,2.23-4.42-1.41-5.4a5.14,5.14,0,0,1-1.64-1.21,8.25,8.25,0,0,1-2.16-4.29c0-1.13,0-2.26,0-3.39l.77-1c1.23-.72,2.75-.28,2.68.81-.27,4.25,3.48,3.79,5.58,5.23a3.38,3.38,0,0,0,.84,0C113.2,78,111.46,80,112.65,81Z"/><path class="cls-50" d="M97.5,56.16c-2.16,6.65-2.49,6.83-9,4.93.21-3.18,3.26-4,5-5.93C95.06,54.61,96.9,52.9,97.5,56.16Z"/><path class="cls-51" d="M110.58,77.1c-3.2.13-6.76.86-6.23-4.41.12-1.17-1.06-1.44-2-1.63,1-3.84,2-4,5.38-.89.13,1.59-2.07,2.78-.84,4.55,1.79.2,1.11-2.75,3.12-2.36C111.06,73.82,110.16,75.55,110.58,77.1Z"/><path class="cls-52" d="M102.42,75.12c0,1.73,1.42,2.74,2,4.16-1.26,1.29-3,1-4.53,1.41a3.57,3.57,0,0,1-1.34-.14,27.19,27.19,0,0,1-3.3-2.22A2.51,2.51,0,0,1,95,77a2.18,2.18,0,0,1,1.86-1.71c.86-.22,1.72.33,2.59,0l1.12-.32A1.36,1.36,0,0,1,102.42,75.12Z"/><path class="cls-53" d="M99.42,75.32l-2,.84c-1.55-1.68-2.89-3.43-1.88-5.91.31-.38.62-.75.92-1.13C101.94,69.08,97.24,73.82,99.42,75.32Z"/><path class="cls-54" d="M102.42,75.12,100.54,75c.09-1-.13-2.21,1-2.89C103,72.77,102.29,74.07,102.42,75.12Z"/><path class="cls-55" d="M118.49,40.16c3.21-1.56,6.9,1.72,10-1l0,0c.77,1.85-.54,3.1-1.28,4.52-3.17,4.48-6.59,8.8-9.1,13.72-1.37,1.46-1.83,4-4.6,3.81l.61-3.29c-2.57.35-4.94.7-7.31,1s-3-1.38-1.64-2.51a8.51,8.51,0,0,0,3.6-7c0-1.43,1.72-1.15,2.82-1.29C114.08,45.62,114.9,41.69,118.49,40.16Z"/><path class="cls-56" d="M118.49,40.16c-1.43,3.4-4.14,5.7-6.88,8,1-2.61,2-5.23,3-7.84l3-5.09C121.45,36.13,117.32,38.67,118.49,40.16Z"/><path class="cls-57" d="M113.53,61.23l3.94-4.07c1.66-.31,2.39.31,2,2-1,1.25-1.94,2.51-2.94,3.75-1.59,2-2.58,1.42-3.14-.78C113.47,61.84,113.51,61.54,113.53,61.23Z"/><path class="cls-58" d="M167.44,22.08c.36-1.3.71-2.6,1.07-3.91l1.83-2c.78,1.89,3.33,2.63,3.29,5.06.22,8.48-.2,16.87-3.3,24.91a3,3,0,0,1-1.17.87,7.09,7.09,0,0,1-1.44.3c-7.95.85-13.77-3.47-19.46-8.09-.23-2.18,1.23-3.11,2.88-3.9,2.09-.22,3.81-1.81,6-1.65,2.51,2.69,4.25-.49,6.37-.83,1.41.25,2.34,1.84,4.1,1.42.15-1.88-1.88-3-1.8-4.8C165.76,26.88,168.08,24.81,167.44,22.08Z"/><path class="cls-33" d="M141.54,22.24c4.29-5.36,9.78-9.74,12.86-16.07,1.91,1.51,4.48,2,6.09,4-.1,2.59-.1,2.59-7.37,6.33.08,1.2,1.26,1.44,1.87,2.17,1.09,1.31,2.16,3,1.15,4.52-1.35,2-3.12.38-4.31-.47-4.86-3.45-4.67,2-7.06,3.78Z"/><path class="cls-59" d="M130.5,128.14c2.61,2.86,5.32,5.67,5,10-1.41.3-2.81.71-4.24.87-3.94.46-7.86.7-10.76-2.85-1.39-1.4-3.54-2.33-3-4.9a1.71,1.71,0,0,0-.29-.93c-.6-.69-.14-1.85-1.08-2.37-.15.75.15,1.62-.62,2.2-1.73-.12-4.18.48-3.91-2.38.37-3.91-2.16-2.62-4.06-2.62-.82-1.75-.3-3.33.59-4.87,2.27-1.17,3.11,1.44,4.8,1.8a1.76,1.76,0,0,0,2.17-.56c2.21-2.8,3.81-2.22,4.62,1,.66,2.68,3.45,2.88,5,4.51C126.24,129.49,128.8,126.52,130.5,128.14Z"/><path class="cls-60" d="M93.51,138.15c-2.12,1.11-2.83,2.43-2.29,5.13a18.36,18.36,0,0,1-.79,10.87c-2.76-.59-2.65-3.05-3-5-.65-3.23-.34-6.52-.31-9.79-.12-3.05.6-6.05.54-9.08.41-1.74,2-2.77,3.24-2.26,5.07,2.17,6.84-1.5,9-4.61a1.68,1.68,0,0,1,.81-.52c3.14,1.55,2.3,4.95,3.45,7.43.24,2.46,2.56,4.34,2,7-3.7,2.57-4.3,2.32-6.09-2.56-.54,3.56-.53,3.46-4.31,3C95.41,137.75,94.46,138.82,93.51,138.15Z"/><path class="cls-61" d="M93.51,138.15c2.64,0,1.13-2.05,1.48-3.22,2.32.3.72,3.06,2.47,3.7,2.49-1.32.79-4.51,2.41-6.14,2.87.62-.32,8,5.63,4.63,2.56.89,2.69,2.77,2,5-.16,1.3,0,2.74-.55,3.88-.69,1.51-.11,4.62-1.18,4.38a26.5,26.5,0,0,0-7-.41,1.21,1.21,0,0,1-.75-.51C100.06,144.24,94.39,142.15,93.51,138.15Z"/><path class="cls-62" d="M112.46,182.06l-1.95-1c-7.54-13.79-10.28-22-9.58-30.58C107.66,160.85,108.27,172.15,112.46,182.06Z"/><path class="cls-63" d="M88.4,139.17c.37,5-.71,10.27,2,15-.4,4.83,2.77,9.19,1.89,14.34-3.42-.91-3-4.44-4.75-6.37,0-3.48-1.33-6.67-2.17-10q.09-6.48.19-13A1.89,1.89,0,0,1,88.4,139.17Z"/><path class="cls-64" d="M126.5,172.25c-2.82-2-3.32-5.39-4.94-8.1,2.22-3.55-1.6-5.49-2.25-8.29-.32-1.36-1.42-2.62,1.2-1.82,2.86,3.63,4.2,8,6.1,12.12C128.09,168.22,130.31,170.29,126.5,172.25Z"/><path class="cls-65" d="M103.49,131.15l-3-8.05c-.85-1-1-2.2.14-3,1.44-1,2.41.15,3.34,1.1a7,7,0,0,1,1.23,2.11,4.48,4.48,0,0,1-.66,3.85l.85,3C105,130.81,104.59,131.67,103.49,131.15Z"/><path class="cls-66" d="M103.49,131.15l1.92-1c.93,3.14,1.44,6.42,3.19,9.29.78,1.29,1.18,2.55-1.07,2.68-.49-1.73-.68-3.59-2-5C107,134.39,102,133.88,103.49,131.15Z"/><path class="cls-67" d="M104.56,127.17c0-1.34,0-2.68-.08-4a6.23,6.23,0,0,1,2.65-3.86c.84-.47,1.55-.39,1.38.88a8.23,8.23,0,0,1-1,5Z"/><path class="cls-68" d="M115.49,130.15c.57-1.82-2.65-2.71-1.15-4.66.22-.28,1.23-.15,1.78.05,2.49.9,1.45,3.2,1.83,4.93,0,.21-.3.52-.47.78C116.82,130.88,116.16,130.51,115.49,130.15Z"/><path class="cls-69" d="M81.51,127.15c-.49.72-.64,2.17-2,.93a3.06,3.06,0,0,1-.94-2c.07-2.51,1.14-4.73,2-7s2.25-4.64,3-7.12a3.67,3.67,0,0,1,1.82-2.07c2.27,1.08,4.45,2.77,7.13,1.07,1,1.84,2.21,3.45,4.73,2.86,1.46.9,1.4,2.71,2.35,3.91a1.8,1.8,0,0,1,0,1.33,2.79,2.79,0,0,1-2.48,1c-1.74-.43-3.52-1.11-4.92.76-.19.27-.54.63-.77.58C86.25,120.13,84.71,125.06,81.51,127.15Z"/><path class="cls-70" d="M81.51,127.15c.51-2.25,3.41-3.3,3-6a1.12,1.12,0,0,1,.28-.9c2.16-1.66,5.19,3.08,6.89-.71,1.9-4.26,3.86-.7,5.8-.36,1.69,2.53-.14,3.47-2,4.4-2.22,1.1-4.74,1.21-7,2.09a10.43,10.43,0,0,1-2,1.51Z"/><path class="cls-62" d="M86.45,127.16a2.33,2.33,0,0,1,1.07-2.07c2.64.77,1.91,2.4,1.06,4.08l-.18,10H85.59C85.55,135.15,87.17,131.24,86.45,127.16Z"/><path class="cls-71" d="M79.36,126.22c0,.62.08,1.24.13,1.86-1.4.65-.72,2-1.13,3.06-2.12-1-3-3.82-5.69-4a1.75,1.75,0,0,1-.63-1.94,3.09,3.09,0,0,1,1.41-1.57C76.27,122.54,77.49,125.12,79.36,126.22Z"/><path class="cls-72" d="M126.5,172.25c2.37-2-.14-4.06.11-6.09a20.44,20.44,0,0,1,4.33-.23c2.53.41,3.63,2,1.53,4-1.28,1.22-1.71,2.7-2.57,4a2.51,2.51,0,0,1-3.48.84C125.15,174.08,126.23,173.1,126.5,172.25Z"/><path class="cls-23" d="M132.52,159.1c-.3-1.09-.66-2.17-.87-3.28a1.21,1.21,0,0,1,1-1.46c.73-.21,1.52.09,1.63.69.61,3.32,3.88,6.33,1.3,10.06C133.59,163.58,133.76,161,132.52,159.1Z"/><path class="cls-73" d="M132.52,159.1c2.26,1.38,2.92,3.55,3,6C131.1,164.83,130.54,162.6,132.52,159.1Z"/><path class="cls-74" d="M130.5,128.14c-2-.52-4,4.1-6,0a5.73,5.73,0,0,1,.54-3.31c.07-1,2.67-2.12-.15-2.84-1.73-.45-3.07-1.19-3.66-3a1.51,1.51,0,0,1,.4-1.23c1.37-.89,3-.12,4.46-.85a4.32,4.32,0,0,1,2-.42c4.23,1.07,7.66,3.2,9.47,7.36a8.72,8.72,0,0,0,4.64,4.29c1.41,1,4,.26,4.36,2.92l-3.08,0a5.9,5.9,0,0,1-3.81-1c-1.93-.74-5.1.72-5.1-3.41C134.53,125.33,132.27,125.81,130.5,128.14Z"/><path class="cls-75" d="M55.32,126.11l-1.86.15-1-.28L54,121.56c-5.29,2.81-9.44-3.06-14.5-1.45-1.16-.69,2.15-1.33,0-2,.66-1.6,1.9-4.6-.12-4.41-2.89.27-4.85-5-7.84-1.05-.1.13-.24.23-.35.35-1.28,1.32-2.91,3.09-4.59,1.8-1.94-1.49.7-3.06.93-4.68.79-3.16,3.52-2.86,5.81-3.08,2.09-.2,4.24.22,6.25-.71a6.82,6.82,0,0,1,8.32,3.12c1.67,1.22,3.08-.25,4.58-.51,1.94-.32,3.84-.91,5.47.79,2.21,3.36-1.43,3.73-2.7,5.32-2,2-5.13-.23-7,1.92,1.76,1.41,3.83.69,5.74.93s3.94-.22,4.81,1.79-1.11,3.21-2.2,4.58Z"/><path class="cls-76" d="M56.57,124.25c1.82-5,1.82-5-3.92-5.16a62.8,62.8,0,0,1-6.66-.84.5.5,0,0,1-.06-.43,6.24,6.24,0,0,1,.68-.68c5.12-1,10-3.06,15.1-4.07,3.38-.66,6,.36,6,4.52-.58,4.4-4.33,4.62-7.47,5.65a11.25,11.25,0,0,0-1.82.87Z"/><path class="cls-77" d="M65.62,128.24c-.71,1.16-1.44,2.27-3.1,1.74,1.73-4.7,1.27-5.35-4.13-5.87.35-.35.7-.7,1-1.06,3.38-.83,6.56-1.3,6.93,3.62A5.5,5.5,0,0,1,65.62,128.24Z"/><path class="cls-78" d="M23.57,110.11c-2.71.66-5.42.1-8.13,0-1-1.35-3.71.82-4.12-1.89,1.45-1.22,3.07-2,1.68-4.68-1.54-2.92-.27-6.06.83-9A2.9,2.9,0,0,1,15,93.45c4-.72,8-2,12.16-1.39,4.52,2.65,4.62,3.11,1.56,7.48-3.84,2.1-8.1-.06-12,1-.62.34.32,1.21,0,.61-.11-.24,0-.33.09-.43,1.89-1.34,3.81-.12,5.72-.08,1.31.07,2.63,0,3.94.13,4.66.33,5.17,1.09,4,5.86C28.65,108.91,25.57,108.43,23.57,110.11Z"/><path class="cls-79" d="M23.57,110.11c.95-3,3.68-2.56,5.94-3,4.45-3.24,7.14-3.23,10.05,0-1.42,2.11-3.41,1.13-5.27,1a9.81,9.81,0,0,0-6.77,1.93Z"/><path class="cls-80" d="M15.53,121.1c0-.64,0-1.28,0-1.91,2.46,1.42,5.16.84,7.78.91a46,46,0,0,1,7.12.46C25.49,120.86,20.57,123,15.53,121.1Z"/><path class="cls-81" d="M11.45,108.18c.86,1.63,3.15.28,4,1.93l-2.9.14a3.88,3.88,0,0,1-5,0l-1-.15-.06-1,0,.09C7.77,107,9.41,106.58,11.45,108.18Z"/><path class="cls-82" d="M7.5,110.25c1.68,0,3.36,0,5,0-.21,1.63-.9,2.88-2.76,2.74C8.2,112.86,7.66,111.66,7.5,110.25Z"/><path class="cls-83" d="M39.49,118.09l2.21.47-2.23,1.55c-1.85-.58-3.58,1.84-5.8.09C35.34,118.4,38,119.71,39.49,118.09Z"/><path class="cls-84" d="M14.56,94.2c0,.32,0,.63-.05,1-3.16,2.54-7.37,2-10.84,3.71a3.13,3.13,0,0,1-3-.67c.11-3.35,2.27-6,3-9.15.66-1,.75-2.32,1.42-3.36s1.38-2.12,2-3.21A67.3,67.3,0,0,1,17,71.05a34.42,34.42,0,0,1,7.07-3.87,77.26,77.26,0,0,1,12.14-2.36c1.24,0,2.49,0,3.73.1,2.22.07,4.29,1.39,7.21.83-2.59.31-3.31-1.17-4.14-2.49a2.38,2.38,0,0,1,.24-2.06c2.58-.92,3.73,1.71,5.72,2.29,3.35,2.15,6.95,3.86,10.36,5.89,1.87,1.11,4.46,1.84,4.31,4.85-1.88,1.26-3.53.13-5-.72A30.76,30.76,0,0,0,44,69.87c-8-.64-16.08-1.26-23.13,3.94C14.18,78.2,10.55,85,6.24,92.06c2.38.23,4.34-.36,6.15.37A3.71,3.71,0,0,1,14.56,94.2Z"/><path class="cls-85" d="M.7,98.19H3.38c1.41,2.67.76,5.34,0,8l-2.73,0Z"/><path class="cls-86" d="M3.4,106.21c-1.6-2.67-.58-5.34,0-8,3.21-2.82,7.33-2.37,11.13-3-.06,3.51-2.14,6.73,1.14,10.57,1.9,2.23-2.38,2.07-4.2,2.46a7.92,7.92,0,0,0-5,1Z"/><path class="cls-87" d="M182.52,133.2c-7.89,2.05-15.89.58-23.84.7-.72,0-1.45-1.18-2.18-1.81a8.66,8.66,0,0,1,.57-7c1.44-1.24,3.05-1,4.7-.51,4.61,1.43,9.36,2.2,12.27,2.83-4.63-.31-10.62-3.6-17.29-2.87-2.62-.45-3-1.55-1.31-3.68,1.26-1.61,3.35-2,4.76-3.41-1.43-1.93-3-1.35-4.46-.54-4.21,2.4-8,3-11.3-1.55-1.18-1.63-5.15-.64-4.16-4.38,1-1,2.65-1.77,3.59-1.1,4.48,3.19,9.21,1.18,13.85,1.06a9.27,9.27,0,0,1,1.57.22c5,1.3,10.42-.26,15.31,2,2.71,1.53,5.23,1.7,7.81-.49,3.43-2.92,7.59-2.21,11.46-1.45,3.09.6,4.32,5.13,2.43,7.77a10.44,10.44,0,0,1-3.51,2.74c-4.74,1.61-9.58.21-13.61.35,2.79,0,6.28.81,9.84.71,1.31.16,2.87.16,3.37,1.55s-.88,2.31-1.88,3.12A81.56,81.56,0,0,1,182.52,133.2Z"/><path class="cls-88" d="M192.47,121.08a5.49,5.49,0,0,1,2.56-2.27c2.12-1.25.58-2.93.46-4.45a2.17,2.17,0,0,0-2.7-2.18c-3.69.38-7.61-1.32-10.74,2.86-1.79,2.39-5.22,1.38-7.58-.8,1-1.87-.39-1.74-1.53-1.84-3.26-.29-6.55-.41-9.69-1.46-.76-1-1.79-.36-2.72-.39-1.55-.7-3.12-1.21-4.82-.46a8.5,8.5,0,0,1-4.22-.09,4.3,4.3,0,0,1-1.79-1.3c-3.73-5.26-3.44-5.85,3.45-7.14a5,5,0,0,1,1.44.06,5.77,5.77,0,0,1,2.2,1.06c1.42,1.15,1.9,2,4-.2s6.46-1.59,9.92-1.55a8.38,8.38,0,0,1,2.76.51c.58.34-.08-.2.44.21,1.63,1.25,4.77,1.83,4.39,4-.43,2.55-3.74.84-5.44,1.93,3.22-.74,6.37.34,9.57.68a11.94,11.94,0,0,0,5.85.83c-3.94,0-5.73-1.31-3.62-5.28,2.71-3.82,7-4.46,11.08-5.66,1.65-.48,2.36.42,3.09,1.62,1.2,2,1.46,4.33,2.59,6.32.09,3.58-3,2.63-5,3.38,5.08,1.46,5.24,3.29,1.17,11.59C195.85,120.19,194.15,123,192.47,121.08Z"/><path class="cls-89" d="M140.5,111.14c1.17,3.23,5.27,2.2,7.21,5.56,1.81,3.14,5.65-.3,8.55-1.74,2-1,5.05-.62,5.9,1.66.93,2.52-1.38,3.26-3.63,3.18.16,1.8-4.85,1.29-1.92,4.31.89-.26,1.09.15.92.94-.16,2.37.39,4.85-1,7-3.49,1.38-6.45-2.69-10-1-1.21-1.86-3.84-.07-5-2a7.88,7.88,0,0,0-1.72-1.74c-2-1.69-1.67-3.89-.76-5.9s2.9-1.87,4.75-1.37c1.12.3,2.26.55,3.59,1-1.41-.93-2.91-1.07-4.16-1.78-2.68-1.54-5.74-2.44-8-4.69a5.36,5.36,0,0,1-.73-1.3c-.79-2.49.78-3.68,2.72-4.28C138.78,108.58,140.47,108.71,140.5,111.14Z"/><path class="cls-90" d="M201.4,106.14a4.67,4.67,0,0,0-.82-.51c-2.75-1-.39-7-6-5.67a21,21,0,0,0-9.1,4.19,3,3,0,0,1-1.48-.67,5.9,5.9,0,0,1-1-1.32c-2.49-5.4-1.2-7.83,4.5-8.27a44.81,44.81,0,0,1,7.94.06c3.08,1.5,7.35,2,6.06,7.2Z"/><path class="cls-91" d="M182.52,133.2c2-3.15,4.92-5.24,8-7.12.58-.35,1.82-.7.8-1.7-.37-.36-1.26-.2-1.91-.27-.68-1.38-.26-2.38,1.26-2.35,1.92,0,3.93-.83,5.76.4C194.77,129.57,188.7,131.45,182.52,133.2Z"/><path class="cls-92" d="M196.47,122.16c-2.33.68-5.52-1.71-7,2-5.56.4-10.83-1.65-16.42-1l.06-2.06h19.38c1.68.35,3.38-2.1,5.06,0Z"/><path class="cls-93" d="M201.49,101.15c.28-4.24-3.71-4.27-6-6-2-1-4.6,0-6.35-1.84a2.23,2.23,0,0,1,0-2.17c3.55-1.4,6.19.56,8.77,2.06a11,11,0,0,1-1.17-4.85,2.12,2.12,0,0,1,.7-1.29c4.7,3.65,3.58,9.28,4.83,14.11C202.07,101.15,201.78,101.15,201.49,101.15Z"/><path class="cls-94" d="M169.48,46.29a1.65,1.65,0,0,1,.85-.14,4.7,4.7,0,0,0,2.15-3.61c.57-3,2.39-3.32,4.86-2.43l.06,3a5.74,5.74,0,0,0-1.62,4.31c-.44,3.22-.69,6.63-5.42,5.93A7.85,7.85,0,0,1,169.48,46.29Z"/><path class="cls-95" d="M177.69,44.2c-.45,1-.91,1.95-1.37,2.92-1.08.53-1.32-.44-1.79-1a2.7,2.7,0,0,1,2.87-3C177.5,43.5,177.59,43.85,177.69,44.2Z"/><path class="cls-86" d="M71.51,22.13c-2.47,3.42-6.87,2.05-9.93,4-4-2.13-5.52-5.55-5-10C57.3,17.39,60,13,59.67,17.27c-.14,1.77.81,1.8,2.2,1,2.15-1.16,4.4-2.12,6.6-3.17l.09.08C70.71,17,71,19.64,71.51,22.13Z"/><path class="cls-96" d="M56.62,16.16c1.18,3.56,2.52,7,5,10,1.22,2.78,2.43,5.55,3.65,8.32-4.74-2.65-6.51-7.54-9.7-11.28a6.25,6.25,0,0,0-2-5.06c0-.63,0-1.26,0-1.89.42-.8.83-1.61,2-1.16Z"/><path class="cls-97" d="M55.54,15.06l-2,1.16c-.56-1.81-5.8-.14-3.22-4.17.79-1.24,1.81-3.13,3.82-2.36C57,10.75,56.06,13,55.54,15.06Z"/><path class="cls-98" d="M66.51,9.19a6.45,6.45,0,0,1,1,4c-1.45-.09-2.61-.61-2.82-2.21C64.5,9.63,65.44,9.3,66.51,9.19Z"/><path class="cls-99" d="M90.58,26.13l-2.18.08c-.92.34-2.06.82-1.8-.91.62-4-1.73-6.58-4-9.22C81.4,11.23,77.77,8,75.12,4.13,83.32,9.27,87,17.7,90.58,26.13Z"/><path class="cls-100" d="M71.51,22.13c-2-1.85-2.37-4.43-3-6.91,3.39,0,3.18,4.26,5.93,5a5.78,5.78,0,0,0,2,3.94c1.22,2.13,2.51,4.22,3.65,6.38.55,1,.85,2.4-.36,3s-1.65-.58-2.2-1.4c-2.16-3.22-4.26-6.47-5.21-10.31,0-.07-.31-.13-.45-.09S71.63,22,71.51,22.13Z"/><path class="cls-101" d="M47.53,29.16c5.72,12,15.16,21.4,22.9,32,.85,2,3.69,3.27,1.9,6.05-4.49-1.09-6.16-5.27-8.66-8.36a125,125,0,0,1-8.81-12.1c-2.13-3.09-4-6.4-7.26-8.53-2-3.06-4.72-6-2-10Z"/><path class="cls-23" d="M34.45,22.16c2.2-2.23,0-6.08,3-8l.09,5c1.61,1.6.84,3.62.58,5.79,1.92-1.2,3-3.59,5.36-1.74l0,4c.58,4.18,2.33,8.49-1.3,12.23-2.6-2.21-6-3.78-6.13-7.95,0-1.29-1.47-1.64-2.22-2.47C32.2,26.55,32.08,24.24,34.45,22.16Z"/><path class="cls-92" d="M41.41,39.09c1-.34,2.15-1.12,1.75-2-1.66-3.45.68-6.64.35-10l2.05,1c-.65,3.81,1.34,6.82,3,9.91a11.36,11.36,0,0,0-3.81,5.12c-1.22.86-2.28.45-3.28-.41a4.14,4.14,0,0,1-1.28-3.34A.86.86,0,0,1,41.41,39.09Z"/><path class="cls-102" d="M43.48,23.19a3,3,0,0,0-3.5,2c-.56,1.52-1.63,1.39-2.79.94-2.24-.88,0-1.74,0-2.61.1-1.48.21-2.95.32-4.43C41.44,17.67,42.85,19.86,43.48,23.19Z"/><path class="cls-103" d="M40.37,39.18l1.22,2.9-.15.7c-2.64,3.88-5.44,1.1-8.2.22a5.62,5.62,0,0,1-2.37-2.68,8.64,8.64,0,0,1-.47-1.38c-.27-1.68-.89-3.29-1.07-5-.12-1.24-.13-2.49-.14-3.74a18.12,18.12,0,0,1,.33-3.81A3.83,3.83,0,0,1,31.36,24c.1-.88.21-1.75.31-2.63l2.78.8a8.72,8.72,0,0,0,0,7A31.57,31.57,0,0,0,40.37,39.18Z"/><path class="cls-104" d="M151.48,36.16a6.58,6.58,0,0,0-3,3c-1.2,5.74-5.76,9.08-9.4,13.05a2.34,2.34,0,0,1-3.55-.18c.65-4.12,4.39-5.44,7-7.77.89-3.56,3.1-6.4,5.08-9.37.83-1,1.38-2.36,2.84-2.71,1.71-.71,2.13-2.38,2.78-3.84.52-1.17-.19-3.65,2.11-2.92s-.43,2.43.07,3.69C154.07,31.43,154.3,34.66,151.48,36.16Z"/><path class="cls-105" d="M151.48,36.16c1.43-2.29,1.2-5.51,4-7,2.26,1.06,4.28-1.07,4.6-1.95,1.19-3.24,4-3.16,6.34-4C165,28.08,163,32.5,157.55,34.2,155.45,34.63,154,37,151.48,36.16Z"/><path class="cls-106" d="M157.55,34.2c4.16-2.72,5.77-7.48,8.84-11.07l1.05-1c3.52,2.87-.73,4.69-1,7.05-1.09,1.26-1.6,3-3,4C159.74,38,159.52,38,157.55,34.2Z"/><path class="cls-107" d="M150.49,32.18l-2,3c-2.34-1.22-4.67-.9-7,.06a8.33,8.33,0,0,0-5-1c-1.08-2.31.21-3.34,2.16-4,1.16.4,2.38,2.56,3.25,1.42C145.27,27,147.64,32.11,150.49,32.18Z"/><path class="cls-62" d="M138.6,30.14c-.67,1.36-2.21,2.25-2.16,4l-2,2a2.8,2.8,0,0,1-2-2.92c1.9-.68,2.05-2.87,3.47-4S138.28,28.28,138.6,30.14Z"/><path class="cls-108" d="M72.54,67.2c.38-2.39-3.31-3.37-2.11-6.05,2.21.27,5-2,6.55,1.05,2.44,4.8,4.48,3.32,6.59-.16,3.19.56,3.78,4.72,7.06,5.15l.76,0A1.78,1.78,0,0,1,92,69.05a5.34,5.34,0,0,1-2.2,2.56c-1.15.59-2.28,1.21-3.38,1.88a5.11,5.11,0,0,1-4.33-.44c-1.23-2.33-3.8.82-5.1-1.23-.89-1.86-2.64-2.82-4.18-4Z"/><path class="cls-109" d="M77.53,45.16c2.56.29,1.82,2.29,2,3.83-.28,3.57,3.44,6.34,2.06,10.14-5.13,1.66-5.6,1.15-4.5-5-1.28,0-2.57-.1-3.83,0-2.63.26-2.86-1.84-3.38-3.47-.68-2.17.52-2.41,2.42-2.3,2.13.11.55-2.75,2.2-3.24A13.53,13.53,0,0,0,77.53,45.16Z"/><path class="cls-110" d="M81.57,59.13c0-3.52-5.08-6-2.06-10.14,3,1.79,4.41,4.87,5.89,7.83.81,1.61,1.2,3.5,3,4.44.74,2,1.49,3.95,2.23,5.93C85.7,69,86,63.61,83.57,62,82.83,61.12,85,58.18,81.57,59.13Z"/><path class="cls-111" d="M87.37,29.16c1.49,4,4,7.58,4,12-2.65.09-4.89.07-4.16-3.87.24-1.29-1-3.14-2-4.31C82.19,29.47,84.9,29.45,87.37,29.16Z"/><path class="cls-112" d="M77.53,45.16c-1,3.15-2,1.55-3,0-1.53-3-3-6.08-4.65-9-.84-1.47-2.32-3.39-.56-4.27,2-1,2.36,1.74,3.07,3C74.19,38.27,75.81,41.73,77.53,45.16Z"/><path class="cls-113" d="M135.54,52c5.63-.16,6.21-6.06,9.74-8.65,1.36-1,2.15-2.79,3.21-4.22,3.27,0,5.84,2.44,7.95,4,3.93,3,7.87,3,12.14,3,1.25,2.35-.53,4.06-1.23,6a34.31,34.31,0,0,1-3.86,5.69c-1.43,1.75-2,4.14-3.89,5.54a2,2,0,0,1-1.35,0c-2.48-2.72-.33-5.65-.38-8.48,0-1.85.88-3.5,1-5.61-2.36-.37-4,1.57-6,1.83-3.48,1.14-5.45,3.34-5.06,7.2-1.37,2.83-5.4,3.24-6.08,6.7-2.86,3-5.54,6.15-9,8.42-1.92,1.25-3.92,2.71-6.27.74,3.89-5,9.93-7.91,13.52-13.72-3.79-.78-7.06,2-10.55.73-.89,1.41-2.1,2.58-3,4l0,0a8.62,8.62,0,0,1-3,3c-1,1.18-1.54.65-2.18-.36-.88-1.37-.42-2.33.53-3.5,3.16-3.89,8-5,12.2-6.78C137.82,55.85,137,54.36,135.54,52Z"/><path class="cls-114" d="M126.49,74.16c3.9.44,6.33-2.09,8.88-4.37,2.07-1.85,4.09-3.74,6.13-5.61,2.35,3.19,5.12,4.3,8.83,2.06a3.86,3.86,0,0,1,4.2-.23c.57,1.47-.45,2.25-1.33,3.1-5.3,3.44-10.18,7.65-16.54,9.18-3.85,1-8.14-.32-11.76,2.28-.9.64-2.22-.21-3.32-.47-1.7-.22-3.38,1.47-5.08.05,2.15-2,4.35-3.9,6.43-5.94C124.18,73,125.3,73.55,126.49,74.16Z"/><path class="cls-107" d="M141.47,35.19c2.31-3.1,4.63-4.15,7-.06-1.93,3.06-3.16,6.59-5.91,9.13C140.91,41.39,139.18,38.53,141.47,35.19Z"/><path class="cls-115" d="M119.5,59.18a3.36,3.36,0,0,0-2-2c1.67-5.53,5.68-9.57,9-14.08,1.11-.43,1.7.14,2.1,1.09C126.54,49.78,122.16,54,119.5,59.18Z"/><path class="cls-62" d="M128.53,44.17l-2.1-1.09c.69-1.3,1.38-2.6,2.08-3.9C131.5,40,131.51,41,128.53,44.17Z"/><path class="cls-116" d="M112.65,81c-1-.41-1-.41-1.23-4,1-1.4,2.37-1.49,3.19-.26C116,79,112.82,79.38,112.65,81Z"/><path class="cls-117" d="M116.5,80.15l4.87-2c1.48,1.66.11,2.55-1,3.53a3.07,3.07,0,0,1-2.74.45L116.37,81C116.41,80.7,116.45,80.42,116.5,80.15Z"/><path class="cls-118" d="M126.49,65.17c.07-2,1.39-3.1,3-4C129.45,63.23,128.06,64.27,126.49,65.17Z"/><path class="cls-118" d="M123.51,68.12a6.45,6.45,0,0,1,3-3C126.4,67,125.46,68.1,123.51,68.12Z"/><path class="cls-119" d="M95.57,70.25c.63,2,1.25,3.94,1.88,5.91a2,2,0,0,0-2,.83c-.89.54-1.28-.1-1.68-.71a8.61,8.61,0,0,1-.33-4.3A4.61,4.61,0,0,1,94,70.63l.55-.47Z"/><path class="cls-120" d="M91.37,69.1c0-.64,0-1.29,0-1.93,3.19-1.25,2.08,2,3.15,3L94.31,70H94A2,2,0,0,1,91.37,69.1Z"/><path class="cls-121" d="M105.54,80.33c4.62,1,4.92,2,1.84,6-1,.83-.75,2.52-2,3.2a20.54,20.54,0,0,1-5.91-.12C99,89,99,88.06,98.38,88.12c-.35,0,0,.81,0,1.26,1.9,3.24-1.45,6.27-.36,9.48a15.6,15.6,0,0,1-.47,2.8,3.81,3.81,0,0,1-1.07,1.9,6.64,6.64,0,0,1-4.35.69,5.85,5.85,0,0,1-1.42-.38,5.17,5.17,0,0,1-2.54-2.55,2.86,2.86,0,0,1,.88-2.6,3.32,3.32,0,0,1,2.47-1c.59,0,1.52.32,1.67-.33.44-2-1.41-2.59-2.51-3.63a8.69,8.69,0,0,0-4.82-3c-1.24-1-.92-2.46-1.31-3.73a5,5,0,0,1,.17-2.1,2.68,2.68,0,0,1,.85-1.12,2.09,2.09,0,0,1,2,.26c3,4.58,3,4.58,7.63-1.35,1.43-1.35,3.41-1.34,5.08-2.1S104,83.06,105.54,80.33Z"/><path class="cls-122" d="M117.68,82.18l1.9-.86c.89.29,1.82,0,2.72.2,2.5.75,5.26-1.58,7.64.64,2.7,7,1.91,8.36-5.23,8.86a5.11,5.11,0,0,1-4.24-1c-1.2-1.89-3.22-2.26-5.17-2.76a1.41,1.41,0,0,1,.19-1.87A3.52,3.52,0,0,0,117.68,82.18Z"/><path class="cls-123" d="M99.46,89.1c2-1,3.92-1.41,5.86.08.86-.05,1.38-.83,2.18-1l1,0a5.58,5.58,0,0,1,.86.89,2.24,2.24,0,0,1,.14,2.4,14.05,14.05,0,0,1-2,1.71,38.74,38.74,0,0,0-10.14,5.86c-3-3.32,1.71-6.54.13-9.84A1.28,1.28,0,0,1,99.46,89.1Z"/><path class="cls-124" d="M105.54,80.33c-.39,1.24.85,3.1-1.1,3.7-2.28.71-.64-2.31-2.13-2.49l-1.83-.19c-.93.13-1.27-.3-1.14-1.19,1.43-1.88,3.41-.59,5.11-.88Z"/><path class="cls-125" d="M108.63,89.13a2.85,2.85,0,0,1-.09-.92c1.71-2.42,3.87-3.77,6.95-2.87,0,.62,0,1.24,0,1.85C113.79,90,111.26,89.75,108.63,89.13Z"/><path class="cls-126" d="M107.5,88.16c-.14,1.61-.57,2.58-2.18,1,.29-1.25-.21-3.06,2.06-2.9Z"/><path class="cls-127" d="M99.34,80.16l1.14,1.19-5.15,1.93c-1.67,1.09-2.94.6-3.92-1-.34-1.62.66-2.36,1.92-2.94a7.72,7.72,0,0,1,3-.13,3.48,3.48,0,0,1,2,.85C98.71,80.1,99,80.14,99.34,80.16Z"/><path class="cls-128" d="M96.54,80.1H93.43a3,3,0,0,1-.74-3A2.88,2.88,0,0,1,93.31,76a.76.76,0,0,1,1.07.23l1.1.75c0,.43.08.87.13,1.31C96.22,78.74,97.06,79.07,96.54,80.1Z"/><path class="cls-129" d="M96.54,80.1l-.93-1.8c1.29,0,3-.71,2.79,1.76Z"/><path class="cls-130" d="M166.39,52.08l2.19-5.89a2.1,2.1,0,0,1,.9.1c1.55,2.12.93,4.54,1,6.87-.32,3.38-.09,7-4.16,8.57-1.25,1-2,2.59-3.77,2.85a3.91,3.91,0,0,1-3.1-1.43c.25-2.35,2.19-3.81,3.06-5.83C165.67,57,165.48,54.12,166.39,52.08Z"/><path class="cls-131" d="M163.43,33.11c0-2.11.45-3.86,3-4a20.92,20.92,0,0,1,1.33,2.63c.45,1.29,3.82,1.62,1.53,3.67-1.83,1.64-3.68.54-5.11-1.1A10,10,0,0,1,163.43,33.11Z"/><path class="cls-69" d="M108.51,120.17c-2.93-1.15-1.26,3.93-4,3-.33-.34-.65-.68-1-1a4.86,4.86,0,0,0-3.9-3.89l-.19-.19c-.9-1.33-.2-2.31.72-3.23,2-.84,3.77-1.8,4.25-4.25a3,3,0,0,1,2.83-2.34c2.15-.38,3.49,1.75,5.5,1.75.78-.29,1.35-1,2.14-1.21a5.38,5.38,0,0,1,3.2,1c2.8,2.21,4.5,4.61,1.18,7.76-2.81,1.19-4.15,4.15-6.73,5.62C110.34,123.27,110.27,120.59,108.51,120.17Z"/><path class="cls-102" d="M112.5,123.16a9.55,9.55,0,0,1,6-6c1.06-.49,1.74.06,2.34.84.45,3.11,4.83,3.67,4.67,7.17,0,1.1.16,2.28-1,3-5.77-3.69-5.77-3.69-6.77-7.55C115.83,121.17,116,126.15,112.5,123.16Z"/><path class="cls-107" d="M99.6,118.25c4.39-1.81,3.34,1.85,3.9,3.89-.91-.28-1-1.93-2.18-1.55s-.69,1.61-.81,2.51a6.66,6.66,0,0,1-2.36,4.78c-1.76,1.35-3.2,5.92-6.27,1.09-.29-.45-2.16.11-3.3.2-.26-1.39.4-3-1.06-4.08,1.89-2.36,5-1.17,7.3-2.46,1.57-.87,3-1.38,2.69-3.47Z"/><path class="cls-132" d="M85.54,110.26l-1.06,1.9a5.18,5.18,0,0,1-3.28,1.3c-2.61.07-3.85,2.38-5.78,3.57-1.24.76-2.39,1.68-3.68,2.31-1.87.91-3.48.77-4-1.72a3,3,0,0,1,1.94-2.83c3.15-.71,5.2-2.78,6.72-5.47.67-1.68-.39-2.18-1.64-3-2.8-1.75-2.37-3.28.69-4.24a5.47,5.47,0,0,1,2.75.33c2.63.63,1.43,5,4.86,4.88a5.11,5.11,0,0,1,1.33.29A3,3,0,0,1,85.86,109,1.22,1.22,0,0,1,85.54,110.26Z"/><path class="cls-133" d="M79.36,126.22c-1,.28-2.19,1.45-2.75-.34s-1.63-1.77-3-1.68a10.55,10.55,0,0,1,4.55-8.38c1.28,1,4.67-.11,3.35,3.42Q80.44,122.72,79.36,126.22Z"/><path class="cls-134" d="M97.42,114.19l-4.25,2c-1.15-1.74-.45-3.41-.7-5a4.07,4.07,0,0,1-.61-4.7,2.48,2.48,0,0,1,2-1.2,3.23,3.23,0,0,1,1.47.3c1.24.87,1.47,2.42,2.35,3.53s2.88,1.8,2.18,3.89A2.53,2.53,0,0,1,97.42,114.19Z"/><path class="cls-135" d="M92.52,106.24c0,1.67,0,3.34,0,5-1.75,0,0,3.51-2.84,2.71a5.59,5.59,0,0,1-4.09-3.7c0-.33,0-.67-.05-1,0-3,2.82-1.91,4.21-2.91C90.63,106.06,91.55,105.61,92.52,106.24Z"/><path class="cls-71" d="M81.53,119.24c.61-2.64-3.37-.81-3.06-3.15-.69-2.08.81-3,2.14-4l3.87,0C85.3,115.27,82.14,116.72,81.53,119.24Z"/><path class="cls-136" d="M97.42,114.19a1.74,1.74,0,0,1,2.08-.86c.91.34,1.66.76,1,1.92l-1.12,2.81C96.2,118.08,98.05,115.5,97.42,114.19Z"/><path class="cls-137" d="M80.61,112.13l-2.14,4q-2.43,4.05-4.84,8.11l-1.15,1c-2.72,0-4.11,3.08-6.86,3.07v-1.07c.49-6.17,6.37-7.54,9.85-11.06C76.85,114.36,78,112.27,80.61,112.13Z"/><path class="cls-34" d="M120.52,118.18l-2-1c3.15-2.84.68-4.85-1-7,1.45-5,2.12-5.59,6.2-3.77,2.87,1.28,3-.22,3.42-2.18.47-2.17-1.19-4.21-.29-6.38a4.11,4.11,0,0,1,3.75-2.29,85.28,85.28,0,0,1,10.76,1.66,21.67,21.67,0,0,0,7.19,1c2.6-.17,4.9.61,5,3.91-.23.23-.47.64-.71.64-4.86,0-5.16,2-2.29,5.36-2.53,2.1-5.26,1.08-8,.5-1.9-.41-3.71-1.21-5.76-.69-3.57.89-3.88,2-1.3,5.19,0,.34,0,.67,0,1,.33.9-.22,1.32-.91,1.68a4.8,4.8,0,0,1-4.06-.66c-.66-.3-1-1.05-1.8-1.21a2.57,2.57,0,0,1,.35.87,2.29,2.29,0,0,1-1.57,2.3l-1,1c-1.67.69-3.33-2.43-5,0h0C121.19,118.63,120.86,118.62,120.52,118.18Z"/><path class="cls-138" d="M130.45,114.13a7,7,0,0,0,4.08,1c3.27.1,5.57,3,8.89,3,2.34,1.74,7.09.46,7.11,4.23,0,1.08-5.16-.67-7.88-1.38-2.26-.58-2.81.28-3.2,2.3-.48,2.47,1.66,3.79,2,5.82-2.41-1.12-4.38-2.42-5.33-5.3-1.3-4-5.34-5-8.65-6.71l1-2.93A1.26,1.26,0,0,1,130.45,114.13Z"/><path class="cls-139" d="M120.52,118.18l1,0a5.66,5.66,0,0,0,3.11,2.91c1.24.48,3.07-2,3.64.49.42,1.81-1.35,2.76-2.75,3.62C124.05,122.68,121,121.35,120.52,118.18Z"/><path class="cls-139" d="M121.49,118.15c-.56-1.3-.48-2.08,1.29-2,1.61.08,2.39,1.5,3.71,2C124.82,119.92,123.16,117.42,121.49,118.15Z"/><path class="cls-140" d="M70.5,115.25a3.23,3.23,0,0,0-2,1.84c-.73.62-.09,2.42-1.86,2.15-.28-5.48-.81-5.85-6.11-4.61-4.58,1.07-9,3.18-13.87,2.51.62-2.79,2.82-2.72,4.87-2.44,1.16.16,2.19.67,3.05-.52,5.15-1.37,9.06-5.75,14.83-5.82,2,0,1.75-2.41,1.76-4-.07-1.48-.74-3,.27-4.41a3,3,0,0,1,3.07-.21c1.1.89,2.24,1.77.88,3.31-.73.21-1.76.14-1.64,1.31a1.42,1.42,0,0,0,1.64,1.37c5.78-.87,2.9,2.24,2.06,4.42A10.91,10.91,0,0,0,70.5,115.25Z"/><path class="cls-141" d="M39.56,107.15c-3.34-2.2-6.7-.6-10,0,1.13-3.77.22-5.76-4.18-5a22.62,22.62,0,0,1-3.86,0,1.64,1.64,0,0,1,1.84-1.81c4.6.08,9.12-1.14,13.73-.73.57.32,0-.32.44.16,3.51,3.9,7.35,5.74,12.34,2.49A1.4,1.4,0,0,1,52,103.38c.23,2.3,2.39,2.54,3.64,3.74-1.77,3.32-5.67,2.3-8.22,4C45.82,107.84,43.23,106.43,39.56,107.15Z"/><path class="cls-142" d="M72.51,104.15c.61,4.43-.88,6.61-5.77,6-3.36-.42-5.25,3.73-8.83,3.39a12.13,12.13,0,0,0-3.38.64c.34-1.82,4.35-.92,3-4-1-1.31-.36-2.18,1-2.32a15.59,15.59,0,0,0,4.41-1.53C66.34,106.74,68.73,102.36,72.51,104.15Z"/><path class="cls-143" d="M62.49,107.15c-.37,3.13-4.36.29-5,3-2.78-1.31-5.25-.23-7.6,1.13-1,.56-1.69.87-2.46-.14,2.1-2.55,5.8-1.88,8.11-4,1.55-1.54,3.47-1.77,5.51-1.6A2,2,0,0,1,62.49,107.15Z"/><path class="cls-144" d="M66.59,119.24l1.86-2.15c.35,1.86,1.27,2.72,2.88,1.2a7.2,7.2,0,0,1,4.14-2.18c-2.29,4.57-8.15,6-9.85,11.06-.11-4.29-3.38-3.86-6.19-4.12C61.29,120.78,64.82,121.67,66.59,119.24Z"/><path class="cls-145" d="M61.51,106.16c-2,.27-3.85,1.37-5.95,1-2.61-.15-6.44,1-4.26-4.27-2.09.84-3.82,1.63-5.62,2.23-3.12,1-5.9,1.23-6.57-3.12-.06-.37-1.06-.59-1.63-.88-.76-1.41-1.88-1.49-3.36-1.24-1.9.32-3.95.84-5.63-.77.39-2.12,3-4.63-1-6,.36-3.65,3.24-3.2,5.6-3.31,7.6-.37,15.23.5,22.82-.52,4.67-.92,6.34,1.73,6.86,5.75-1.9,2-4.56,1.57-6.91,2.13-2,.23-3.93,1.44-6,.45C48.46,94.5,51,94.26,53,93.22c-2.45.23-4.72.13-7,.32-.48,1.82,2.19,3.18.52,5a4.41,4.41,0,0,1-2.77.65c4.06,0,8-1,11.88-1.88a9,9,0,0,1,6.61,1.29C63.66,101.25,64,103.85,61.51,106.16Z"/><path class="cls-146" d="M56.49,90.17c-3.86,2.08-8,.68-12,.93s-8.22.08-12.34,0c-1.86,0-3.67,0-4.65,2L14.56,94.2a2.21,2.21,0,0,1-2.12-1.12c.54-2.62,3-2.28,4.71-3,8.07-1.06,16.13-2.31,24.3-2.36,4.09,0,8.19-.36,12.26.4A4.2,4.2,0,0,1,56.49,90.17Z"/><path class="cls-68" d="M28.49,99.11c2.93,1,6.72-1.91,9,2-5.35.09-10.76-.79-16,1-2-1.26-4.25-1.13-6.59-1.21C19.11,98,24,99.7,28.49,99.11Z"/><path class="cls-147" d="M56.49,90.17a2.25,2.25,0,0,1-2-1,41,41,0,0,1,3-3.35c2.81-1.63,5.78,2.59,8.54-.26.5-1,2.16-1.19,1.75-2.74-2.11-3.19-5.94-2-8.73-3.44a4.77,4.77,0,0,1-2.77-2c-.28-3.55-1.84-4.13-4.6-2a7.23,7.23,0,0,1-2.48,1.46c-2.8.25-5.34-.87-8-1.56-1.44-.59-3.09-.85-4-2.4.51-5.06,3.87-4.45,7.32-3.68,4.67-1,8.84.51,12.94,2.56,1.89,1,3.9,1.67,5.85,2.5,4.15-.18,6.22,3.69,9.64,4.94a6.76,6.76,0,0,1,1.51,2.52c.76,2.93,1.85,5.84.82,8.93a8.66,8.66,0,0,1-1.75,2.28c-1.61,2.93-7.38,6-10.32,5.61a4.19,4.19,0,0,1-.68-3.38C60.24,93.81,60.85,89,56.49,90.17Z"/><path class="cls-148" d="M16.53,91.19c-.91,1.61-3.16.31-4.09,1.89-2.49-.47-6,1.76-7.28-.55-1.12-2,2.09-4.07,3.24-6.19A38.12,38.12,0,0,1,19.51,73.16c2.13.58,3.76-.77,5.49-1.54,2.41-1.07,4.44-1,6.1,1.19,1.85,2.4.87,4.24-1.26,5.8-1.55,1.16-3.71.07-5.17,1.39,2,.69,3.1,2,2.62,4.11S26,88,23.71,88.3C21,88.61,18.88,90.13,16.53,91.19Z"/><path class="cls-149" d="M72.41,79.27c-2,1.34-2.69-.73-3.87-1.55-1.72-1.2-3.48-2.34-5.23-3.5-4.09-4.55-10.45-5.58-14.88-9.61-1.16-1.91-3.73-2.8-4-5.38-.15-1.49-.23-3.07,1.11-4,1.57-1.14,2.81,0,3.8,1.09a15.76,15.76,0,0,0,3.07,2.41,15.43,15.43,0,0,1,2.38,1.71c1.2,1.11,2.32,2.29,3.52,3.4,3.18,4.52,8.92,5.73,12.54,9.69,1.07.92,2.39,1.58,3.09,2.89A2.22,2.22,0,0,1,72.41,79.27Z"/><path class="cls-18" d="M29.47,78.08c1-1.57,2.8-2.82.56-5-2-2-3.41-1-5.13.16s-3.61,1.59-5.39,0c7.6-5.94,16.14-6,25-4-3.27-.4-5.94.27-7,3.87-2.51,1.91-.46,2,.94,2.32a14.47,14.47,0,0,1,3.84,1.39,16,16,0,0,1,.16,4.42C37.85,81.33,33.64,79.8,29.47,78.08Z"/><path class="cls-95" d="M52.66,60.12a8.45,8.45,0,0,1-3.74-2.26c-.75-.93-1.16-3-2.75-2-1.3.82-.9,2.83-.44,4.13a26.61,26.61,0,0,0,2.7,4.57c-2.27-.08-3.08-2.45-5-3.16A2.15,2.15,0,0,1,41.56,60c-1-3.74-3.1-7.76,2.41-9.93a7.43,7.43,0,0,1,3.25.09c1.9.57,2.89,2.13,3.94,3.64C52,55.85,53.89,57.61,52.66,60.12Z"/><path class="cls-150" d="M135.48,113.15c-2.21-.32-3.89-1.43-3.76-3.78.11-2.18,2.34-1.79,3.76-2.45,3.15-1.48,5.75.27,8.59.86a41.4,41.4,0,0,0,6.42.37l1.08,1c1.8,1.4,5.36-.86,6,2.91-3.68-.94-7.28,3.63-10.76.51-2.07-1.86-4-1.71-6.32-1.46C137.43,108.32,136,109.71,135.48,113.15Z"/><path class="cls-151" d="M157.53,125.05c-.31-.31-.62-.62-.92-.94,2.69-2.23,5.39-.39,8,.1,5.19,1,10.56,1.37,15.34,4C172,130.12,165.06,125.68,157.53,125.05Z"/><path class="cls-152" d="M162.55,110.08c4.12-.12,8,1.61,12.23,1.12,1.19-.14,3.08-.28,2.94,1.58s-2,1.21-3.25,1.46c-5.12-2.15-10.87.16-16-2.21C158.86,109.32,161.48,111.3,162.55,110.08Z"/><path class="cls-146" d="M162.55,110.08c-.85,1.67-3.09.49-4.05,2l-.46.07h-.46c-1.44-2.14-4.35-1.23-6-2.91h4.91a6.75,6.75,0,0,1,4,.83C161.16,110.16,161.89,108.88,162.55,110.08Z"/><path class="cls-150" d="M170.54,102.12c-2.12.18-4.31.49-6.34.48-3.18,0-4,1.26-3.42,4.82l-6.3-5.25c.6-1.34,1.56-2.51,1.74-4,.43-3.69,2.8-4.91,6.19-4.81a3.64,3.64,0,0,1,1.28.59c.91,1,.72,2.55,1.47,3.62,1.5,2.14,1.5.22,1.81-.76,1.38-3.37,2.23-7.16,6.61-8.07,2,.18,3.07,1.52,3.8,3.22.46,1,.39,2.24,1.56,2.94,2.82,1.69,3,4,1.48,6.72a7,7,0,0,1-6.23.24C172.87,101.29,171.68,101,170.54,102.12Z"/><path class="cls-20" d="M163.49,94.15c-3.59.19-6.63.89-6.06,5.66.26,2.08-1.33,2.36-3,2.36l-1,0c-1.77-2-3.41-3.6-6.68-2.5a5.43,5.43,0,0,1-5.33-1.59c.43-2.66,2.65-1.79,4.24-2.12,1.74-.36,3.57.75,5.24-.34-.19-3-.17-5.77,4.16-3.83,1.17.53,2.25,0,3.33-.42C161.19,90.39,163.15,90.83,163.49,94.15Z"/><path class="cls-141" d="M184.46,103.16l1,1c-1.16,2.21-1.64,4.08,1.94,4,1.12,0,2.28-.1,3.08.94a13.27,13.27,0,0,1-8,.05l-14.68-1.24c3.73-2.62,7-.53,9.72-2.32-.87-1.49-3.44-1.41-4.09-3.37A26.29,26.29,0,0,1,184.46,103.16Z"/><path class="cls-153" d="M184.46,103.16c-3.82,1.44-7.33-.7-11-.94l-2.91-.1c.05-1.46.86-2.27,2.2-1.71,2.54,1,5.16.57,7.74.77a3.59,3.59,0,0,1,4,2Z"/><path class="cls-154" d="M182.5,109.15l8-.05C187.85,110.87,185.18,110.56,182.5,109.15Z"/><path class="cls-150" d="M160.47,110c-1.39,0-2.91.63-4-.83C158.28,107.2,159.4,108.49,160.47,110Z"/><path class="cls-155" d="M143.42,118.18c-3.7,1.15-5.92-2.06-8.89-3l1-1Z"/><path class="cls-141" d="M184.47,103.17l-4-2c-.65-2.06.6-5-3.2-5.59-1.27-.19-.67-2.33-.72-3.61,1.69-.62,3.4,0,5.09-.14a16.86,16.86,0,0,1,8,1.39c2,.63,4.2.47,5.93,1.88-1.83,0-3.66,0-5.5,0C182,95.17,181.52,95.91,184.47,103.17Z"/><path class="cls-156" d="M190.5,86.2l7,2a10.39,10.39,0,0,1,1.22,5.68l-9.29-2.65c-1.16.78-1.93.19-2.62-.73C184.88,86.35,187.77,86.35,190.5,86.2Z"/><path class="cls-157" d="M187.43,90.26l2,1,.21,2c-2.73.66-5.4-.36-8.11-.29-1-.4-2.52-.35-2.35-2,.12-1.11,1.1-1.58,2.1-1.84a10.76,10.76,0,0,1,4-.14A4.26,4.26,0,0,1,187.43,90.26Z"/><path class="cls-86" d="M152.53,75.26l13.88-2c.92,1,2.56.85,3.4,2a4.17,4.17,0,0,1-.89,3.26c-3.35,3.29-7.61.89-11.35,1.79-1.49.36-3.23-1-4.48.67,1.31,2,1.25,3.65-.94,4.92-2.2.75-4.57.66-6.79,1.36a12.48,12.48,0,0,1-8-1.89c-2.56-1.55-3.58-3.5-.49-5.66,4.48-1.43,9-2.8,13.46-4.32A4.77,4.77,0,0,1,152.53,75.26Z"/><path class="cls-158" d="M187.43,90.26l-1.92-.13c-7.48-1-14.88-2.63-22.45-3a9.87,9.87,0,0,1-3.55-1.58c-1.2-2.29.07-3,2.06-3,1.78.05,3.63-.27,5.35.26a5.77,5.77,0,0,0,5.84-1.4,7.69,7.69,0,0,1,3.13-.64c3.64.3,7.34.27,10.56,2.38l4.05,3C189.34,87.45,186,87,187.43,90.26Z"/><path class="cls-159" d="M152.53,75.26l-1.09.74c-3.95-2.29-4-2.75-.36-4.78a39.49,39.49,0,0,0,4.08-2.64,13.13,13.13,0,0,1,5.35-2.1,3.6,3.6,0,0,1,3.11,1.72l-1.2,1.88c-.13,1.09-1.08,1.46-1.81,2C158.21,73.9,154.45,72.23,152.53,75.26Z"/><path class="cls-105" d="M168.49,78.19l1-3c.07-.62.64-.69,1-1,2.14,2.38,5.12,2.49,8,3a2.41,2.41,0,0,1,.27,3.08,3.15,3.15,0,0,1-2.38.66C173.8,79.82,170.09,82,168.49,78.19Z"/><path class="cls-160" d="M178.45,80.07c0-1,0-1.93,0-2.89,3.85-.66,6.87,1.42,10,3,.37,1.28-.33,1.94-1.38,2.4C184.13,82.1,180.89,82.48,178.45,80.07Z"/><path class="cls-161" d="M178.45,80.07l9,2.15c.28.18.39.37.33.59s-.12.34-.21.34l-1.08,0-10.88-1.14c-.55-1,.06-1.54.92-1.93Z"/><path class="cls-162" d="M187.53,83.15c0-.31-.07-.62-.11-.93.36-.68.72-1.36,1.09-2C191.8,79.71,193,82.44,196,85Z"/><path class="cls-163" d="M170.49,74.22l-1,1c-1.4,0-2.85,0-3.05-2A6,6,0,0,1,170.49,74.22Z"/><path class="cls-164" d="M176.31,49.16,173.67,55l-1.29,3.1-2.07,4.06c-1.82.55-3.52.5-4.87-1.08,1.88-1.81,4.82-3,3.27-6.65-.31-.73.93-1.12,1.75-1.25,4.37-.61,4-3.92,4.07-7l1.79,1C176.32,47.8,176.32,48.48,176.31,49.16Z"/><path class="cls-165" d="M165.44,61.06c1.68.12,3.42,0,4.87,1.08-1.22,3.14-2.66,6-6.69,6.06l-3.15-1.08c-.46-1.76.57-2.53,2-3Z"/><path class="cls-156" d="M73.49,76.31a3.33,3.33,0,0,1-3-2.07c-2.85-3.9-7-6.93-7.63-12.31-.24-2.12-2.4-1.87-4-2a2.56,2.56,0,0,1-1.65-1.1c-.94-2.21-3.37-2.87-4.78-4.6-.35-.35-.66-.74-1-1.07-1.59-1.49-4.29-2.64-2.53-5.46,1.6-2.56,4-3.16,6.76-1.58,4.62,6,9.29,11.93,13.83,18a9.25,9.25,0,0,0,3.11,3.11l-.05,0c1,2.22,3,3.11,5,4,.41.62,1.1,1,1.59.42,3.56-4.19,3.38-1,3.46,1.72a4,4,0,0,1,1.35,3.06c-.22,1.1-1,1.44-2,1.54-1.9-.11-3.35,1.13-5,1.69a2.53,2.53,0,0,1-1.31-.06C74.27,78.81,74.52,77.15,73.49,76.31Z"/><path class="cls-166" d="M55.6,46.12a21.67,21.67,0,0,0-3.43.34,3.67,3.67,0,0,0-2.91,2.43c-.57,2,1.26,1.81,2.24,2.52a11.4,11.4,0,0,1,2,2.71,2.3,2.3,0,0,1-3.13.12c-1.62-.43-1.55-2.35-2.77-3.13-1.66-2.36-3.41-4.68-3.16-7.81-.13-2.94-.15-5.78,4.14-5.18C52.81,39.15,53.43,43.31,55.6,46.12Z"/><path class="cls-167" d="M40.37,39.18c-3.5-2.43-6.61-5.1-5.91-10,1.38-.56,2.9-1.49,3,1.19.13,2.44-.91,5.5,3.45,5.55.81,0,.46,2.05.46,3.18Z"/><path class="cls-168" d="M44.46,43.3c1.22,2.54,3.73,4.55,3.16,7.81l-3.11,0c-4.17-1.85-4.64-5-3.1-8.86l.18-.21Z"/><path class="cls-169" d="M41.41,42.29c.36,3.19.44,6.48,3.1,8.86-3.06.31-3.18,2.43-2.87,4.75.19,1.46.53,2.91.81,4.36l-2.11-2c-2.71-2-2.88-5.45-4.7-8-.71-2.69-4.15-4.64-2.21-8.06C36.09,42.37,38.71,45.42,41.41,42.29Z"/><path class="cls-170" d="M91.37,69.1,94,70c.1.41.21.82.31,1.24-1.11,1.49-.52,3.25-.78,4.88l-.14.22-.93.76a5.3,5.3,0,0,0-2.31,2.65,4.2,4.2,0,0,1-2.66,1.86,2.12,2.12,0,0,1-1.29-.4,3.54,3.54,0,0,1-.68-2,5.65,5.65,0,0,1,.3-2,27.32,27.32,0,0,1,1.87-3.5A23.18,23.18,0,0,1,89.36,71Z"/><path class="cls-171" d="M77.49,71.11c-4.23,1.92-4.67-1-5-4C74.68,67.8,77.39,67.8,77.49,71.11Z"/><path class="cls-170" d="M83.4,76.25c-1.43-.67-.79-1.94-.86-3,1.27-1.44,2.62-.19,3.94-.12l.48.49a3.14,3.14,0,0,1-.24,2.64C85.61,77.48,84.5,78,83.4,76.25Z"/><path class="cls-172" d="M89.36,71c.08,1.19.39,2.44-.91,3.24-1.13.53-1.42-.53-2-1.06h0C86.12,70.65,88,71.15,89.36,71Z"/><path class="cls-173" d="M152.49,50.16a13.05,13.05,0,0,0,3.15-1.34c1.48-1.13,2.91-2.5,4.72-1,2.09,1.76-.83,2.76-.84,4-.06,3.84-2.09,7.49-1,11.4.13,2.06-1.16,2.56-2.85,2.61-3.54-1.26-3.61-5.91-7.07-7.24C148.89,55.35,150.63,52.73,152.49,50.16Z"/><path class="cls-174" d="M148.48,58.15c5.14-.44,4.23,5.21,7.11,7,.15.81-.19,1.13-1,1a56.71,56.71,0,0,0-5.5,1.92c-4.16,1.91-6.54.73-7.6-3.94.23-3.77,3.64-4.36,6-6A.62.62,0,0,1,148.48,58.15Z"/><path class="cls-175" d="M154.6,66.2l1-1a3,3,0,0,0,2.94-1.92,3.9,3.9,0,0,1,.9-.12c1.1.08,2.32-.24,3.07,1l-2,3-4.95,2.07c-1.26.62-2.52,1.25-2.94-.89Z"/><path class="cls-58" d="M148.48,58.15l-1,0c-2-3.1.24-6.65,5-8C151.75,53.12,151.76,56.47,148.48,58.15Z"/><path class="cls-176" d="M166.39,52.08c1,2.46-.78,4.28-1.76,6.09-.8,1.48-1.86.64-2.14-.85Z"/><path class="cls-177" d="M137.5,80.11c-1.89,1.63-2.44,3.09.45,4.26,2.45,1,4.9,2,7.62,1.86a1.17,1.17,0,0,1-.17,1.3c-2.66,1.35-4.4,4.34-7.82,4.34-2-.23-3.63-1.06-3.81-3.18-.21-2.5-1.81-4.16-3-6.08-1.14-2.42-3.07-1.14-4.66-.86s-2.91,1.57-4.56.41l-1.94-.84c1.12-.74,2.16-1.53,1.79-3.12,1.8,1.07,2.93,1.52,5.35-.06s6.51-.72,9.87-.93c1.33.21-3.24,2.11.49,1.7C137.44,78.87,137.64,79.59,137.5,80.11Z"/><path class="cls-178" d="M137.5,80.11c-.65-1.47-2.38-.46-3.28-1.41l2.37-1.49c6.07-1.65,10.63-6,16-8.91.75,1.08,1.91.8,3,.89-1.08,2.69-3.88,2.83-6.14,4.09.29,1.24,2.44,1.12,2.06,2.72C146.93,77.84,142.53,80,137.5,80.11Z"/><path class="cls-120" d="M93.53,76.09c-1.17-1.86-1.55-3.59.78-4.89,0,1.68,0,3.36.07,5A7.93,7.93,0,0,1,93.53,76.09Z"/><path class="cls-179" d="M97.42,99.07c1.45-5.2,6.64-5,10.24-7.13l.36.56c.36,1.37-.24,2.6-.61,3.86a8.28,8.28,0,0,1-1.19,2.33,3.27,3.27,0,0,1-1.61,1.1c-1.46.2-1.47,1.29-1.44,2.37-1,1.74,2.12,1.48,1.49,3a2.8,2.8,0,0,1-1.83.89,5.29,5.29,0,0,1-1.38-.08,3.92,3.92,0,0,1-1.2-.58,32.5,32.5,0,0,0-3.73-4.3A2.09,2.09,0,0,1,97.42,99.07Z"/><path class="cls-180" d="M85.58,90.18c2.75-.51,4.85.22,5.94,3,1,1.69,1.59,3.37-.08,5l-2,1c-.92.59-2,1.07-1.84,2.45a3.72,3.72,0,0,1-.86,2.54,1.42,1.42,0,0,1-1.81-.54c-.77-1.37-1.8-2.64-1.68-4.36a2.24,2.24,0,0,0,1.38-2.52c2.72-1.49,1.3-3.46.6-5.35A1.52,1.52,0,0,1,85.58,90.18Z"/><path class="cls-181" d="M91.42,82a5.82,5.82,0,0,0,3.91,1.24c.14,1.1-.56,1.81-1.09,2.65-1.06,1.68-1.9,3.62-4.45,3-2.74-.63-2-3-2.3-4.81l.44-.49c.9-.59,2-.84,2.88-1.42Z"/><path class="cls-182" d="M91.44,98.19c0-1.67.06-3.35.08-5,1.49.67,2.89,1.32,3.24,3.27.2,1.12.93,2.2-.29,3C92.88,100.59,92.17,99.29,91.44,98.19Z"/><path class="cls-183" d="M96.52,101.13c2.91-.3,3.6,1.68,4,3.91a2.06,2.06,0,0,1-2,1.64,2.89,2.89,0,0,1-2.43-2.17,1.45,1.45,0,0,1,.26-1.27Z"/><path class="cls-184" d="M86.37,104.15l.18-2.92a1.31,1.31,0,0,1,1.91-.24c.75.71,1.49,1.43,2.23,2.15a1.29,1.29,0,0,1-.2,1.43C89,105.45,87.47,106.93,86.37,104.15Z"/><path class="cls-185" d="M85.41,85.12c0,.68,0,1.37,0,2-.47.69-.1,1.74-1,2.27a1.68,1.68,0,0,1-1.22-.2c-.82-1-1.45-2.09-2.31-3A3.37,3.37,0,0,1,80.35,83a2.24,2.24,0,0,1,1.93-.45C83.69,83,84.47,84.14,85.41,85.12Z"/><path class="cls-186" d="M99.46,89.1l-1.91.13c-1.34-1.15-1.33-2.23.22-3.12.66-.38,1.75-1.22,2.11-.26S99.63,88,99.46,89.1Z"/><path class="cls-187" d="M86.39,79.18c.1.66.21,1.31.31,2,1,.78,1.85,1.64.88,3l-.09,0-2,.19c-2.46-.55-2-2.36-1.78-4.1C84.28,79.1,85,78.3,86.39,79.18Z"/><path class="cls-188" d="M96.43,103.24a7.28,7.28,0,0,1,.1.8c.64,1.27.67,2.22-1.15,2.19a2.4,2.4,0,0,1-.79-.19c-1.12-.82-3.64-.14-3.06-2.82Z"/><path class="cls-189" d="M91.53,103.22c.25,1.78,2.38,1.52,3.06,2.82l-2.07.2-1.88.84a2,2,0,0,1-.48-2.83l.53-1.11Z"/><path class="cls-190" d="M84.41,80.15c.42,1.38-.65,3.13,1.06,4.18a3.46,3.46,0,0,1-.06.79,2.88,2.88,0,0,1-2.94-2.07c-.49-.87-.06-1.6.36-2.33C83.25,80.23,83.71,79.85,84.41,80.15Z"/><path class="cls-191" d="M84.37,89.22c.13-.8.21-1.62,1.06-2a2.69,2.69,0,0,1,.15,3c-.06.32-.11.64-.14.95a2,2,0,0,1-1.77,1.6,2.36,2.36,0,0,1-1.21-.32,1.74,1.74,0,0,1-.32-1.17C82.46,90.09,83.56,89.82,84.37,89.22Z"/><path class="cls-192" d="M88.46,101l-1.91.24c-.17-2.26,1.36-2.13,2.87-2Z"/><path class="cls-154" d="M131.45,82.13c1.28,2.11,4.55,3.08,3.33,6.69-.44,1.28,1.66,1.67,2.71,2.34a2.52,2.52,0,0,1,.44,3c-2.37,2.5-4.92,2.6-7.64.59-1.51-1.13-3.23-1.91-4.82-2.93a2.27,2.27,0,0,1-1-1.79c.56-.25,1.23-.82,1.67-.68,3.76,1.15,4.92,0,3.62-3.74a14.62,14.62,0,0,1-.34-3.34A1.34,1.34,0,0,1,131.45,82.13Z"/><path class="cls-193" d="M108.63,89.13l6.82-1.94c2.53-1.59,4.6-1.91,5.21,1.87a2.8,2.8,0,0,1-.5,2.68c-.58.61-1.68,1.31-2,.71-1.29-2.15-1.41.38-2.1.4a6,6,0,0,1-2.24.56c-1.74-.26-4,.51-4.34-2.37Z"/><path class="cls-194" d="M131.45,82.13l-2,.1c-2.64-1.17-5.32,2.55-8-.07,2.23.11,4.14-1,6.2-1.58C129.35,80.12,131.08,79.52,131.45,82.13Z"/><path class="cls-195" d="M119.57,91.42c.37-.79.73-1.58,1.09-2.36a4,4,0,0,0,3.86.93l.92,1.15a1.74,1.74,0,0,1-1.31,1.43A6.72,6.72,0,0,1,119.57,91.42Z"/><path class="cls-196" d="M109.44,91c1.41,1.88,3.46.85,5.22,1.16,1,1.41,1.08,2.77-.25,4-1.35.47-2.15-.72-3.23-1-1.45-.68-2.89-1.38-3.56-3l0-.26Z"/><path class="cls-197" d="M92.73,76.24a4.93,4.93,0,0,1,.66.07c0,1.26,0,2.52,0,3.78l-2,2,0,.12c-1.72,1.25-3,.79-3.93-1-.05-1.38,1.75-.82,2-1.9A16.56,16.56,0,0,1,92.73,76.24Z"/><path class="cls-198" d="M127.49,98.14a52.78,52.78,0,0,1,.78,8.28c-.05,3.65-2.34,3.35-3.57,2-3.83-4.14-5.28-.69-7.22,1.73l-2.81-1a1,1,0,0,1-.34-.85c0-.32.08-.47.14-.48,2.53-2.5,5.27-4.75,7.16-7.92C122.79,97.92,124.94,96.69,127.49,98.14Z"/><path class="cls-199" d="M98.48,106.22l2.08-1.18a5.33,5.33,0,0,0,.9.19c1.21,0,0,3.13,2.27,1.79,1.37-.4,2.74-1,4.06.1a2.11,2.11,0,0,1,0,2.12,2.2,2.2,0,0,0-2.55,2.24c.72,4.41-2.41,3.5-4.76,3.77-.34-.64-.69-1.28-1-1.93.37-2.28-2.47-1.86-2.93-3.46C97.27,108.68,97.27,107.13,98.48,106.22Z"/><path class="cls-200" d="M114.37,108.17a8,8,0,0,0,.3,1c-.2.83-.2,1.78-1.24,2.13-2,0-2.86-1.16-3.2-2.94,2.68-1.32-1.1-1.9-.35-3a3.12,3.12,0,0,1,.25-1.35,3.21,3.21,0,0,1,2.91-1.49c1.28.18,2.6-.07,3.89.23a1.79,1.79,0,0,1,1.07,1.5C117.78,106.42,114.66,106,114.37,108.17Z"/><path class="cls-201" d="M110.39,108.19l3,3.06c-2.93,2.29-3.13-3-5.59-2l-.15-2C109.06,106.23,109.86,106.83,110.39,108.19Z"/><path class="cls-202" d="M70.5,115.25c.39-4.29,2.24-6.6,6.9-5.14C75.53,112.4,74.33,115.59,70.5,115.25Z"/><path class="cls-203" d="M90.16,104.25l.48,2.83c-1.17,2-4,.11-5.15,2.17l-1.13-1a4.1,4.1,0,0,1-.71-3.79c.33-.77.77-1.39,1.75-1.27l1,1C87.57,106.61,88.91,103.55,90.16,104.25Z"/><path class="cls-204" d="M83.48,108c-2,1.49-3.6,1.48-4-1.34a9.58,9.58,0,0,0-1.23-3.53A2,2,0,0,1,78.3,101a3.22,3.22,0,0,1,2.83-.65c1.41.37,1.79,1.4,1.71,2.71C82.5,104.75,83.86,106.26,83.48,108Z"/><path class="cls-205" d="M78.66,101.18l-.42,1.94-2.9-.11c.31-1.1-.4-1.87-.9-2.7.13-.18.26-.37.38-.56a3.62,3.62,0,0,1,2.63-.43,3.08,3.08,0,0,1,1.21.61A1.12,1.12,0,0,1,78.66,101.18Z"/><path class="cls-206" d="M83.48,108c-1-1.49-2.4-2.85-1.91-4.94a2.52,2.52,0,0,1,3,.94c0,1.41-.11,2.82-.16,4.23A4.56,4.56,0,0,1,83.48,108Z"/><path class="cls-207" d="M98.48,106.22c-.34,1.36,1,3.61-1.91,3.64-1.23-.94-1.28-2.26-1.19-3.63A2.33,2.33,0,0,0,96.53,104Z"/><path class="cls-208" d="M114.37,108.17c-3.14-4.33,2.79-2.37,3-4.36.92-1.17-.24-1.61-.81-2.26-1.34-1.24-1.78-2.44.17-3.51,2-.9,2.43-2.88,3.27-4.59,1.08-1.81,3-.67,4.47-1.32l1-1,5.06,2c.6,1.06.88,2.11-.16,3.09l-2.85,1.89a7.5,7.5,0,0,0-6.42,4.65A9.76,9.76,0,0,1,114.37,108.17Z"/><path class="cls-209" d="M130.34,96.25c0-1,.11-2.06.16-3.09,1.94,3,4.52,1.55,7,1,5.68-2,10.88-.27,16,2-.76,1.59-1.73,1.68-3.53,1.32-2.75-.56-5.76-1.26-8.47.52A28,28,0,0,1,130.34,96.25Z"/><path class="cls-155" d="M130.45,114.13l-1.93.08c-.65-.23-2.13-.43-1.36-1.12S129.57,113,130.45,114.13Z"/><path class="cls-210" d="M63.52,98.15c.61,0,1.84,1.09,1.63-.43-.31-2.24,1.15-3,2.44-2.44,3.64,1.64,3.84-1.12,4.73-3.17,1.64,1.1,2,2.7,1.76,4.51s-3.46,1.23-2.59,3.68l1,3.85c-3.42.75-5.94,4.48-10,3l-1-1c1.17-2.22-.35-4.83,1-7C62.28,98.23,62.6,97.89,63.52,98.15Z"/><path class="cls-211" d="M71.49,100.3c-.92-.41-3,.28-2.61-1.11.52-2,2.87-2,4.7-2.21a2.37,2.37,0,0,1,.89,2.92l0,.41Z"/><path class="cls-212" d="M46.53,98.07c.52-2.78-4.73-3-3.08-5.19,1.49-2,5-.48,7.56-.71a26.82,26.82,0,0,1,3.47,0c1.12.06,2,.57,1.74,1.82a1.32,1.32,0,0,1-2,.86c-2.52-1.18-3.62.49-4.76,2.19C48.76,98.16,47.86,98.75,46.53,98.07Z"/><path class="cls-213" d="M46.53,98.07l3-1,6-.88a1.31,1.31,0,0,1,0,2c-5.33,2.4-10.8,2.42-16.38,1.07C41.44,97.63,44.07,98.42,46.53,98.07Z"/><path class="cls-214" d="M55.52,98.16l0-2a18.93,18.93,0,0,1,7-1.07c1.18.73,1,1.92,1,3l-1,1Z"/><path class="cls-45" d="M16.53,91.19c2.38-1.27,2.89-5.67,7.24-4,1,.4,2.35-1.94,2.64-3.58s-.61-2.45-2.25-2.46a2.78,2.78,0,0,1-2.63-1c7.19-1.35,14.22-1.53,20.67,2.74.88,2.17,1,4.26-.66,6.17Z"/><path class="cls-215" d="M41.54,89.05l0-5.93a6.06,6.06,0,0,1,7.68-.5c2.59,1.62,6.33.54,8.31,3.56.25,2.27-.86,3.17-3,3Z"/><path class="cls-216" d="M57.5,86.18c-5.45-.35-10.22-4.31-16-3.06-6.34-3.12-13.3-2.12-20-3,1.75-4.15,5.38-1,7.94-2.06,4.6-.85,8.58,2.19,13.06,2.1a2.92,2.92,0,0,1,2.72-.83,114,114,0,0,1,19.18,4.79,3.36,3.36,0,0,1,2.08,2C68,88.39,66,88.24,65,88.06,62.45,87.61,60,86.83,57.5,86.18Z"/><path class="cls-217" d="M66.51,86.13a154.47,154.47,0,0,0-24-5.95c-2.46-1-1-1.94,0-2.88,4.91-1.21,9.37.93,14,1.86,3.88,1.57,8.53.84,11.89,4,.52.31,1.39.53,1.49.94.2.84-.71.85-1.3,1.07S67.22,85.8,66.51,86.13Z"/><path class="cls-218" d="M56.5,80.18,42.58,77.3c-1.38-.35-3,.32-4.13-1.07.68-1.16,2.22-1,3-2l8,1.93c2.43-.35,4.88-1,7,.87l2.94,1.14C59.59,80.54,57.75,79.92,56.5,80.18Z"/><path class="cls-219" d="M75.58,79.1a6.18,6.18,0,0,0,.86,0c2.09-.6,2,1.11,2.46,2.28-.1,1.35-.59,2.73.24,4a4.89,4.89,0,0,1,.32,1.89,6.59,6.59,0,0,1-1,3.16A4.56,4.56,0,0,1,77,91.93a2.69,2.69,0,0,1-2.61.32A.94.94,0,0,1,74.44,91c.76-3.38-1.19-6.48-1-9.8A2.48,2.48,0,0,1,75.58,79.1Z"/><path class="cls-220" d="M56.5,80.18c1-.65,2-1.31,3-2,2.47.63,4.94,1.31,7.43,1.89,1.78.41,2.63,1.2,1.59,3A58.18,58.18,0,0,1,56.5,80.18Z"/><path class="cls-221" d="M56.51,77.07c-2.35-.18-4.86.89-7-.87a18.46,18.46,0,0,1,2.71-2.8c1.18-.8,2.59-1.78,4.1-.7C58.14,74,57.33,75.56,56.51,77.07Z"/><path class="cls-222" d="M74.44,91c0,.37,0,.75.07,1.12A26.16,26.16,0,0,0,77.77,95a4,4,0,0,1,.61,1.18,6.25,6.25,0,0,1,.17,1.36A3.08,3.08,0,0,1,77.46,100l-3-.12A3.78,3.78,0,0,1,73.58,97l-1.26-4.87C72.66,91,73.61,91.16,74.44,91Z"/><path class="cls-223" d="M41.47,74.27c1,3.82-2.18,1-3,2-2.06-.15-4.3.15-5.6-2.2,1.39-1.52,3.2-.53,4.69-1A6.45,6.45,0,0,1,41.47,74.27Z"/><path class="cls-224" d="M75.58,79.1a3.72,3.72,0,0,1-2.15,2.14c-1-.31-.92-1.19-1-2l1.08-3C75.05,76.59,75.53,77.68,75.58,79.1Z"/><path class="cls-225" d="M58.53,59.16c3.18-1.33,5.24-.8,5.91,3.05s1.94,7.34,5.51,9.48c1.14.69,1,1.58.52,2.55-4.06-3.68-10-4.88-13-10C56,62.18,55.55,60.31,58.53,59.16Z"/><path class="cls-226" d="M50.39,54.24l3.13-.12c.94,1.77,4.71.74,4,4.09-1,1.07-1.67,2.43-3.09,3l-1.8-1.14Z"/><path class="cls-227" d="M54.46,61.26c.15-1.91,1-3.06,3.09-3l1,.95a4.86,4.86,0,0,0-1.07,5.1Z"/><path class="cls-227" d="M163.49,94.15c-1.26-1.67-2.76-2.77-5-2-4.63.55-7-1.58-6.38-5.7a8.76,8.76,0,0,1,4.78-.38,43.38,43.38,0,0,0,11.61,1.67c1.77,0,3.65-.09,5,1.45-3.48,1.54-3.83,5.45-6,8-2.23.19-3-1.53-4-3Z"/><path class="cls-228" d="M173.51,89.19c-5.73-.08-11.51.36-16.93-2.11,1.48-3.38,3.91-.94,5.94-1a64.66,64.66,0,0,1,23,4c-1.17,0-2.33,0-3.49.07-.81,0-2-.08-2,.91,0,.6.94,1.22,1.46,1.83a6,6,0,0,1-4.94-1A5.82,5.82,0,0,0,173.51,89.19Z"/><path class="cls-45" d="M163.49,94.15l4,3c-.3.95,1.23,2.35-.5,2.87a2.38,2.38,0,0,1-3.14-1.56A22.73,22.73,0,0,1,163.49,94.15Z"/><path class="cls-162" d="M151.48,87.23c1.56,2.74,4.29,3.82,7,4.92a3.11,3.11,0,0,1-3.42,1.3c-1.1-.24-1.71-2.83-3.13-.89-1.31,1.77.9,2.47,1.54,3.66l-16-2c0-1,0-2,0-3,3.21-.29,4.29-4.84,8.06-4C147.54,86.1,149.53,85.56,151.48,87.23Z"/><path class="cls-162" d="M172.53,82.09c-.42,2.88-1.82,3.25-4.54,2.43s-5.85-1.9-8.52.59c-2.35.6-4.7,1.84-7-.06,1.57-2.46.53-3.59-2-4C153.67,78.76,169.78,79.49,172.53,82.09Z"/><path class="cls-229" d="M172.53,82.09c-7.34-.77-14.62-3-22.1-1-1.45-1.68-.13-1.88,1.1-1.91,3.72-.11,7.45-.23,11.17-.16,2,0,4,.12,5.79-.83,2.25,2.36,5.76-.45,8,1.94-.31.65-.62,1.29-.92,1.94Z"/><path class="cls-230" d="M152.45,85.05l7,.06c1.09.12,2.3-.13,3.05,1-2,.39-4.19-.77-5.94,1l-5.1.15-5.93-.11a3.79,3.79,0,0,1,0-.89C147.65,84.57,150.15,85.4,152.45,85.05Z"/><path class="cls-170" d="M78.47,81.87l-2-2.74c2,0,2.26-4.44,5.2-2a3.62,3.62,0,0,1,.52,3.7c-.48,1.07-1.53,1.33-2.47,1.75A1.06,1.06,0,0,1,78.47,81.87Z"/><path class="cls-231" d="M81.55,81l.09-3.92c.73,0,1.57.27,1.76-.84,1,.39,2,.71,2.95-.07q.57.21.45.54t-.3.36c0,.7-.07,1.4-.11,2.11l-2,1-1,1C82.71,81.7,82.1,81.76,81.55,81Z"/><path class="cls-232" d="M87.54,81.14a5.19,5.19,0,0,0,3.93,1c-.24,2.72-2.35,1.82-3.89,2-.3-1-.59-2-.88-3Z"/><path class="cls-233" d="M92.73,76.24a3,3,0,0,1-3.2,3C89.6,77.17,90.66,76.17,92.73,76.24Z"/><path class="cls-234" d="M86.5,77.08a4.45,4.45,0,0,0-.15-.9c0-1,.08-2,.11-3l2,1.06C87.78,75.14,87.81,76.57,86.5,77.08Z"/><path class="cls-235" d="M105.58,98.16l1-1.94a4.18,4.18,0,0,1,4.42.5,4.39,4.39,0,0,1,1.8,2.77c-1.5,1-1.48,3.1-3,4a2.69,2.69,0,0,1-1.63-1A35.28,35.28,0,0,0,105.58,98.16Z"/><path class="cls-236" d="M110.39,108.19l-2.7-1-4.22,1c-1-.77-1.93-1.6-1-3l2-.3a5.12,5.12,0,0,1,2.43-.08,17.27,17.27,0,0,0,1.76-.22,1.75,1.75,0,0,1,1.62.51C109.49,106.15,114.12,107,110.39,108.19Z"/><path class="cls-237" d="M110.53,97.27c-1-1.34-2.75-.25-4-1-.56-1.57,1.14-2.57,1-4l3.76,2C112.37,95.61,112.6,96.76,110.53,97.27Z"/><path class="cls-238" d="M105.58,98.16c2.8,0,3.11,1.74,2.81,3.93a2.14,2.14,0,0,1-1.1.74A3,3,0,0,1,104,101a1.59,1.59,0,0,1,.58-1.79Z"/><path class="cls-239" d="M107.43,106c-1.35.52-2.05-.63-3-1.17-.06-1.29-3.65,0-1.9-2.63.45-.76.8-1.73,2-1.06l0,0C105.25,102.92,108.52,103.18,107.43,106Z"/><path class="cls-240" d="M104.54,101.18c-.67.35-1.34.7-2,1.06-.35-1.14-1.66-2.24-.54-3.47.84-.9,1.71.22,2.56.41C104.56,99.85,104.55,100.51,104.54,101.18Z"/><path class="cls-241" d="M102.43,105.17l1,3c-3.63,1-1.28-2-2-3A7.89,7.89,0,0,1,102.43,105.17Z"/><path class="cls-242" d="M83.41,92.25l2-1.12c2.21,1,2.65,3.11,2.52,5s-2.15.8-3.33,1.09A2.39,2.39,0,0,1,82.35,96,3.81,3.81,0,0,1,83.41,92.25Z"/><path class="cls-243" d="M84.52,104c-1.26.55-2-.49-3-.94-.44-.65,1.52-1.2.08-1.89-.85-1-.06-1.58.6-2.17a1.08,1.08,0,0,1,1.19.32c.57,1.32,2.42,2,2,3.85Z"/><path class="cls-244" d="M83.44,99.31,83,99.19l-.43,0A2.1,2.1,0,0,1,82,96.6l.47-.55c.86.12,1.72.23,2.17,1.12C85.08,98.36,85.17,99.34,83.44,99.31Z"/><path class="cls-245" d="M78.47,81.87a2.59,2.59,0,0,0,.92,0,1.75,1.75,0,0,1,1.27,1.34l.74,2.85a1.18,1.18,0,0,1-1,.39,5.26,5.26,0,0,1-1.92-1.17A2.71,2.71,0,0,1,78.47,81.87Z"/><path class="cls-246" d="M80.53,86.09a2.13,2.13,0,0,0,.87,0c2,.09,2.19,1.39,2.08,2.94-1,1.25-1.9.55-2.84-.06A3,3,0,0,1,80,87.86,1.8,1.8,0,0,1,80.53,86.09Z"/><path class="cls-247" d="M80.66,83.24,79.39,81.9,81.55,81l1.82.16-.9,1.88Z"/><path class="cls-248" d="M80.42,88.26l3.06.77a5.42,5.42,0,0,0,.89.19A2.28,2.28,0,0,1,82.57,91a2.39,2.39,0,0,1-2.4-.9A1.71,1.71,0,0,1,80.42,88.26Z"/><path class="cls-249" d="M80.4,90c.82.14,1.72.1,2.17,1,0,.32-.06.64-.07,1,0,1.51-.14,3-1.47,4-1.1.67-2.22,1.19-3.45.3L77.4,95.1A1.82,1.82,0,0,1,77,93.29a21.16,21.16,0,0,0,1.56-3.47A1.59,1.59,0,0,1,80.4,90Z"/><path class="cls-250" d="M80.58,95.29c1.58-.55.22-2.81,1.92-3.29a5.85,5.85,0,0,0,.91.25,4.44,4.44,0,0,1-1,3.8v.11a1.31,1.31,0,0,1-1.08.47C80.74,96.4,80.26,96.08,80.58,95.29Z"/><path class="cls-251" d="M109.56,103.25a4.58,4.58,0,0,1,3.13-4c-.2-1.18-.28-2.32.89-3.09,1.7-1,.5-2.72,1.08-4l1.74,0a2.82,2.82,0,0,1,1,2.69A6.55,6.55,0,0,1,116,98.28c-1.6,1.25-.61,3.86-2.59,4.91l-3,1.21C109.58,104.46,109.29,104.08,109.56,103.25Z"/><path class="cls-252" d="M116.58,95.21l-.18-3c.33-3.13,2.67,1.66,3.17-.81a6.85,6.85,0,0,1,4.92.71c-.79,1.74-3.18.43-4,2.09C119.23,94.76,118,95.5,116.58,95.21Z"/><path class="cls-253" d="M113.58,96.19c-.46,1,.58,2.4-.89,3.09a3.78,3.78,0,0,1-2.16-2c1.35-.71.78-2,.85-3C112.82,94.1,113.45,94.85,113.58,96.19Z"/><path class="cls-254" d="M113.42,103.19c.08-2,.24-3.87,2.1-5.08,1-.65,1.77-.55,1.94.83-4.15.81,1,1.4.05,2.13a1.89,1.89,0,0,1-1.1,1.87C115.44,103.34,114.55,104.79,113.42,103.19Z"/><path class="cls-255" d="M116.41,102.94a2.11,2.11,0,0,1,1.1-1.87c.86.48,1.85,1,1.75,2.1s-1.09.84-1.87.64Z"/><path class="cls-256" d="M109.56,103.25l.89,1.15a5.82,5.82,0,0,1-.2.68l-1.56,0c-1.08-.7-1.65-1.59-1.08-2.91l.78-.13Z"/><path class="cls-257" d="M81.62,96.24a2.12,2.12,0,0,1,.83-.08c0,1,.09,2,.14,3l-.94,2-3,0-.27-1c-.43-1.88,1.31-2.3,2.19-3.3Z"/><path class="cls-258" d="M81.4,97.07c-.23,1.78-2.27,1.83-3,3.14a6.14,6.14,0,0,1-.93-.19c.07-1,.13-1.94.19-2.92A3.57,3.57,0,0,1,81.4,97.07Z"/><path class="cls-259" d="M117.46,98.94l-1.94-.83c-.23-1.18.59-2,1.06-2.9,1-1.39,2-3,3.89-1C120.79,96.64,119.84,98.25,117.46,98.94Z"/><path class="cls-260" d="M77.44,93.27l0,1.83c-3.15,1.17-2.27-1.63-2.9-2.94l2.08-1A2.26,2.26,0,0,1,77.44,93.27Z"/><path class="cls-261" d="M77.44,93.27a1.91,1.91,0,0,1-.85-2.1l1-1.14c.42-.3.73-.2.95.25C79.31,91.7,79.85,93,77.44,93.27Z"/><path class="cls-262" d="M78.57,90.28c-.32-.09-.63-.18-.95-.25l.95-2.76c1.11-.78,1.36.43,2,.84l-.11.15c0,.58,0,1.16,0,1.75Z"/><path class="cls-263" d="M80.53,88.11l-2-.84-.09-2c.84-.16,1.64-.21,2,.78Z"/><path class="cls-264" d="M81.4,97.07l-3.75,0a1.46,1.46,0,0,1-.07-.85l3-1,1,.95C81.55,96.51,81.47,96.79,81.4,97.07Z"/><path class="cls-265" d="M107.61,102.22l1.08,2.91c-.23.57-.56,1-1.26.91,0-2.18-3.08-2.58-2.92-4.9Z"/></g></g></svg>