<svg data-name="Build &amp; Order" xmlns="http://www.w3.org/2000/svg" width="24" height="24" viewBox="0 0 24 24">
    <g data-name="그룹 801">
        <path data-name="패스 2018" d="M491.537 2560.22a4 4 0 0 1 3.922-3.22h7.082a4 4 0 0 1 3.922 3.22l.491 2.45 1.307 2.62a6.981 6.981 0 0 1 .739 3.13v4.58h-2v-4.58a4.993 4.993 0 0 0-.528-2.24l-1.426-2.85-.544-2.72a2 2 0 0 0-1.961-1.61h-7.082a2 2 0 0 0-1.961 1.61l-.544 2.72-1.426 2.85a4.993 4.993 0 0 0-.528 2.24v4.58h-2v-4.58a6.981 6.981 0 0 1 .739-3.13l1.307-2.62zm13.463 9.72v3.06h-2v-1.05l-8 .04v1.01h-2v-2.99z" transform="translate(-487 -2553)" style="fill:#697278;fill-rule:evenodd"/>
        <path data-name="패스 2019" d="M502 2569h-6v-2h6z" transform="translate(-487 -2553)" style="fill:#697278;fill-rule:evenodd"/>
        <path data-name="패스 2020" d="M494 2569h-2v-2h2z" transform="translate(-487 -2553)" style="fill:#697278;fill-rule:evenodd"/>
        <path data-name="패스 2021" d="M506 2569h-2v-2h2z" transform="translate(-487 -2553)" style="fill:#697278;fill-rule:evenodd"/>
        <path data-name="패스 2022" d="M499 2562.82a39 39 0 0 0 8.743-.79 1 1 0 0 1 .513 1.94 50.821 50.821 0 0 1-18.513 0 1 1 0 0 1 .513-1.94 39.012 39.012 0 0 0 8.744.79z" transform="translate(-487 -2553)" style="fill:#697278;fill-rule:evenodd"/>
    </g>
</svg>
