<svg data-name="Book a Test Drive" xmlns="http://www.w3.org/2000/svg" width="24" height="24" viewBox="0 0 24 24">
    <g data-name="그룹 803">
        <path data-name="패스 2029" d="M872.292 2572a8 8 0 1 0-10.584 0zm.709 2a10 10 0 1 0-12 0z" transform="translate(-855 -2553)" style="fill:#697278;fill-rule:evenodd"/>
        <path data-name="패스 2030" d="M876 2567h-7v-2h7z" transform="translate(-855 -2553)" style="fill:#697278;fill-rule:evenodd"/>
        <path data-name="패스 2031" d="M868 2567v6h-2v-6z" transform="translate(-855 -2553)" style="fill:#697278;fill-rule:evenodd"/>
        <path data-name="패스 2032" d="M865 2567h-7v-2h7z" transform="translate(-855 -2553)" style="fill:#697278;fill-rule:evenodd"/>
        <path data-name="패스 2033" d="M867 2565a1 1 0 1 0 1 1 1 1 0 0 0-1-1zm3 1a3 3 0 1 1-3-3 3 3 0 0 1 3 3z" transform="translate(-855 -2553)" style="fill:#697278;fill-rule:evenodd"/>
    </g>
</svg>
