<svg xmlns="http://www.w3.org/2000/svg" xmlns:xlink="http://www.w3.org/1999/xlink" width="283.465" height="162.902" viewBox="0 0 283.465 162.902">
  <defs>
    <clipPath id="clip-path">
      <rect id="사각형_905" data-name="사각형 905" width="283.465" height="80.951" transform="translate(0 0.001)" fill="none"/>
    </clipPath>
    <clipPath id="clip-path-2">
      <path id="패스_1021" data-name="패스 1021" d="M11.434,0A11.444,11.444,0,0,0,.448,8.448H148.47L151.011,0Z" fill="none"/>
    </clipPath>
    <linearGradient id="linear-gradient" x1="-0.003" y1="9.583" x2="0.004" y2="9.583" gradientUnits="objectBoundingBox">
      <stop offset="0" stop-color="#2fa999"/>
      <stop offset="1" stop-color="#005dab"/>
    </linearGradient>
    <clipPath id="clip-path-3">
      <path id="패스_1022" data-name="패스 1022" d="M0,11.944v19.5A11.467,11.467,0,0,0,11.434,42.878H23.5A11.466,11.466,0,0,0,34.937,31.445V17.216H15.564l2.54,8.447h8.384v5.655a3.184,3.184,0,0,1-3.175,3.174H11.561a3.227,3.227,0,0,1-3.177-3.174V11.944Z" fill="none"/>
    </clipPath>
    <linearGradient id="linear-gradient-2" x1="0" y1="2.231" x2="0.029" y2="2.231" xlink:href="#linear-gradient"/>
    <clipPath id="clip-path-4">
      <path id="패스_1023" data-name="패스 1023" d="M39.04,11.944v19.5A11.468,11.468,0,0,0,50.474,42.878h12.07A11.467,11.467,0,0,0,73.978,31.445V17.216H54.6l2.541,8.447h8.384v5.655a3.185,3.185,0,0,1-3.175,3.174H50.6a3.226,3.226,0,0,1-3.176-3.174V11.944Z" fill="none"/>
    </clipPath>
    <linearGradient id="linear-gradient-3" x1="-1.117" y1="2.231" x2="-1.089" y2="2.231" xlink:href="#linear-gradient"/>
    <clipPath id="clip-path-5">
      <path id="패스_1024" data-name="패스 1024" d="M78.081,11.944v19.5A11.467,11.467,0,0,0,89.515,42.878h12.07a11.467,11.467,0,0,0,11.433-11.433V17.216H93.644l2.541,8.447h8.384v5.655a3.184,3.184,0,0,1-3.175,3.174H89.642a3.226,3.226,0,0,1-3.176-3.174V11.944Z" fill="none"/>
    </clipPath>
    <linearGradient id="linear-gradient-4" x1="-2.235" y1="2.231" x2="-2.206" y2="2.231" xlink:href="#linear-gradient"/>
    <clipPath id="clip-path-6">
      <path id="패스_1025" data-name="패스 1025" d="M117.122,11.944V14.23a11.467,11.467,0,0,0,11.433,11.433h11.879a3.145,3.145,0,0,1,3.175,3.176v2.479a3.184,3.184,0,0,1-3.175,3.174H119.661l-2.539,8.386h23.5a11.467,11.467,0,0,0,11.434-11.433v-2.8a11.466,11.466,0,0,0-11.434-11.433H128.683a3.187,3.187,0,0,1-3.177-3.177V11.944Z" fill="none"/>
    </clipPath>
    <linearGradient id="linear-gradient-5" x1="-3.352" y1="2.231" x2="-3.324" y2="2.231" xlink:href="#linear-gradient"/>
    <clipPath id="clip-path-7">
      <rect id="사각형_905-2" data-name="사각형 905" width="283.465" height="80.951" transform="translate(0 0.001)" fill="#fff"/>
    </clipPath>
    <clipPath id="clip-path-8">
      <path id="패스_1021-2" data-name="패스 1021" d="M11.434,0A11.444,11.444,0,0,0,.448,8.448H148.47L151.011,0Z" fill="#fff"/>
    </clipPath>
    <clipPath id="clip-path-9">
      <path id="패스_1022-2" data-name="패스 1022" d="M0,11.944v19.5A11.467,11.467,0,0,0,11.434,42.878H23.5A11.466,11.466,0,0,0,34.937,31.445V17.216H15.564l2.54,8.447h8.384v5.655a3.184,3.184,0,0,1-3.175,3.174H11.561a3.227,3.227,0,0,1-3.177-3.174V11.944Z" fill="#fff"/>
    </clipPath>
    <clipPath id="clip-path-10">
      <path id="패스_1023-2" data-name="패스 1023" d="M39.04,11.944v19.5A11.468,11.468,0,0,0,50.474,42.878h12.07A11.467,11.467,0,0,0,73.978,31.445V17.216H54.6l2.541,8.447h8.384v5.655a3.185,3.185,0,0,1-3.175,3.174H50.6a3.226,3.226,0,0,1-3.176-3.174V11.944Z" fill="#fff"/>
    </clipPath>
    <clipPath id="clip-path-11">
      <path id="패스_1024-2" data-name="패스 1024" d="M78.081,11.944v19.5A11.467,11.467,0,0,0,89.515,42.878h12.07a11.467,11.467,0,0,0,11.433-11.433V17.216H93.644l2.541,8.447h8.384v5.655a3.184,3.184,0,0,1-3.175,3.174H89.642a3.226,3.226,0,0,1-3.176-3.174V11.944Z" fill="#fff"/>
    </clipPath>
    <clipPath id="clip-path-12">
      <path id="패스_1025-2" data-name="패스 1025" d="M117.122,11.944V14.23a11.467,11.467,0,0,0,11.433,11.433h11.879a3.145,3.145,0,0,1,3.175,3.176v2.479a3.184,3.184,0,0,1-3.175,3.174H119.661l-2.539,8.386h23.5a11.467,11.467,0,0,0,11.434-11.433v-2.8a11.466,11.466,0,0,0-11.434-11.433H128.683a3.187,3.187,0,0,1-3.177-3.177V11.944Z" fill="#fff"/>
    </clipPath>
  </defs>
  <g id="그룹_548" data-name="그룹 548" transform="translate(-2670 613.951)">
    <g id="그룹_533" data-name="그룹 533" transform="translate(2670 -532)">
      <rect id="사각형_904" data-name="사각형 904" width="7.271" height="27.36" transform="translate(219.031 15.518)" fill="#003483"/>
      <path id="패스_1007" data-name="패스 1007" d="M257.9,15.517v5.7h9.148V42.878h7.269V21.216h9.149v-5.7Z" fill="#003483"/>
      <g id="그룹_522" data-name="그룹 522">
        <g id="그룹_521" data-name="그룹 521" clip-path="url(#clip-path)">
          <path id="패스_1008" data-name="패스 1008" d="M247.769,26.348H241.69c-1.613,0-2.922-.667-2.922-2.566s1.309-2.567,2.922-2.567h13.07v-5.7H240.828c-5.2,0-9.417,3-9.417,8.265s4.216,8.263,9.417,8.263h6.253c1.613,0,2.921.667,2.921,2.567s-1.308,2.565-2.921,2.565h-14.66v5.7h15.348c5.2,0,9.416-2.994,9.416-8.26s-4.215-8.269-9.416-8.269" fill="#003483"/>
          <path id="패스_1009" data-name="패스 1009" d="M196.891,15.517,186.607,40.138,176.8,29.2l12.26-13.68h-8.3L169.138,28.505V15.517h-7.271v27.36h7.271V29.889l11.619,12.988h12.1l8.328-20.633,6.047,15.17h-9.613l2.282,5.463h17L205.47,15.517Z" fill="#003483"/>
          <path id="패스_1010" data-name="패스 1010" d="M0,65.9H10.319V62.953H3.227V54.526H6.286v5.868H20.972v2.559H13.379V65.9H23.726v2.475H0ZM17.523,79.95V73.328H3.254v-2.5H20.583V79.95Z" fill="#6f7886"/>
          <path id="패스_1011" data-name="패스 1011" d="M30.319,54.663h2.948v2.979a12.027,12.027,0,0,0,.167,2.083,5.261,5.261,0,0,0,.709,1.839A9.333,9.333,0,0,0,35.674,63.4a21.11,21.11,0,0,0,2.655,2.087l-1.585,2.225a21.6,21.6,0,0,1-2.976-2.31,13.166,13.166,0,0,1-1.893-2.2,13.427,13.427,0,0,1-1.945,2.532,20.767,20.767,0,0,1-3.144,2.613l-1.669-2.169a25.791,25.791,0,0,0,2.6-2.2,10.132,10.132,0,0,0,1.6-1.974,6.308,6.308,0,0,0,.793-2,11.864,11.864,0,0,0,.209-2.335ZM45.088,79.949V72.966H30.6V70.407H48.148v9.542ZM42.251,54.357v5.037H45.2v-5.34h2.948V68.989H45.2V61.953H42.251v7.036H39.414V54.357Z" fill="#6f7886"/>
          <path id="패스_1012" data-name="패스 1012" d="M58.3,54.357h3.06v3.4a4.521,4.521,0,0,0,.32,1.711,5.628,5.628,0,0,0,1.071,1.626,17.6,17.6,0,0,0,1.961,1.821q1.209.99,2.99,2.269l-1.724,2.115a39.251,39.251,0,0,1-3.7-2.838,17.391,17.391,0,0,1-2.375-2.5,15.29,15.29,0,0,1-2.291,2.655,37.986,37.986,0,0,1-3.87,3.13l-1.836-2.2q1.836-1.338,3.059-2.379a15.842,15.842,0,0,0,1.975-1.96,6.138,6.138,0,0,0,1.057-1.767A5.174,5.174,0,0,0,58.3,57.67Zm14.937,20.39a5.7,5.7,0,0,1-.516,2.407,6.149,6.149,0,0,1-1.434,1.976,6.722,6.722,0,0,1-2.216,1.333,8.669,8.669,0,0,1-5.741,0,6.82,6.82,0,0,1-2.216-1.319,5.838,5.838,0,0,1-1.422-1.963,5.917,5.917,0,0,1-.5-2.434,5.565,5.565,0,0,1,.514-2.363,6.384,6.384,0,0,1,1.437-1.976,6.772,6.772,0,0,1,2.215-1.364,8.428,8.428,0,0,1,5.714,0,6.788,6.788,0,0,1,2.216,1.364,6.374,6.374,0,0,1,1.434,1.976,5.537,5.537,0,0,1,.516,2.363m-3.06,0a3.247,3.247,0,0,0-.277-1.306,3.878,3.878,0,0,0-2.045-2.017A4.123,4.123,0,0,0,66.2,71.1a4.187,4.187,0,0,0-1.682.321,3.7,3.7,0,0,0-1.238.847,3.8,3.8,0,0,0-.765,1.17,3.391,3.391,0,0,0-.265,1.306,3.608,3.608,0,0,0,1.03,2.517,3.621,3.621,0,0,0,1.238.823,4.406,4.406,0,0,0,1.682.3,4.338,4.338,0,0,0,1.655-.3,3.789,3.789,0,0,0,1.251-.823A3.653,3.653,0,0,0,69.9,76.1a3.423,3.423,0,0,0,.277-1.35m3.561-20.693V68.49H70.679V60.811h-4.9V58.252h4.9v-4.2Z" fill="#6f7886"/>
          <path id="패스_1013" data-name="패스 1013" d="M83.89,57.5H78.633V54.942H92.345V57.5h-5.4v1.2a5.469,5.469,0,0,0,.236,1.694,4.063,4.063,0,0,0,.918,1.461,12.719,12.719,0,0,0,1.906,1.614q1.224.878,3.171,2.156l-1.7,2.142q-2.253-1.475-3.7-2.614a13.964,13.964,0,0,1-2.291-2.2,15.486,15.486,0,0,1-2.263,2.393,39.61,39.61,0,0,1-3.815,2.893l-1.78-2.2q1.836-1.279,3.046-2.239a15.06,15.06,0,0,0,1.92-1.766,5.154,5.154,0,0,0,1-1.6A4.973,4.973,0,0,0,83.89,58.7ZM98.27,74.719a5.705,5.705,0,0,1-.516,2.406A6.159,6.159,0,0,1,96.319,79.1a6.879,6.879,0,0,1-2.215,1.35,7.864,7.864,0,0,1-2.857.5,8.128,8.128,0,0,1-2.884-.488,6.733,6.733,0,0,1-2.217-1.333,5.983,5.983,0,0,1-1.421-1.977,5.92,5.92,0,0,1-.5-2.434,5.736,5.736,0,0,1,.514-2.39,6.235,6.235,0,0,1,1.436-2,6.75,6.75,0,0,1,2.216-1.364,7.86,7.86,0,0,1,2.857-.5,7.6,7.6,0,0,1,2.843.513,7.352,7.352,0,0,1,2.215,1.363,6.007,6.007,0,0,1,1.449,1.991,5.723,5.723,0,0,1,.516,2.39m-3.06,0a3.423,3.423,0,0,0-.278-1.333A3.626,3.626,0,0,0,94.14,72.2a4.2,4.2,0,0,0-1.252-.847,3.944,3.944,0,0,0-1.655-.334,4.021,4.021,0,0,0-1.684.334,3.977,3.977,0,0,0-1.236.847,3.61,3.61,0,0,0,0,5.035,3.806,3.806,0,0,0,1.236.836,4.2,4.2,0,0,0,1.684.318,4.119,4.119,0,0,0,1.655-.318,4.015,4.015,0,0,0,1.252-.836,3.62,3.62,0,0,0,.792-1.181,3.445,3.445,0,0,0,.278-1.336m7.733-15.242v2.559H98.6v6.257h-3.06V54.053H98.6v5.424Z" fill="#6f7886"/>
          <path id="패스_1014" data-name="패스 1014" d="M110.954,58.5H105.7V55.945h13.685V58.5h-5.369v3.477a9.875,9.875,0,0,0,.25,2.294,6.645,6.645,0,0,0,.961,2.114,13.59,13.59,0,0,0,1.974,2.28q1.265,1.213,3.324,2.824l-1.781,2.142a42.573,42.573,0,0,1-3.8-3.2,17.966,17.966,0,0,1-2.351-2.724A14.822,14.822,0,0,1,110.3,70.7a49.651,49.651,0,0,1-3.851,3.519L104.5,72.133q1.945-1.668,3.2-2.892a14.5,14.5,0,0,0,1.975-2.322,7.142,7.142,0,0,0,1-2.255,11.339,11.339,0,0,0,.278-2.655ZM126.03,79.671h-3.06V54.054h3.06Z" fill="#6f7886"/>
          <path id="패스_1015" data-name="패스 1015" d="M144.111,66.627h10.375V69.1H130.732V66.627h10.319V62.983h3.06Zm7.732-2.531a23.255,23.255,0,0,1-5.869-1.836,11.056,11.056,0,0,1-3.365-2.448,10.841,10.841,0,0,1-3.366,2.517,22.991,22.991,0,0,1-5.925,1.905l-.862-2.393a24.538,24.538,0,0,0,4.311-1.347,11.327,11.327,0,0,0,2.615-1.518,4.039,4.039,0,0,0,1.641-3.282V54h3.115v1.753a4.106,4.106,0,0,0,.348,1.642,4.149,4.149,0,0,0,1.293,1.557,11.051,11.051,0,0,0,2.629,1.446,29.946,29.946,0,0,0,4.325,1.336ZM148.255,79.95V73.969H133.93v-2.5h17.385V79.95Z" fill="#6f7886"/>
          <path id="패스_1016" data-name="패스 1016" d="M157.378,72.357a25.807,25.807,0,0,0,4.325-2.978,15.68,15.68,0,0,0,2.922-3.3,12.942,12.942,0,0,0,1.654-3.7,16.166,16.166,0,0,0,.529-4.214h-9.43V55.611h12.49v2.222a20.793,20.793,0,0,1-.533,4.717,15.394,15.394,0,0,1-1.794,4.411,18.727,18.727,0,0,1-3.334,4.046,26.39,26.39,0,0,1-5.159,3.657Zm24-8.736V66.18h-4.339V79.671h-3.06V54.054h3.06v9.567Z" fill="#6f7886"/>
          <path id="패스_1017" data-name="패스 1017" d="M183.051,65.4h23.7V67.96h-23.7Zm20.974-4.728v2.558H186.25v-8.7h3.06v6.147Zm-2,14.549a5.071,5.071,0,0,1-.514,2.266,5.378,5.378,0,0,1-1.461,1.808,7.069,7.069,0,0,1-2.239,1.195,9.784,9.784,0,0,1-5.757,0,7.093,7.093,0,0,1-2.227-1.181,5.292,5.292,0,0,1-1.446-1.795,5.125,5.125,0,0,1-.515-2.293,5.012,5.012,0,0,1,.515-2.241,5.435,5.435,0,0,1,1.446-1.808,6.933,6.933,0,0,1,2.24-1.2,9.11,9.11,0,0,1,2.865-.43,8.848,8.848,0,0,1,2.879.444,7.365,7.365,0,0,1,2.239,1.209,5.439,5.439,0,0,1,1.461,1.794,4.935,4.935,0,0,1,.514,2.228m-3.06-.014a2.635,2.635,0,0,0-.279-1.179,3.073,3.073,0,0,0-.81-1.01,4.119,4.119,0,0,0-1.27-.706,5.552,5.552,0,0,0-3.377,0,3.954,3.954,0,0,0-1.256.706,3,3,0,0,0-.781,1.01,2.744,2.744,0,0,0-.265,1.179,2.784,2.784,0,0,0,.265,1.2,2.857,2.857,0,0,0,.781,1,4.113,4.113,0,0,0,1.256.693,5.572,5.572,0,0,0,3.377,0,4.289,4.289,0,0,0,1.27-.693,2.923,2.923,0,0,0,.81-1,2.673,2.673,0,0,0,.279-1.2" fill="#6f7886"/>
          <path id="패스_1018" data-name="패스 1018" d="M220.379,70.659v2.558h-10.43V55.638h9.6V58.2h-6.536V70.659Zm4.923-16.3v8.819H228.2V54.054h2.975V79.671H228.2V65.735H225.3v13.1h-2.865V54.357Z" fill="#6f7886"/>
          <path id="패스_1019" data-name="패스 1019" d="M243.912,53.135v3.171h6.119v2.531h-2.7a6.453,6.453,0,0,1,1.14,1.795,5.322,5.322,0,0,1,.417,2.1,5.586,5.586,0,0,1-.486,2.307,5.859,5.859,0,0,1-1.349,1.894,6.509,6.509,0,0,1-2.046,1.278,7.246,7.246,0,0,1-5.145,0,6.5,6.5,0,0,1-2.045-1.278,5.823,5.823,0,0,1-1.347-1.894,5.686,5.686,0,0,1-.085-4.407,5.894,5.894,0,0,1,1.153-1.795h-2.724V56.306h6.036V53.135Zm-1.474,12.989a3.627,3.627,0,0,0,1.432-.276,3.294,3.294,0,0,0,1.113-.767,3.642,3.642,0,0,0,.723-1.126,3.6,3.6,0,0,0,.265-1.391,3.827,3.827,0,0,0-.988-2.559,3.357,3.357,0,0,0-1.113-.792,3.682,3.682,0,0,0-2.879,0,3.536,3.536,0,0,0-1.112.792,3.438,3.438,0,0,0-.723,1.167,3.905,3.905,0,0,0-.251,1.392,3.732,3.732,0,0,0,.251,1.391,3.311,3.311,0,0,0,.723,1.126,3.466,3.466,0,0,0,1.112.767,3.608,3.608,0,0,0,1.447.276m13.044,4.563V79.95h-3.058v-6.7H239.073V70.687Zm4.342-10.152v2.558h-4.342v6.175h-3.058V54.082h3.058v6.453Z" fill="#6f7886"/>
          <path id="패스_1020" data-name="패스 1020" d="M278.345,65.318v2.5h-7.008v3.812h-3.006V67.821H261.6v-2.5Zm-1.753-6.343a4.72,4.72,0,0,1-.444,2.018,4.938,4.938,0,0,1-1.292,1.683,6.512,6.512,0,0,1-2.073,1.154,8.265,8.265,0,0,1-2.754.431,8.493,8.493,0,0,1-2.8-.431,6.406,6.406,0,0,1-2.083-1.154,4.9,4.9,0,0,1-1.295-1.683,4.8,4.8,0,0,1,0-4.033,4.9,4.9,0,0,1,1.295-1.684,6.367,6.367,0,0,1,2.083-1.153,8.493,8.493,0,0,1,2.8-.431,8.265,8.265,0,0,1,2.754.431,6.472,6.472,0,0,1,2.073,1.153,4.942,4.942,0,0,1,1.292,1.684,4.713,4.713,0,0,1,.444,2.015M269.3,77.363h14.16v2.559H266.219V72.8H269.3Zm4.312-18.388a2.258,2.258,0,0,0-.252-1.029,2.825,2.825,0,0,0-.723-.9,3.593,3.593,0,0,0-1.126-.64,4.341,4.341,0,0,0-1.487-.235,4.593,4.593,0,0,0-1.516.235,3.529,3.529,0,0,0-1.153.64,2.843,2.843,0,0,0-.724.9,2.27,2.27,0,0,0-.251,1.029,2.313,2.313,0,0,0,.251,1.057,2.831,2.831,0,0,0,.724.906,3.547,3.547,0,0,0,1.153.64,4.62,4.62,0,0,0,1.516.234,4.366,4.366,0,0,0,1.487-.234,3.612,3.612,0,0,0,1.126-.64,2.814,2.814,0,0,0,.723-.906,2.3,2.3,0,0,0,.252-1.057M280.4,69.657v-15.6h3.061V74.109H280.4V72.078h-5.813V69.657Z" fill="#6f7886"/>
        </g>
      </g>
      <g id="그룹_524" data-name="그룹 524">
        <g id="그룹_523" data-name="그룹 523" clip-path="url(#clip-path-2)">
          <rect id="사각형_906" data-name="사각형 906" width="150.563" height="8.447" transform="translate(0.448 0.001)" fill="url(#linear-gradient)"/>
        </g>
      </g>
      <g id="그룹_526" data-name="그룹 526">
        <g id="그룹_525" data-name="그룹 525" clip-path="url(#clip-path-3)">
          <rect id="사각형_907" data-name="사각형 907" width="34.937" height="30.934" transform="translate(0 11.944)" fill="url(#linear-gradient-2)"/>
        </g>
      </g>
      <g id="그룹_528" data-name="그룹 528">
        <g id="그룹_527" data-name="그룹 527" clip-path="url(#clip-path-4)">
          <rect id="사각형_908" data-name="사각형 908" width="34.938" height="30.934" transform="translate(39.04 11.944)" fill="url(#linear-gradient-3)"/>
        </g>
      </g>
      <g id="그룹_530" data-name="그룹 530">
        <g id="그룹_529" data-name="그룹 529" clip-path="url(#clip-path-5)">
          <rect id="사각형_909" data-name="사각형 909" width="34.937" height="30.934" transform="translate(78.081 11.944)" fill="url(#linear-gradient-4)"/>
        </g>
      </g>
      <g id="그룹_532" data-name="그룹 532">
        <g id="그룹_531" data-name="그룹 531" clip-path="url(#clip-path-6)">
          <rect id="사각형_910" data-name="사각형 910" width="34.937" height="30.934" transform="translate(117.122 11.944)" fill="url(#linear-gradient-5)"/>
        </g>
      </g>
    </g>
    <g id="그룹_547" data-name="그룹 547" transform="translate(2670 -613.952)">
      <rect id="사각형_904-2" data-name="사각형 904" width="7.271" height="27.36" transform="translate(219.031 15.518)" fill="#fff"/>
      <path id="패스_1007-2" data-name="패스 1007" d="M257.9,15.517v5.7h9.148V42.878h7.269V21.216h9.149v-5.7Z" fill="#fff"/>
      <g id="그룹_522-2" data-name="그룹 522">
        <g id="그룹_521-2" data-name="그룹 521" clip-path="url(#clip-path-7)">
          <path id="패스_1008-2" data-name="패스 1008" d="M247.769,26.348H241.69c-1.613,0-2.922-.667-2.922-2.566s1.309-2.567,2.922-2.567h13.07v-5.7H240.828c-5.2,0-9.417,3-9.417,8.265s4.216,8.263,9.417,8.263h6.253c1.613,0,2.921.667,2.921,2.567s-1.308,2.565-2.921,2.565h-14.66v5.7h15.348c5.2,0,9.416-2.994,9.416-8.26s-4.215-8.269-9.416-8.269" fill="#fff"/>
          <path id="패스_1009-2" data-name="패스 1009" d="M196.891,15.517,186.607,40.138,176.8,29.2l12.26-13.68h-8.3L169.138,28.505V15.517h-7.271v27.36h7.271V29.889l11.619,12.988h12.1l8.328-20.633,6.047,15.17h-9.613l2.282,5.463h17L205.47,15.517Z" fill="#fff"/>
          <path id="패스_1010-2" data-name="패스 1010" d="M0,65.9H10.319V62.953H3.227V54.526H6.286v5.868H20.972v2.559H13.379V65.9H23.726v2.475H0ZM17.523,79.95V73.328H3.254v-2.5H20.583V79.95Z" fill="#fff"/>
          <path id="패스_1011-2" data-name="패스 1011" d="M30.319,54.663h2.948v2.979a12.027,12.027,0,0,0,.167,2.083,5.261,5.261,0,0,0,.709,1.839A9.333,9.333,0,0,0,35.674,63.4a21.11,21.11,0,0,0,2.655,2.087l-1.585,2.225a21.6,21.6,0,0,1-2.976-2.31,13.166,13.166,0,0,1-1.893-2.2,13.427,13.427,0,0,1-1.945,2.532,20.767,20.767,0,0,1-3.144,2.613l-1.669-2.169a25.791,25.791,0,0,0,2.6-2.2,10.132,10.132,0,0,0,1.6-1.974,6.308,6.308,0,0,0,.793-2,11.864,11.864,0,0,0,.209-2.335ZM45.088,79.949V72.966H30.6V70.407H48.148v9.542ZM42.251,54.357v5.037H45.2v-5.34h2.948V68.989H45.2V61.953H42.251v7.036H39.414V54.357Z" fill="#fff"/>
          <path id="패스_1012-2" data-name="패스 1012" d="M58.3,54.357h3.06v3.4a4.521,4.521,0,0,0,.32,1.711,5.628,5.628,0,0,0,1.071,1.626,17.6,17.6,0,0,0,1.961,1.821q1.209.99,2.99,2.269l-1.724,2.115a39.251,39.251,0,0,1-3.7-2.838,17.391,17.391,0,0,1-2.375-2.5,15.29,15.29,0,0,1-2.291,2.655,37.986,37.986,0,0,1-3.87,3.13l-1.836-2.2q1.836-1.338,3.059-2.379a15.842,15.842,0,0,0,1.975-1.96,6.138,6.138,0,0,0,1.057-1.767A5.174,5.174,0,0,0,58.3,57.67Zm14.937,20.39a5.7,5.7,0,0,1-.516,2.407,6.149,6.149,0,0,1-1.434,1.976,6.722,6.722,0,0,1-2.216,1.333,8.669,8.669,0,0,1-5.741,0,6.82,6.82,0,0,1-2.216-1.319,5.838,5.838,0,0,1-1.422-1.963,5.917,5.917,0,0,1-.5-2.434,5.565,5.565,0,0,1,.514-2.363,6.384,6.384,0,0,1,1.437-1.976,6.772,6.772,0,0,1,2.215-1.364,8.428,8.428,0,0,1,5.714,0,6.788,6.788,0,0,1,2.216,1.364,6.374,6.374,0,0,1,1.434,1.976,5.537,5.537,0,0,1,.516,2.363m-3.06,0a3.247,3.247,0,0,0-.277-1.306,3.878,3.878,0,0,0-2.045-2.017A4.123,4.123,0,0,0,66.2,71.1a4.187,4.187,0,0,0-1.682.321,3.7,3.7,0,0,0-1.238.847,3.8,3.8,0,0,0-.765,1.17,3.391,3.391,0,0,0-.265,1.306,3.608,3.608,0,0,0,1.03,2.517,3.621,3.621,0,0,0,1.238.823,4.406,4.406,0,0,0,1.682.3,4.338,4.338,0,0,0,1.655-.3,3.789,3.789,0,0,0,1.251-.823A3.653,3.653,0,0,0,69.9,76.1a3.423,3.423,0,0,0,.277-1.35m3.561-20.693V68.49H70.679V60.811h-4.9V58.252h4.9v-4.2Z" fill="#fff"/>
          <path id="패스_1013-2" data-name="패스 1013" d="M83.89,57.5H78.633V54.942H92.345V57.5h-5.4v1.2a5.469,5.469,0,0,0,.236,1.694,4.063,4.063,0,0,0,.918,1.461,12.719,12.719,0,0,0,1.906,1.614q1.224.878,3.171,2.156l-1.7,2.142q-2.253-1.475-3.7-2.614a13.964,13.964,0,0,1-2.291-2.2,15.486,15.486,0,0,1-2.263,2.393,39.61,39.61,0,0,1-3.815,2.893l-1.78-2.2q1.836-1.279,3.046-2.239a15.06,15.06,0,0,0,1.92-1.766,5.154,5.154,0,0,0,1-1.6A4.973,4.973,0,0,0,83.89,58.7ZM98.27,74.719a5.705,5.705,0,0,1-.516,2.406A6.159,6.159,0,0,1,96.319,79.1a6.879,6.879,0,0,1-2.215,1.35,7.864,7.864,0,0,1-2.857.5,8.128,8.128,0,0,1-2.884-.488,6.733,6.733,0,0,1-2.217-1.333,5.983,5.983,0,0,1-1.421-1.977,5.92,5.92,0,0,1-.5-2.434,5.736,5.736,0,0,1,.514-2.39,6.235,6.235,0,0,1,1.436-2,6.75,6.75,0,0,1,2.216-1.364,7.86,7.86,0,0,1,2.857-.5,7.6,7.6,0,0,1,2.843.513,7.352,7.352,0,0,1,2.215,1.363,6.007,6.007,0,0,1,1.449,1.991,5.723,5.723,0,0,1,.516,2.39m-3.06,0a3.423,3.423,0,0,0-.278-1.333A3.626,3.626,0,0,0,94.14,72.2a4.2,4.2,0,0,0-1.252-.847,3.944,3.944,0,0,0-1.655-.334,4.021,4.021,0,0,0-1.684.334,3.977,3.977,0,0,0-1.236.847,3.61,3.61,0,0,0,0,5.035,3.806,3.806,0,0,0,1.236.836,4.2,4.2,0,0,0,1.684.318,4.119,4.119,0,0,0,1.655-.318,4.015,4.015,0,0,0,1.252-.836,3.62,3.62,0,0,0,.792-1.181,3.445,3.445,0,0,0,.278-1.336m7.733-15.242v2.559H98.6v6.257h-3.06V54.053H98.6v5.424Z" fill="#fff"/>
          <path id="패스_1014-2" data-name="패스 1014" d="M110.954,58.5H105.7V55.945h13.685V58.5h-5.369v3.477a9.875,9.875,0,0,0,.25,2.294,6.645,6.645,0,0,0,.961,2.114,13.59,13.59,0,0,0,1.974,2.28q1.265,1.213,3.324,2.824l-1.781,2.142a42.573,42.573,0,0,1-3.8-3.2,17.966,17.966,0,0,1-2.351-2.724A14.822,14.822,0,0,1,110.3,70.7a49.651,49.651,0,0,1-3.851,3.519L104.5,72.133q1.945-1.668,3.2-2.892a14.5,14.5,0,0,0,1.975-2.322,7.142,7.142,0,0,0,1-2.255,11.339,11.339,0,0,0,.278-2.655ZM126.03,79.671h-3.06V54.054h3.06Z" fill="#fff"/>
          <path id="패스_1015-2" data-name="패스 1015" d="M144.111,66.627h10.375V69.1H130.732V66.627h10.319V62.983h3.06Zm7.732-2.531a23.255,23.255,0,0,1-5.869-1.836,11.056,11.056,0,0,1-3.365-2.448,10.841,10.841,0,0,1-3.366,2.517,22.991,22.991,0,0,1-5.925,1.905l-.862-2.393a24.538,24.538,0,0,0,4.311-1.347,11.327,11.327,0,0,0,2.615-1.518,4.039,4.039,0,0,0,1.641-3.282V54h3.115v1.753a4.106,4.106,0,0,0,.348,1.642,4.149,4.149,0,0,0,1.293,1.557,11.051,11.051,0,0,0,2.629,1.446,29.946,29.946,0,0,0,4.325,1.336ZM148.255,79.95V73.969H133.93v-2.5h17.385V79.95Z" fill="#fff"/>
          <path id="패스_1016-2" data-name="패스 1016" d="M157.378,72.357a25.807,25.807,0,0,0,4.325-2.978,15.68,15.68,0,0,0,2.922-3.3,12.942,12.942,0,0,0,1.654-3.7,16.166,16.166,0,0,0,.529-4.214h-9.43V55.611h12.49v2.222a20.793,20.793,0,0,1-.533,4.717,15.394,15.394,0,0,1-1.794,4.411,18.727,18.727,0,0,1-3.334,4.046,26.39,26.39,0,0,1-5.159,3.657Zm24-8.736V66.18h-4.339V79.671h-3.06V54.054h3.06v9.567Z" fill="#fff"/>
          <path id="패스_1017-2" data-name="패스 1017" d="M183.051,65.4h23.7V67.96h-23.7Zm20.974-4.728v2.558H186.25v-8.7h3.06v6.147Zm-2,14.549a5.071,5.071,0,0,1-.514,2.266,5.378,5.378,0,0,1-1.461,1.808,7.069,7.069,0,0,1-2.239,1.195,9.784,9.784,0,0,1-5.757,0,7.093,7.093,0,0,1-2.227-1.181,5.292,5.292,0,0,1-1.446-1.795,5.125,5.125,0,0,1-.515-2.293,5.012,5.012,0,0,1,.515-2.241,5.435,5.435,0,0,1,1.446-1.808,6.933,6.933,0,0,1,2.24-1.2,9.11,9.11,0,0,1,2.865-.43,8.848,8.848,0,0,1,2.879.444,7.365,7.365,0,0,1,2.239,1.209,5.439,5.439,0,0,1,1.461,1.794,4.935,4.935,0,0,1,.514,2.228m-3.06-.014a2.635,2.635,0,0,0-.279-1.179,3.073,3.073,0,0,0-.81-1.01,4.119,4.119,0,0,0-1.27-.706,5.552,5.552,0,0,0-3.377,0,3.954,3.954,0,0,0-1.256.706,3,3,0,0,0-.781,1.01,2.744,2.744,0,0,0-.265,1.179,2.784,2.784,0,0,0,.265,1.2,2.857,2.857,0,0,0,.781,1,4.113,4.113,0,0,0,1.256.693,5.572,5.572,0,0,0,3.377,0,4.289,4.289,0,0,0,1.27-.693,2.923,2.923,0,0,0,.81-1,2.673,2.673,0,0,0,.279-1.2" fill="#fff"/>
          <path id="패스_1018-2" data-name="패스 1018" d="M220.379,70.659v2.558h-10.43V55.638h9.6V58.2h-6.536V70.659Zm4.923-16.3v8.819H228.2V54.054h2.975V79.671H228.2V65.735H225.3v13.1h-2.865V54.357Z" fill="#fff"/>
          <path id="패스_1019-2" data-name="패스 1019" d="M243.912,53.135v3.171h6.119v2.531h-2.7a6.453,6.453,0,0,1,1.14,1.795,5.322,5.322,0,0,1,.417,2.1,5.586,5.586,0,0,1-.486,2.307,5.859,5.859,0,0,1-1.349,1.894,6.509,6.509,0,0,1-2.046,1.278,7.246,7.246,0,0,1-5.145,0,6.5,6.5,0,0,1-2.045-1.278,5.823,5.823,0,0,1-1.347-1.894,5.686,5.686,0,0,1-.085-4.407,5.894,5.894,0,0,1,1.153-1.795h-2.724V56.306h6.036V53.135Zm-1.474,12.989a3.627,3.627,0,0,0,1.432-.276,3.294,3.294,0,0,0,1.113-.767,3.642,3.642,0,0,0,.723-1.126,3.6,3.6,0,0,0,.265-1.391,3.827,3.827,0,0,0-.988-2.559,3.357,3.357,0,0,0-1.113-.792,3.682,3.682,0,0,0-2.879,0,3.536,3.536,0,0,0-1.112.792,3.438,3.438,0,0,0-.723,1.167,3.905,3.905,0,0,0-.251,1.392,3.732,3.732,0,0,0,.251,1.391,3.311,3.311,0,0,0,.723,1.126,3.466,3.466,0,0,0,1.112.767,3.608,3.608,0,0,0,1.447.276m13.044,4.563V79.95h-3.058v-6.7H239.073V70.687Zm4.342-10.152v2.558h-4.342v6.175h-3.058V54.082h3.058v6.453Z" fill="#fff"/>
          <path id="패스_1020-2" data-name="패스 1020" d="M278.345,65.318v2.5h-7.008v3.812h-3.006V67.821H261.6v-2.5Zm-1.753-6.343a4.72,4.72,0,0,1-.444,2.018,4.938,4.938,0,0,1-1.292,1.683,6.512,6.512,0,0,1-2.073,1.154,8.265,8.265,0,0,1-2.754.431,8.493,8.493,0,0,1-2.8-.431,6.406,6.406,0,0,1-2.083-1.154,4.9,4.9,0,0,1-1.295-1.683,4.8,4.8,0,0,1,0-4.033,4.9,4.9,0,0,1,1.295-1.684,6.367,6.367,0,0,1,2.083-1.153,8.493,8.493,0,0,1,2.8-.431,8.265,8.265,0,0,1,2.754.431,6.472,6.472,0,0,1,2.073,1.153,4.942,4.942,0,0,1,1.292,1.684,4.713,4.713,0,0,1,.444,2.015M269.3,77.363h14.16v2.559H266.219V72.8H269.3Zm4.312-18.388a2.258,2.258,0,0,0-.252-1.029,2.825,2.825,0,0,0-.723-.9,3.593,3.593,0,0,0-1.126-.64,4.341,4.341,0,0,0-1.487-.235,4.593,4.593,0,0,0-1.516.235,3.529,3.529,0,0,0-1.153.64,2.843,2.843,0,0,0-.724.9,2.27,2.27,0,0,0-.251,1.029,2.313,2.313,0,0,0,.251,1.057,2.831,2.831,0,0,0,.724.906,3.547,3.547,0,0,0,1.153.64,4.62,4.62,0,0,0,1.516.234,4.366,4.366,0,0,0,1.487-.234,3.612,3.612,0,0,0,1.126-.64,2.814,2.814,0,0,0,.723-.906,2.3,2.3,0,0,0,.252-1.057M280.4,69.657v-15.6h3.061V74.109H280.4V72.078h-5.813V69.657Z" fill="#fff"/>
        </g>
      </g>
      <g id="그룹_524-2" data-name="그룹 524">
        <g id="그룹_523-2" data-name="그룹 523" clip-path="url(#clip-path-8)">
          <rect id="사각형_906-2" data-name="사각형 906" width="150.563" height="8.447" transform="translate(0.448 0.001)" fill="#fff"/>
        </g>
      </g>
      <g id="그룹_526-2" data-name="그룹 526">
        <g id="그룹_525-2" data-name="그룹 525" clip-path="url(#clip-path-9)">
          <rect id="사각형_907-2" data-name="사각형 907" width="34.937" height="30.934" transform="translate(0 11.944)" fill="#fff"/>
        </g>
      </g>
      <g id="그룹_528-2" data-name="그룹 528">
        <g id="그룹_527-2" data-name="그룹 527" clip-path="url(#clip-path-10)">
          <rect id="사각형_908-2" data-name="사각형 908" width="34.938" height="30.934" transform="translate(39.04 11.944)" fill="#fff"/>
        </g>
      </g>
      <g id="그룹_530-2" data-name="그룹 530">
        <g id="그룹_529-2" data-name="그룹 529" clip-path="url(#clip-path-11)">
          <rect id="사각형_909-2" data-name="사각형 909" width="34.937" height="30.934" transform="translate(78.081 11.944)" fill="#fff"/>
        </g>
      </g>
      <g id="그룹_532-2" data-name="그룹 532">
        <g id="그룹_531-2" data-name="그룹 531" clip-path="url(#clip-path-12)">
          <rect id="사각형_910-2" data-name="사각형 910" width="34.937" height="30.934" transform="translate(117.122 11.944)" fill="#fff"/>
        </g>
      </g>
    </g>
  </g>
</svg>
