<svg width="24" height="24" viewBox="0 0 24 24" fill="none" xmlns="http://www.w3.org/2000/svg">
<g id="language/Default" clip-path="url(#clip0_14_179)">
<path id="Vector" d="M12 21C16.9706 21 21 16.9706 21 12C21 7.02944 16.9706 3 12 3C7.02944 3 3 7.02944 3 12C3 16.9706 7.02944 21 12 21Z" stroke="white" stroke-width="1.5" stroke-miterlimit="10"/>
<path id="Vector_2" d="M3.51562 9H20.4844" stroke="white" stroke-width="1.5" stroke-linecap="round" stroke-linejoin="round"/>
<path id="Vector_3" d="M3.51562 15H20.4844" stroke="white" stroke-width="1.5" stroke-linecap="round" stroke-linejoin="round"/>
<path id="Vector_4" d="M12 20.7562C14.0711 20.7562 15.75 16.8358 15.75 11.9999C15.75 7.16396 14.0711 3.24365 12 3.24365C9.92893 3.24365 8.25 7.16396 8.25 11.9999C8.25 16.8358 9.92893 20.7562 12 20.7562Z" stroke="white" stroke-width="1.5" stroke-miterlimit="10"/>
</g>
<defs>
<clipPath id="clip0_14_179">
<rect width="24" height="24" fill="white"/>
</clipPath>
</defs>
</svg>
