<svg width="16" height="16" viewBox="0 0 16 16" fill="none" xmlns="http://www.w3.org/2000/svg">
<path fill-rule="evenodd" clip-rule="evenodd" d="M7.50476 0.19718C7.62641 0.0709275 7.7914 0 7.96344 0C8.13547 0 8.30046 0.0709275 8.42211 0.19718C8.54375 0.323432 8.61209 0.494667 8.61209 0.673215V8.9201L11.3954 6.02976C11.4557 5.96714 11.5274 5.91746 11.6062 5.88357C11.685 5.84968 11.7695 5.83224 11.8549 5.83224C11.9402 5.83224 12.0247 5.84968 12.1035 5.88357C12.1824 5.91746 12.254 5.96714 12.3143 6.02976C12.3747 6.09238 12.4225 6.16673 12.4552 6.24855C12.4878 6.33037 12.5046 6.41806 12.5046 6.50662C12.5046 6.59518 12.4878 6.68288 12.4552 6.7647C12.4225 6.84652 12.3747 6.92086 12.3143 6.98348L8.42236 11.0228C8.3621 11.0855 8.29049 11.1353 8.21165 11.1693C8.1328 11.2033 8.04827 11.2208 7.96289 11.2208C7.87752 11.2208 7.79299 11.2033 7.71414 11.1693C7.6353 11.1353 7.56369 11.0855 7.50343 11.0228L3.61147 6.98348C3.48961 6.85701 3.42115 6.68548 3.42115 6.50662C3.42115 6.32776 3.48961 6.15623 3.61147 6.02976C3.73333 5.90329 3.8986 5.83224 4.07094 5.83224C4.24327 5.83224 4.40855 5.90329 4.5304 6.02976L7.31478 8.9201V0.673215C7.31478 0.494667 7.38312 0.323432 7.50476 0.19718ZM1.0761 14.1925C0.697386 14.1925 0.390381 14.4995 0.390381 14.8782C0.390381 15.2569 0.697386 15.5639 1.0761 15.5639H14.7904C15.1691 15.5639 15.4761 15.2569 15.4761 14.8782C15.4761 14.4995 15.1691 14.1925 14.7904 14.1925H1.0761Z" fill="#333333"/>
</svg>
