<svg width="16" height="16" viewBox="0 0 16 16" fill="none" xmlns="http://www.w3.org/2000/svg">
<path fill-rule="evenodd" clip-rule="evenodd" d="M7.11438 0.19718C7.23603 0.0709275 7.40102 0 7.57305 0C7.74509 0 7.91008 0.0709275 8.03173 0.19718C8.15337 0.323432 8.22171 0.494667 8.22171 0.673215V8.9201L11.005 6.02976C11.0653 5.96714 11.137 5.91746 11.2158 5.88357C11.2946 5.84968 11.3791 5.83224 11.4645 5.83224C11.5498 5.83224 11.6343 5.84968 11.7131 5.88357C11.792 5.91746 11.8636 5.96714 11.9239 6.02976C11.9843 6.09238 12.0321 6.16673 12.0648 6.24855C12.0975 6.33037 12.1143 6.41806 12.1143 6.50662C12.1143 6.59518 12.0975 6.68288 12.0648 6.7647C12.0321 6.84652 11.9843 6.92086 11.9239 6.98348L8.03198 11.0228C7.97172 11.0855 7.90011 11.1353 7.82127 11.1693C7.74242 11.2033 7.65789 11.2208 7.57251 11.2208C7.48714 11.2208 7.40261 11.2033 7.32376 11.1693C7.24492 11.1353 7.17331 11.0855 7.11305 11.0228L3.22109 6.98348C3.09923 6.85701 3.03077 6.68548 3.03077 6.50662C3.03077 6.32776 3.09923 6.15623 3.22109 6.02976C3.34295 5.90329 3.50822 5.83224 3.68056 5.83224C3.85289 5.83224 4.01816 5.90329 4.14002 6.02976L6.92439 8.9201V0.673215C6.92439 0.494667 6.99274 0.323432 7.11438 0.19718ZM0.685714 14.1925C0.307005 14.1925 0 14.4995 0 14.8782C0 15.2569 0.307005 15.5639 0.685714 15.5639H14.4C14.7787 15.5639 15.0857 15.2569 15.0857 14.8782C15.0857 14.4995 14.7787 14.1925 14.4 14.1925H0.685714Z" fill="#70D44B"/>
</svg>
