<svg width="200" height="22" viewBox="0 0 200 22" fill="none" xmlns="http://www.w3.org/2000/svg">
<path fill-rule="evenodd" clip-rule="evenodd" d="M17.5167 2.51302C16.521 1.90029 15.328 1.61454 13.316 1.61454H8.31688C4.81427 1.61454 3.10862 3.44097 2.46054 6.72264C1.47663 11.7158 0.201075 18.073 0.0685124 18.7652C-0.258476 20.412 0.607602 20.9746 2.18363 20.9746C3.5888 20.9746 8.92961 20.9746 8.92961 20.9746C11.9314 20.9746 13.7078 20.5151 15.0511 19.6814C17.4814 18.3263 17.9675 15.5602 17.9675 15.5602C18.7599 11.601 14.8684 11.0147 14.8684 11.0147C14.8684 11.0147 18.2532 10.3195 18.9632 6.56946C18.9632 6.56946 19.5641 3.77679 17.5167 2.51302ZM12.5265 14.7589C12.4204 15.407 11.9138 16.2348 10.1963 16.2348C8.67038 16.2348 6.33727 16.2348 6.33727 16.2348L6.94411 13.1829C6.94411 13.1829 9.90469 13.1829 10.4997 13.1829C11.3364 13.1829 12.7769 13.1976 12.5265 14.7589ZM13.1864 7.57693C13.0332 8.66984 12.2231 8.99683 10.4614 8.99683C8.69984 8.99683 7.766 8.99683 7.766 8.99683C7.766 8.99683 7.94275 7.95695 8.05764 7.37956C8.17253 6.79923 8.49363 6.31611 9.34497 6.31611H11.7429C11.9668 6.31611 13.3719 6.25719 13.1864 7.57693ZM34.1784 9.25018L31.3504 9.25312C28.9643 9.25312 28.4871 10.8851 28.2691 11.9957C28.1866 12.4228 27.9598 13.4775 27.9598 13.4775C27.9598 13.4775 30.7701 13.4775 31.5655 13.4775C30.9999 15.9579 29.2736 16.3938 28.1247 16.3938C27.2911 16.3938 25.0375 16.6708 25.1347 13.6778C25.1524 13.0886 25.5 10.5228 26.26 9.07636C27.2469 7.19986 28.5578 6.33379 31.2679 6.2189C32.7173 6.15998 34.1431 6.33084 34.1431 6.33084C35.8487 6.51349 36.5646 5.29096 36.5646 5.29096C37.2863 4.2334 37.7753 2.62497 37.7753 2.62497C37.7753 2.62497 37.139 2.31566 36.0019 1.98278C34.2491 1.47904 31.8247 1.4702 31.8247 1.4702C26.5281 1.37299 23.5557 4.22751 23.5557 4.22751C20.657 6.7462 19.953 10.9646 19.953 10.9646C18.3946 17.1274 21.5967 19.4575 21.5967 19.4575C23.7649 21.3546 27.5208 21.1484 27.5208 21.1484C31.81 21.1484 34.1254 18.8359 34.1254 18.8359C36.5086 16.5912 36.9534 13.5423 37.0948 12.7381C37.4719 10.6288 36.5852 9.25018 34.1784 9.25018ZM48.8988 1.59098C43.7789 1.59098 40.5856 3.53818 39.4456 9.24723C39.4456 9.24723 37.5014 19.0215 37.4896 19.0863C37.41 19.7403 37.5249 20.1851 37.7724 20.4738V20.4768C37.8107 20.521 37.8519 20.5593 37.8931 20.5976C38.2054 20.8656 38.6561 20.9628 39.1716 20.9628C40.2822 20.9628 42.7302 20.9628 42.7302 20.9628L44.0588 14.5615L44.1059 14.3052H48.4893C50.7017 14.3052 52.4338 13.4775 52.9582 11.4448C53.241 10.3549 53.2852 9.477 53.2852 9.477C53.2852 9.477 49.9417 9.12939 47.6498 9.36211C46.3124 9.49762 45.3815 9.76275 44.8041 10.6848L45.0957 9.25606C45.6319 6.94947 47.2609 6.29255 49.0137 6.29255H51.9448C53.7035 6.29255 54.8111 5.67687 55.1381 4.09495C55.4062 2.81351 55.6183 1.59392 55.6183 1.59392H48.8988V1.59098Z" fill="white"/>
<path d="M190.959 0.680664H187.672L184.125 19.2395C183.954 20.191 184.11 20.8037 185.233 20.8037C186.761 20.8037 187.133 20.8037 187.133 20.8037L190.959 0.680664Z" fill="white"/>
<path d="M163.922 19.1777C163.751 20.1292 163.905 20.742 165.03 20.742C166.562 20.742 166.904 20.742 166.904 20.742L169.54 6.93774H166.253L163.922 19.1777Z" fill="white"/>
<path d="M168.747 1.18433C167.669 1.18433 166.765 2.00621 166.765 3.19633C166.765 4.2156 167.445 4.955 168.438 4.955H168.468C169.572 4.955 170.48 4.18909 170.509 2.97246C170.503 1.92079 169.767 1.18433 168.747 1.18433Z" fill="white"/>
<path d="M169.867 16.3465C169.867 19.1245 171.481 21.0511 173.947 21.0511C175.703 21.0511 177.517 20.1732 178.878 17.6221H178.964C178.905 18.2555 178.843 18.8623 178.796 19.4161C178.749 19.964 178.784 20.7388 180.378 20.7388C181.556 20.7388 181.768 20.7388 181.768 20.7388C181.712 19.095 181.939 16.5145 182.337 14.4465L183.754 7.24683C182.705 6.90806 181.088 6.62231 179.588 6.62231C173.155 6.62526 169.867 11.642 169.867 16.3465ZM179.332 12.947C178.681 16.4614 176.81 18.388 175.278 18.388C173.832 18.388 173.296 17.1979 173.296 15.7515C173.296 12.6053 175.65 9.17637 178.71 9.17637C179.305 9.17637 179.73 9.23233 180.071 9.31776L179.332 12.947Z" fill="white"/>
<path d="M152.384 20.2117C151.023 20.9217 149.181 21.3164 147.508 21.3164C143.681 21.3164 141.84 18.9656 141.84 15.5927C141.84 11.4272 144.901 6.89062 149.662 6.89062C152.384 6.89062 154.113 8.47843 154.113 10.7732C154.113 14.3171 150.401 15.4512 145.072 15.3364C145.016 15.8165 145.128 16.7533 145.44 17.2924C145.979 18.2262 146.972 18.7093 148.274 18.7093C149.832 18.7093 151.078 18.3117 152.071 17.802L152.384 20.2117ZM150.996 10.7762C150.996 9.89833 150.289 9.35924 149.237 9.35924C147.169 9.35924 145.808 11.2004 145.411 12.8736C148.81 12.9296 150.993 12.4494 150.993 10.8057V10.7762H150.996Z" fill="white"/>
<path d="M139.678 3.66187L138.997 7.20572H142.114L141.604 9.75682H138.514L137.41 15.3421C137.298 15.9667 137.183 16.7031 137.183 17.2687C137.183 18.0346 137.522 18.5148 138.402 18.5148C138.8 18.5148 139.195 18.4853 139.537 18.4294L139.224 21.0364C138.741 21.2073 137.863 21.3193 137.071 21.3193C134.803 21.3193 133.783 20.0437 133.783 18.4588C133.783 17.6929 133.869 16.927 134.096 15.9077L135.286 9.75682H133.415L133.895 7.20572H135.766L136.246 4.65461L139.678 3.66187Z" fill="white"/>
<path d="M118.17 16.6149C118.17 19.3928 119.785 21.3194 122.253 21.3194C124.009 21.3194 125.824 20.4415 127.185 17.8904H127.27C127.208 18.5238 127.149 19.1306 127.102 19.6844C127.055 20.2324 127.09 21.0071 128.684 21.0071C129.862 21.0071 130.075 21.0071 130.075 21.0071C130.019 19.3633 130.245 16.7828 130.643 14.7148L132.06 7.51514C131.011 7.17637 129.394 6.89062 127.895 6.89062C121.458 6.89357 118.17 11.9074 118.17 16.6149ZM127.635 13.2124C126.984 16.7268 125.114 18.6534 123.582 18.6534C122.136 18.6534 121.599 17.4633 121.599 16.0169C121.599 12.8707 123.953 9.44173 127.014 9.44173C127.609 9.44173 128.033 9.49769 128.375 9.58312L127.635 13.2124Z" fill="white"/>
<path d="M97.57 11.4832C97.8823 9.83941 98.1091 8.393 98.2505 7.20288H101.114L100.831 9.61258H100.861C102.166 7.77143 103.865 6.89062 105.65 6.89062C107.804 6.89062 108.797 8.2516 108.912 9.72453C110.131 7.82446 111.887 6.91714 113.787 6.89062C115.684 6.89062 117.16 8.11021 117.16 10.5759C117.16 11.1709 117.045 12.1902 116.933 12.9296L115.404 21.0071C115.404 21.0071 115.124 21.0071 113.592 21.0071C112.47 21.0071 112.314 20.3944 112.485 19.4429L113.643 13.2978C113.728 12.7322 113.84 12.1077 113.84 11.5421C113.84 10.3815 113.36 9.58607 112.14 9.58607C110.638 9.58607 108.965 11.4861 108.428 14.4055L107.182 21.0101C107.182 21.0101 106.935 21.0101 105.406 21.0101C104.284 21.0101 104.127 20.3973 104.298 19.4458L105.483 13.1859C105.597 12.6173 105.653 12.0812 105.653 11.5686C105.653 10.5199 105.341 9.58607 104.01 9.58607C102.478 9.58607 100.722 11.6541 100.212 14.4614L98.9958 21.0101C98.9958 21.0101 98.7307 21.0101 97.2018 21.0101C96.0794 21.0101 95.9233 20.3973 96.0942 19.4458L97.57 11.4832Z" fill="white"/>
<path d="M163.525 6.80225C161.63 6.80225 160.131 8.16322 159.197 10.0309H159.112C159.253 9.01457 159.339 8.05128 159.424 7.1145H156.564C156.393 8.3606 156.225 10.4551 155.854 12.4082C155.854 12.4082 154.761 18.1025 154.537 19.3368C154.366 20.2883 154.519 20.8981 155.644 20.8981C157.173 20.8981 157.524 20.8981 157.524 20.8981L158.573 15.3511C159.109 12.4052 160.611 10.0279 162.959 10.0279C163.186 10.0279 163.413 10.0574 163.581 10.0839L164.232 6.85527C164.008 6.8317 163.751 6.80225 163.525 6.80225Z" fill="white"/>
<path d="M94.8069 12.2606C94.8069 16.9357 91.5194 20.9627 86.8149 20.9627C83.3299 20.9627 81.1765 18.553 81.1765 15.2654C81.1765 10.5874 84.4346 6.53687 89.1421 6.53687C92.8509 6.53392 94.8069 9.19992 94.8069 12.2606ZM84.5731 15.18C84.5731 17.08 85.5953 18.4116 87.2656 18.4116C89.7312 18.4116 91.375 15.0091 91.375 12.2606C91.375 10.8437 90.7505 9.08503 88.7385 9.08503C86.1049 9.08503 84.5731 12.5994 84.5731 15.18Z" fill="white"/>
<path d="M79.026 20.1702C78.2336 20.5679 76.8166 20.9627 75.058 20.9627C71.5995 20.9627 69.4756 18.7238 69.4756 15.4363C69.4756 10.6169 73.1314 6.53687 78.263 6.53687C79.4826 6.53687 80.5579 6.84913 81.0704 7.07596L80.2191 9.65357C79.7094 9.42674 79.0584 9.22937 78.1511 9.22937C74.949 9.22937 72.937 12.1782 72.937 15.0386C72.937 17.1095 74.1271 18.2702 75.9712 18.2702C77.2467 18.2702 78.21 17.9284 78.92 17.6191L79.026 20.1702Z" fill="white"/>
<path d="M67.166 19.858C65.805 20.5679 63.9638 20.9627 62.2906 20.9627C58.464 20.9627 56.6228 18.6119 56.6228 15.2389C56.6228 11.0705 59.6835 6.53687 64.447 6.53687C67.1689 6.53687 68.8952 8.12468 68.8952 10.4195C68.8952 13.9633 65.1834 15.0975 59.8544 14.9826C59.7984 15.4628 59.9104 16.3995 60.2226 16.9386C60.7617 17.8725 61.7545 18.3556 63.0565 18.3556C64.6149 18.3556 65.861 17.9579 66.8537 17.4483L67.166 19.858ZM65.7785 10.4195C65.7785 9.54163 65.0685 9.00254 64.0228 9.00254C61.9518 9.00254 60.5938 10.8437 60.1961 12.5169C63.5956 12.5729 65.7785 12.0927 65.7785 10.4489V10.4195Z" fill="white"/>
<path d="M196.568 9.18246C197.702 9.18246 198.636 9.52123 199.149 9.80697L200 7.42674C199.376 7.05851 198.185 6.71973 196.742 6.71973C193.481 6.71973 191.157 8.59034 191.157 11.2563C191.157 12.8441 192.291 14.0048 193.879 14.8562C195.24 15.5661 195.693 16.1022 195.693 16.9831C195.693 17.8904 194.901 18.6533 193.566 18.6828C192.32 18.6828 190.959 18.1437 190.249 17.749L189.398 20.1292C190.134 20.6683 191.637 21.122 193.251 21.1485C196.568 21.1485 199.119 19.4487 199.119 16.4145C199.119 14.6558 197.758 13.5246 196.256 12.7027C195.095 12.1077 194.471 11.5686 194.471 10.8027C194.471 9.86295 195.322 9.18246 196.568 9.18246Z" fill="white"/>
</svg>
