<svg width="200" height="22" viewBox="0 0 200 22" fill="none" xmlns="http://www.w3.org/2000/svg">
<path fill-rule="evenodd" clip-rule="evenodd" d="M17.5167 2.51302C16.521 1.90029 15.328 1.61454 13.316 1.61454H8.31688C4.81427 1.61454 3.10862 3.44097 2.46054 6.72264C1.47663 11.7158 0.201075 18.073 0.0685124 18.7652C-0.258476 20.412 0.607602 20.9746 2.18363 20.9746C3.5888 20.9746 8.92961 20.9746 8.92961 20.9746C11.9314 20.9746 13.7078 20.5151 15.0511 19.6814C17.4814 18.3263 17.9675 15.5602 17.9675 15.5602C18.7599 11.601 14.8684 11.0147 14.8684 11.0147C14.8684 11.0147 18.2532 10.3195 18.9632 6.56946C18.9632 6.56946 19.5641 3.77679 17.5167 2.51302ZM12.5265 14.7589C12.4204 15.407 11.9138 16.2348 10.1963 16.2348C8.67038 16.2348 6.33727 16.2348 6.33727 16.2348L6.94411 13.1829C6.94411 13.1829 9.90469 13.1829 10.4997 13.1829C11.3364 13.1829 12.7769 13.1976 12.5265 14.7589ZM13.1864 7.57693C13.0332 8.66984 12.2231 8.99683 10.4614 8.99683C8.69983 8.99683 7.766 8.99683 7.766 8.99683C7.766 8.99683 7.94275 7.95695 8.05764 7.37956C8.17253 6.79923 8.49363 6.31611 9.34497 6.31611H11.7429C11.9668 6.31611 13.3719 6.25719 13.1864 7.57693ZM34.1784 9.25018L31.3504 9.25312C28.9643 9.25312 28.4871 10.8851 28.2691 11.9957C28.1866 12.4228 27.9598 13.4775 27.9598 13.4775C27.9598 13.4775 30.7701 13.4775 31.5655 13.4775C30.9999 15.9579 29.2736 16.3938 28.1247 16.3938C27.2911 16.3938 25.0375 16.6708 25.1347 13.6778C25.1524 13.0886 25.5 10.5228 26.26 9.07636C27.2469 7.19986 28.5578 6.33379 31.2679 6.2189C32.7173 6.15998 34.1431 6.33084 34.1431 6.33084C35.8487 6.51349 36.5646 5.29096 36.5646 5.29096C37.2863 4.2334 37.7753 2.62497 37.7753 2.62497C37.7753 2.62497 37.139 2.31566 36.0019 1.98278C34.2491 1.47904 31.8247 1.4702 31.8247 1.4702C26.5281 1.37299 23.5557 4.22751 23.5557 4.22751C20.657 6.7462 19.953 10.9647 19.953 10.9647C18.3946 17.1274 21.5967 19.4575 21.5967 19.4575C23.7649 21.3546 27.5208 21.1484 27.5208 21.1484C31.81 21.1484 34.1254 18.8359 34.1254 18.8359C36.5086 16.5912 36.9534 13.5423 37.0948 12.7381C37.4719 10.6288 36.5852 9.25018 34.1784 9.25018ZM48.8988 1.59098C43.7789 1.59098 40.5857 3.53818 39.4456 9.24723C39.4456 9.24723 37.5014 19.0215 37.4896 19.0863C37.41 19.7403 37.5249 20.1851 37.7724 20.4738V20.4768C37.8107 20.521 37.8519 20.5593 37.8931 20.5976C38.2054 20.8656 38.6561 20.9628 39.1716 20.9628C40.2822 20.9628 42.7302 20.9628 42.7302 20.9628L44.0588 14.5615L44.1059 14.3052H48.4893C50.7017 14.3052 52.4338 13.4775 52.9582 11.4448C53.241 10.3549 53.2852 9.477 53.2852 9.477C53.2852 9.477 49.9417 9.12939 47.6498 9.36211C46.3124 9.49762 45.3815 9.76275 44.8041 10.6848L45.0957 9.25606C45.6319 6.94947 47.2609 6.29255 49.0137 6.29255H51.9448C53.7035 6.29255 54.8111 5.67687 55.1381 4.09495C55.4062 2.81351 55.6183 1.59392 55.6183 1.59392H48.8988V1.59098Z" fill="#50AF47"/>
<path d="M190.959 0.680664H187.672L184.125 19.2395C183.954 20.191 184.11 20.8037 185.233 20.8037C186.761 20.8037 187.133 20.8037 187.133 20.8037L190.959 0.680664Z" fill="#50AF47"/>
<path d="M163.923 19.1775C163.752 20.129 163.905 20.7417 165.03 20.7417C166.562 20.7417 166.904 20.7417 166.904 20.7417L169.54 6.9375H166.253L163.923 19.1775Z" fill="#50AF47"/>
<path d="M168.748 1.18457C167.67 1.18457 166.765 2.00646 166.765 3.19658C166.765 4.21584 167.446 4.95525 168.438 4.95525H168.468C169.573 4.95525 170.48 4.18933 170.509 2.9727C170.503 1.92103 169.767 1.18457 168.748 1.18457Z" fill="#50AF47"/>
<path d="M169.867 16.3463C169.867 19.1242 171.482 21.0508 173.947 21.0508C175.703 21.0508 177.518 20.173 178.879 17.6219H178.964C178.905 18.2552 178.843 18.8621 178.796 19.4159C178.749 19.9638 178.784 20.7386 180.378 20.7386C181.556 20.7386 181.768 20.7386 181.768 20.7386C181.712 19.0948 181.939 16.5142 182.337 14.4462L183.754 7.24659C182.705 6.90782 181.088 6.62207 179.588 6.62207C173.155 6.62502 169.867 11.6418 169.867 16.3463ZM179.332 12.9468C178.681 16.4612 176.811 18.3878 175.279 18.3878C173.832 18.3878 173.296 17.1976 173.296 15.7512C173.296 12.6051 175.65 9.17612 178.711 9.17612C179.306 9.17612 179.73 9.23209 180.072 9.31752L179.332 12.9468Z" fill="#50AF47"/>
<path d="M152.384 20.2117C151.023 20.9217 149.181 21.3164 147.508 21.3164C143.681 21.3164 141.84 18.9656 141.84 15.5927C141.84 11.4272 144.901 6.89062 149.662 6.89062C152.384 6.89062 154.113 8.47843 154.113 10.7732C154.113 14.3171 150.401 15.4512 145.072 15.3364C145.016 15.8165 145.128 16.7533 145.44 17.2924C145.979 18.2262 146.972 18.7093 148.274 18.7093C149.832 18.7093 151.078 18.3117 152.071 17.802L152.384 20.2117ZM150.996 10.7762C150.996 9.89833 150.289 9.35924 149.237 9.35924C147.169 9.35924 145.808 11.2004 145.411 12.8736C148.81 12.9296 150.993 12.4494 150.993 10.8057V10.7762H150.996Z" fill="#50AF47"/>
<path d="M139.678 3.66211L138.998 7.20596H142.115L141.605 9.75706H138.515L137.41 15.3424C137.298 15.9669 137.183 16.7034 137.183 17.269C137.183 18.0349 137.522 18.515 138.403 18.515C138.801 18.515 139.195 18.4856 139.537 18.4296L139.225 21.0367C138.742 21.2076 137.864 21.3195 137.071 21.3195C134.803 21.3195 133.784 20.0439 133.784 18.4591C133.784 17.6932 133.869 16.9272 134.096 15.908L135.286 9.75706H133.416L133.896 7.20596H135.766L136.246 4.65486L139.678 3.66211Z" fill="#50AF47"/>
<path d="M118.17 16.6149C118.17 19.3928 119.785 21.3194 122.253 21.3194C124.009 21.3194 125.824 20.4415 127.185 17.8904H127.27C127.208 18.5238 127.149 19.1306 127.102 19.6844C127.055 20.2324 127.09 21.0071 128.684 21.0071C129.862 21.0071 130.075 21.0071 130.075 21.0071C130.019 19.3633 130.245 16.7828 130.643 14.7148L132.06 7.51514C131.011 7.17637 129.394 6.89062 127.895 6.89062C121.458 6.89357 118.17 11.9074 118.17 16.6149ZM127.635 13.2124C126.984 16.7268 125.114 18.6534 123.582 18.6534C122.136 18.6534 121.599 17.4633 121.599 16.0169C121.599 12.8707 123.953 9.44173 127.014 9.44173C127.609 9.44173 128.033 9.49769 128.375 9.58312L127.635 13.2124Z" fill="#50AF47"/>
<path d="M97.5705 11.4832C97.8828 9.83941 98.1096 8.393 98.251 7.20288H101.114L100.832 9.61258H100.861C102.166 7.77143 103.866 6.89062 105.651 6.89062C107.804 6.89062 108.797 8.2516 108.912 9.72453C110.132 7.82446 111.887 6.91714 113.787 6.89062C115.684 6.89062 117.16 8.11021 117.16 10.5759C117.16 11.1709 117.045 12.1902 116.934 12.9296L115.405 21.0071C115.405 21.0071 115.125 21.0071 113.593 21.0071C112.471 21.0071 112.314 20.3944 112.485 19.4429L113.643 13.2978C113.728 12.7322 113.84 12.1077 113.84 11.5421C113.84 10.3815 113.36 9.58607 112.141 9.58607C110.638 9.58607 108.965 11.4861 108.429 14.4055L107.183 21.0101C107.183 21.0101 106.935 21.0101 105.406 21.0101C104.284 21.0101 104.128 20.3973 104.299 19.4458L105.483 13.1859C105.598 12.6173 105.654 12.0812 105.654 11.5686C105.654 10.5199 105.342 9.58607 104.01 9.58607C102.478 9.58607 100.723 11.6541 100.213 14.4614L98.9963 21.0101C98.9963 21.0101 98.7312 21.0101 97.2023 21.0101C96.0799 21.0101 95.9238 20.3973 96.0946 19.4458L97.5705 11.4832Z" fill="#50AF47"/>
<path d="M163.525 6.80176C161.63 6.80176 160.131 8.16274 159.197 10.0304H159.112C159.253 9.01408 159.339 8.05079 159.424 7.11402H156.564C156.393 8.36011 156.225 10.4546 155.854 12.4077C155.854 12.4077 154.761 18.102 154.537 19.3363C154.366 20.2878 154.519 20.8976 155.644 20.8976C157.173 20.8976 157.524 20.8976 157.524 20.8976L158.573 15.3506C159.109 12.4047 160.611 10.0275 162.959 10.0275C163.186 10.0275 163.413 10.0569 163.581 10.0834L164.232 6.85478C164.008 6.83121 163.751 6.80176 163.525 6.80176Z" fill="#50AF47"/>
<path d="M94.8072 12.2609C94.8072 16.9359 91.5196 20.9629 86.8151 20.9629C83.3302 20.9629 81.1768 18.5532 81.1768 15.2656C81.1768 10.5876 84.4349 6.53711 89.1423 6.53711C92.8511 6.53417 94.8072 9.20016 94.8072 12.2609ZM84.5733 15.1802C84.5733 17.0803 85.5955 18.4118 87.2658 18.4118C89.7315 18.4118 91.3753 15.0094 91.3753 12.2609C91.3753 10.8439 90.7508 9.08527 88.7387 9.08527C86.1052 9.08527 84.5733 12.5997 84.5733 15.1802Z" fill="#50AF47"/>
<path d="M79.026 20.1705C78.2336 20.5682 76.8166 20.9629 75.058 20.9629C71.5995 20.9629 69.4756 18.7241 69.4756 15.4365C69.4756 10.6171 73.1314 6.53711 78.263 6.53711C79.4826 6.53711 80.5579 6.84937 81.0704 7.0762L80.2191 9.65382C79.7094 9.42699 79.0584 9.22961 78.1511 9.22961C74.949 9.22961 72.937 12.1784 72.937 15.0388C72.937 17.1097 74.1271 18.2704 75.9712 18.2704C77.2467 18.2704 78.21 17.9287 78.92 17.6194L79.026 20.1705Z" fill="#50AF47"/>
<path d="M67.1662 19.8582C65.8052 20.5682 63.9641 20.9629 62.2908 20.9629C58.4642 20.9629 56.623 18.6121 56.623 15.2391C56.623 11.0708 59.6838 6.53711 64.4472 6.53711C67.1692 6.53711 68.8954 8.12493 68.8954 10.4197C68.8954 13.9636 65.1837 15.0977 59.8546 14.9828C59.7987 15.463 59.9106 16.3998 60.2229 16.9389C60.762 17.8727 61.7547 18.3558 63.0568 18.3558C64.6151 18.3558 65.8612 17.9581 66.854 17.4485L67.1662 19.8582ZM65.7787 10.4197C65.7787 9.54188 65.0688 9.00278 64.023 9.00278C61.9521 9.00278 60.594 10.8439 60.1963 12.5172C63.5959 12.5731 65.7787 12.093 65.7787 10.4492V10.4197Z" fill="#50AF47"/>
<path d="M196.568 9.18246C197.702 9.18246 198.636 9.52123 199.149 9.80697L200 7.42674C199.376 7.05851 198.185 6.71973 196.742 6.71973C193.481 6.71973 191.157 8.59034 191.157 11.2563C191.157 12.8441 192.291 14.0048 193.879 14.8562C195.24 15.5661 195.693 16.1022 195.693 16.9831C195.693 17.8904 194.901 18.6533 193.566 18.6828C192.32 18.6828 190.959 18.1437 190.249 17.749L189.398 20.1292C190.134 20.6683 191.637 21.122 193.251 21.1485C196.568 21.1485 199.119 19.4487 199.119 16.4145C199.119 14.6558 197.758 13.5246 196.256 12.7027C195.095 12.1077 194.471 11.5686 194.471 10.8027C194.471 9.86295 195.322 9.18246 196.568 9.18246Z" fill="#50AF47"/>
</svg>
