<svg id="world-wide-web_1006771" xmlns="http://www.w3.org/2000/svg" width="39.583" height="39.583" viewBox="0 0 39.583 39.583">
  <g id="그룹_17" data-name="그룹 17" transform="translate(0 0)">
    <path id="패스_56" data-name="패스 56" d="M33.786,5.8A19.792,19.792,0,1,0,5.8,33.786,19.792,19.792,0,1,0,33.786,5.8ZM7.439,7.439A17.427,17.427,0,0,1,13.449,3.5a16.317,16.317,0,0,0-1.657,2.549A22.8,22.8,0,0,0,10.267,9.69a35.753,35.753,0,0,1-4.051-.9A17.814,17.814,0,0,1,7.439,7.439ZM4.811,10.791A35.861,35.861,0,0,0,9.64,11.936a33.7,33.7,0,0,0-.856,6.694H2.361A17.313,17.313,0,0,1,4.811,10.791ZM4.685,28.577a17.316,17.316,0,0,1-2.324-7.625H8.789a33.663,33.663,0,0,0,.839,6.509A37.63,37.63,0,0,0,4.685,28.577Zm2.754,3.568a17.775,17.775,0,0,1-1.379-1.55,37.539,37.539,0,0,1,4.191-.884A22.84,22.84,0,0,0,11.792,33.4,16.05,16.05,0,0,0,13.61,36.14,17.423,17.423,0,0,1,7.439,32.145Zm11.192,4.819c-1.763-.494-3.431-2.1-4.788-4.658A20.188,20.188,0,0,1,12.594,29.4c1.912-.21,3.946-.335,6.037-.364Zm0-10.25a65.417,65.417,0,0,0-6.694.426,31.142,31.142,0,0,1-.825-6.187h7.519v5.761Zm0-8.083H11.107a31.188,31.188,0,0,1,.837-6.355,64.461,64.461,0,0,0,6.686.469Zm0-8.209c-2.1-.042-4.129-.179-6.027-.4a20.186,20.186,0,0,1,1.239-2.877c1.357-2.554,3.025-4.164,4.788-4.658v7.937Zm16.215.493a17.318,17.318,0,0,1,2.377,7.716H30.8a33.739,33.739,0,0,0-.839-6.621A37.918,37.918,0,0,0,34.845,10.915Zm-2.7-3.476A17.791,17.791,0,0,1,33.452,8.9a37.9,37.9,0,0,1-4.113.859,22.855,22.855,0,0,0-1.548-3.706A16.317,16.317,0,0,0,26.134,3.5,17.427,17.427,0,0,1,32.145,7.439ZM20.953,20.953h7.519a31.1,31.1,0,0,1-.836,6.232,64.524,64.524,0,0,0-6.683-.464Zm0-2.322V12.752a65.487,65.487,0,0,0,6.7-.422,31.22,31.22,0,0,1,.824,6.3Zm0-16.146h0c1.763.494,3.431,2.1,4.788,4.658A20.216,20.216,0,0,1,27,10.069c-1.914.21-3.951.333-6.044.361Zm0,34.479V29.042c2.1.041,4.125.177,6.023.4a20.173,20.173,0,0,1-1.234,2.865C24.384,34.859,22.716,36.47,20.953,36.964Zm11.192-4.819a17.419,17.419,0,0,1-6.171,4A16.049,16.049,0,0,0,27.791,33.4a22.791,22.791,0,0,0,1.521-3.626,35.717,35.717,0,0,1,4.137.917A17.8,17.8,0,0,1,32.145,32.145Zm2.692-3.462a35.861,35.861,0,0,0-4.9-1.16,33.638,33.638,0,0,0,.854-6.57h6.428A17.318,17.318,0,0,1,34.837,28.683Z" transform="translate(0 0)" fill="#fff"/>
  </g>
</svg>
