<svg xmlns="http://www.w3.org/2000/svg" width="170" height="27.871" viewBox="0 0 170 27.871">
  <g id="레이어_2" data-name="레이어 2" transform="translate(0.004 0)">
    <g id="레이어_1" data-name="레이어 1" transform="translate(-0.004 0)">
      <path id="패스_68" data-name="패스 68" d="M506.719,5.755l.386-5.407A.327.327,0,0,0,506.778,0H504.14a.327.327,0,0,0-.311.348l.364,5.407-5.009-2.022a.311.311,0,0,0-.432.2l-.818,2.517a.311.311,0,0,0,.23.417l5.264,1.3-3.5,4.134a.311.311,0,0,0,.056.473l2.14,1.555a.311.311,0,0,0,.47-.09l2.865-4.6,2.865,4.6a.327.327,0,0,0,.47.093l2.143-1.555a.33.33,0,0,0,.056-.476L507.5,8.157l5.267-1.313a.311.311,0,0,0,.23-.417l-.815-2.511a.311.311,0,0,0-.432-.2Z" transform="translate(-343.015 0)" fill="#ed6c00"/>
      <path id="패스_69" data-name="패스 69" d="M269.732,31h-3.26a.454.454,0,0,0-.454.454v6.9H253.263v-6.9a.451.451,0,0,0-.454-.454h-3.245a.454.454,0,0,0-.454.454V48.622a.454.454,0,0,0,.454.451h3.26a.451.451,0,0,0,.454-.451V41.709h12.755v6.9a.451.451,0,0,0,.464.451h3.26a.451.451,0,0,0,.451-.454V31.44a.451.451,0,0,0-.476-.442" transform="translate(-171.612 -21.355)" fill="#4c4948"/>
      <path id="패스_70" data-name="패스 70" d="M20.311,31H8.882a9.273,9.273,0,0,0-6.405,2.327A7.575,7.575,0,0,0,.65,36.105,10.786,10.786,0,0,0,0,39.975v.134a10.717,10.717,0,0,0,.66,3.87,7.532,7.532,0,0,0,1.829,2.775A9.245,9.245,0,0,0,8.9,49.074H20.315a.451.451,0,0,0,.451-.454V46.166a.451.451,0,0,0-.454-.451H9.535a5.352,5.352,0,0,1-4.078-1.5,5.7,5.7,0,0,1-1.384-4.106v-.134a5.794,5.794,0,0,1,1.372-4.116,5.473,5.473,0,0,1,4.082-1.509H20.315a.454.454,0,0,0,.451-.454V31.442A.451.451,0,0,0,20.311,31" transform="translate(0.004 -21.356)" fill="#4c4948"/>
      <path id="패스_71" data-name="패스 71" d="M185.481,31H174.048a9.265,9.265,0,0,0-6.4,2.327,7.575,7.575,0,0,0-1.826,2.781,10.72,10.72,0,0,0-.653,3.87v.134a10.717,10.717,0,0,0,.66,3.87,7.532,7.532,0,0,0,1.829,2.775,9.288,9.288,0,0,0,6.412,2.321h11.414a.454.454,0,0,0,.454-.454V46.166a.454.454,0,0,0-.454-.451H174.7a5.352,5.352,0,0,1-4.078-1.5,5.73,5.73,0,0,1-1.381-4.113v-.134a5.794,5.794,0,0,1,1.372-4.116,5.451,5.451,0,0,1,4.085-1.509h10.786a.457.457,0,0,0,.454-.454V31.442a.454.454,0,0,0-.46-.442" transform="translate(-113.782 -21.356)" fill="#4c4948"/>
      <path id="패스_72" data-name="패스 72" d="M103.944,31h-3.17a.454.454,0,0,0-.454.451v8.813a5.286,5.286,0,0,1-1.767,4.309A6.661,6.661,0,0,1,94.2,45.88h-.955A6.436,6.436,0,0,1,88.716,44.4a5.38,5.38,0,0,1-1.583-4.141v-8.81A.451.451,0,0,0,86.684,31h-3.17a.454.454,0,0,0-.454.454v9.221c0,5.2,3.752,8.552,9.551,8.552h2.221c5.8,0,9.551-3.357,9.554-8.552V31.454a.454.454,0,0,0-.442-.454" transform="translate(-57.219 -21.356)" fill="#4c4948"/>
      <path id="패스_73" data-name="패스 73" d="M337.762,35.262a5.808,5.808,0,0,1,3.593-1.076h10.786a.451.451,0,0,0,.451-.451v-2.29a.448.448,0,0,0-.451-.445h-11.43a9.273,9.273,0,0,0-6.405,2.327,7.575,7.575,0,0,0-1.826,2.781,10.72,10.72,0,0,0-.653,3.87v.134a10.718,10.718,0,0,0,.675,3.867,7.569,7.569,0,0,0,1.829,2.775,9.272,9.272,0,0,0,6.412,2.318h11.414a.451.451,0,0,0,.451-.454V46.331a.451.451,0,0,0-.451-.454H341.38a5.833,5.833,0,0,1-3.59-1.051,4.978,4.978,0,0,1-1.835-2.912l-.068-.274h15.6a.454.454,0,0,0,.451-.454V38.924a.451.451,0,0,0-.457-.457h-15.6l.065-.274a5,5,0,0,1,1.829-2.943" transform="translate(-228.595 -21.356)" fill="#4c4948"/>
      <path id="패스_74" data-name="패스 74" d="M435.643,31.451a.451.451,0,0,0-.451-.451h-3.008a.451.451,0,0,0-.451.451v13.6h-.488L420.138,31.473a1.294,1.294,0,0,0-1-.473h-4.072a.454.454,0,0,0-.454.454V48.623a.451.451,0,0,0,.454.451h3.005a.451.451,0,0,0,.451-.451V35.446h.495l10.733,13.141a1.294,1.294,0,0,0,1,.479h4.442a.451.451,0,0,0,.451-.454Z" transform="translate(-285.627 -21.356)" fill="#4c4948"/>
    </g>
  </g>
</svg>
