<svg data-name="Full screen" xmlns="http://www.w3.org/2000/svg" width="24" height="24" viewBox="0 0 24 24">
    <g data-name="그룹 770">
        <path data-name="패스 2040" d="M1780 2189v-1h-1v1zm8 1h1v-2h-1zm9 7v-1h-2v1zm-17-7h8v-2h-8zm1 14.5V2189h-2v15.5zm14.5-.5h-15v2h15zm-.5-7v7.5h2v-7.5zm.5 9a1.5 1.5 0 0 0 1.5-1.5h-2a.5.5 0 0 1 .5-.5zm-16.5-1.5a1.5 1.5 0 0 0 1.5 1.5v-2a.5.5 0 0 1 .5.5z" style="fill:#697278" transform="translate(-1776 -2185)"/>
        <path data-name="패스 2041" d="m1795.8 2189.22-7.6 7.6" style="fill:none;stroke:#697278;stroke-width:2px" transform="translate(-1776 -2185)"/>
        <path data-name="패스 2042" d="M1791.18 2189h3.8a1 1 0 0 1 1 1v3.8" style="fill:none;stroke:#697278;stroke-width:2px" transform="translate(-1776 -2185)"/>
    </g>
</svg>
