<svg xmlns="http://www.w3.org/2000/svg" width="24" height="24" viewBox="0 0 24 24">
    <g data-name="그룹 802">
        <path data-name="패스 2047" d="M691 2557h-14v16h14zm-14-2a2 2 0 0 0-2 2v16a2 2 0 0 0 2 2h14a2 2 0 0 0 2-2v-16a2 2 0 0 0-2-2z" transform="translate(-672 -2553)" style="fill-rule:evenodd;fill:#697278"/>
        <path data-name="패스 2048" d="M681 2567h-2v-2h2z" transform="translate(-672 -2553)" style="fill-rule:evenodd;fill:#697278"/>
        <path data-name="패스 2049" d="M685 2567h-2v-2h2z" transform="translate(-672 -2553)" style="fill-rule:evenodd;fill:#697278"/>
        <path data-name="패스 2050" d="M689 2567h-2v-2h2z" transform="translate(-672 -2553)" style="fill-rule:evenodd;fill:#697278"/>
        <path data-name="패스 2051" d="M681 2571h-2v-2h2z" transform="translate(-672 -2553)" style="fill-rule:evenodd;fill:#697278"/>
        <path data-name="패스 2052" d="M685 2571h-2v-2h2z" transform="translate(-672 -2553)" style="fill-rule:evenodd;fill:#697278"/>
        <path data-name="패스 2053" d="M689 2571h-2v-2h2z" transform="translate(-672 -2553)" style="fill-rule:evenodd;fill:#697278"/>
        <path data-name="패스 2054" d="M689 2563h-10v-4h10z" transform="translate(-672 -2553)" style="fill-rule:evenodd;fill:#697278"/>
    </g>
</svg>
