<svg data-name="Test Drive_48" xmlns="http://www.w3.org/2000/svg" width="48" height="48" viewBox="0 0 48 48">
    <g data-name="그룹 938">
        <path data-name="패스 2287" d="M326.987 1199a17.563 17.563 0 0 0 7.457-13H321.9a5.009 5.009 0 0 1-3.9 3.9v9.1zM316 1189.9v9.1h-9.152a17.567 17.567 0 0 1-7.458-13h12.71a5.009 5.009 0 0 0 3.9 3.9zm-3.9-5.9a5 5 0 0 1 9.8 0h12.591a17.584 17.584 0 0 0-35.148 0zm15.5 17a19.583 19.583 0 1 0-21.363 0zm-13.6-16a3 3 0 1 1 3 3 3 3 0 0 1-3-3z" style="fill:#697278;fill-rule:evenodd" transform="translate(-293 -1159)"/>
    </g>
</svg>
