<svg id="Test_Drive_48" data-name="Test Drive_48" xmlns="http://www.w3.org/2000/svg" width="48" height="48" viewBox="0 0 48 48">
  <defs>
    <style>
      .cls-1 {
        fill: red;
        opacity: 0;
      }

      .cls-2 {
        fill: #ffffff;
        fill-rule: evenodd;
      }
    </style>
  </defs>
  <rect id="Area" class="cls-1" width="48" height="48"/>
  <g id="그룹_938" data-name="그룹 938" transform="translate(-293 -1159)">
    <path id="패스_2287" data-name="패스 2287" class="cls-2" d="M326.987,1199a17.563,17.563,0,0,0,7.457-13H321.9a5.009,5.009,0,0,1-3.9,3.9v9.1ZM316,1189.9v9.1h-9.152a17.567,17.567,0,0,1-7.458-13H312.1A5.009,5.009,0,0,0,316,1189.9Zm-3.9-5.9a5,5,0,0,1,9.8,0h12.591a17.584,17.584,0,0,0-35.148,0Zm15.5,17a19.583,19.583,0,1,0-21.363,0ZM314,1185a3,3,0,1,1,3,3A3,3,0,0,1,314,1185Z"/>
  </g>
</svg>
